<?xml version="1.0" encoding="UTF-8"?><svg id="Layer_2" xmlns="http://www.w3.org/2000/svg" viewBox="0 0 1153.26 224.98"><g id="Layer_1-2"><g id="Generative_Object"><path d="M493.91,46.37c-2.8.41-6.02,1.92-9.52.84,3.36-3.19,6.26-2.11,9.52-.84Z" style="fill:#df4d9b;"/><path d="M709.63,111.66c-4.12,5.57-7.81,13.2-13.19,17.96-.69.61-2.45.27-2.72.91-.32.76-.47,2.27-1.98,3.71l.71-4.73-6.66,9.48c-2.56-1.23-1.67-4.33-2.58-6.65-1.15,2.06-1.27,3-2.72,4.37.32-1.19-.46-3.02-1.88-1.63-.68.67-.63,2.04-.52,2.39.36,1.07-3.68,5.25-1.56-11.81l4.59-37.04-41.99,80.42c-2.69,5.15-5.9,9.55-10.58,12.65.73-1.73,1.2-2.41.92-3.91-1.54,1.64-3.16,4.1-5.65,5.61-1.09.66-2.12-1.34-2.15-2.24-.05-1.32.99-3.2,2.46-5.45-1.89.57-2.69,2.59-3.62,3.82-1.84,2.17-3.15,1.91-2.35-.66-.94,1.03-1.08,2.34-3.22,3.61-.12-3.84.88-8.32,3.38-13.29,21.49-42.72,43.68-85.05,67.04-127.81,1.59-2.92,3.78-5.48,5.74-6.52,3.48-1.84,4.56,3.44,11.06-2.25,1.86,1.07,1.88,4.82,2,7.33.78-1.48,1.46-3.98,2.74-5.22.96-.92,3.07-2.51,4.35-2.39.64,5.06-.17,10.72-.92,16.25l-5.7,42.26c11.32-14.78,46.01-61.25,50.46-61.83.6-.08,1.48.44,1.49,1.71-.1.19,1.27-1.3,1.52-1.18.28.14.16,1.47.51,1.27,1.12-.62,1.69-1.57,1.97-1.97.57-.8,1.09.05,1.03.41l4.04-3.14c1.08,1.35,1.03,2.67,1.42,4.85,2.22-3.02,3.1-3.69,4.69-3.84,5.01-.47-2.48,15.34-7.79,27.33l-36.53,82.49c-1.43.05-2.45,2.06-.74,1.53-2.1,5.6-4.43,11.58-7.63,17.21.49-2.27-.49-2.1-1.65.01-.38,2.84-.25,5.05-3.05,8.21.16-1.56,1.39-3.44.38-4.75-.82,1.51-1.15,3.81-3.87,5.23,1.16-2.14,2.59-4.26,2.27-5.68-8.41,10.98-7.67,21.15-12.06,20.95l.06-5.17,2.27-10.9,11.8-31.1c-3.08,4.88-4.18,9.09-8.02,13.81-1.78-.59-.9,0,.5.32l-6.52,16.75-3.36,10.74c-.35.35-.79.63-.93.68l2.43-7.96,3.25-12.45c-5.24,8.4-5.42,15.6-9.08,20.65,3.31-13.61,9.88-29.94,16.01-44.7l16.56-39.89c-5.95,7.92-10.61,17.09-16.4,21.22Z" style="fill:#ed218c;"/><path d="M719.06,124.15c-.64,1.4-1.74,2.53-1.62,4.69-3.75-.44.72-4.38,1.48-6.08l16.84-37.52c.56.02.7.4.71.69l-17.41,38.22Z" style="fill:#de569f;"/><path d="M741.57,88.04l9.98-22.61c.34-.41.72-.58.94-.6l-9.98,22.61c-.34.41-.72.58-.94.6Z" style="fill:#df65a6;"/><path d="M682.96,127.97c-.22-1.34-.59-2.77,1.18-5.07.09,1.16.84,2.06-1.18,5.07Z" style="fill:#e5a6cb;"/><path d="M738.14,96.03c.06-1.43,1-3.04,1.72-4.52.35-.35.67-.55.74-.58-.06,1.43-1,3.04-1.72,4.52-.35.35-.67.55-.74.58Z" style="fill:#eec1da;"/><path d="M753.48,61.92c.06-1.43,1-3.04,1.72-4.52.35-.35.67-.55.74-.58-.06,1.43-1,3.04-1.72,4.52-.35.35-.67.55-.74.58Z" style="fill:#de71ac;"/><path d="M736.68,84.4c0-1.03.31-2.18,1.83-4.11.17.61.3,1.75-1.83,4.11Z" style="fill:#dc5aa1;"/><path d="M729.13,116.91c-.25.55-.82,1.01-1.29,1.04s-.65-.38-.41-.93.82-1.01,1.29-1.04.65.38.41.93Z" style="fill:#d84f9d;"/><path d="M215.81,64.88c-10.08-5.57-24.19-4.16-39.12-.19-2.36.63-3.65,1.3-6.39,4.23.81-2.85.49-4.59-1.31-4.18-1.27.28-2.85,1.27-4.46,3.21l-1.36,1.63c-.85,1.03-1.31.4-.98,0,.26-.31.55-1.87-.45-1.72-3.25,1.54-6.58,6.47-8.5,10.72l-59.18,131.1c-2.27,5.02-2.91,9.08-2.58,12.85l4.9-5.12c-1.33,2.04-1.75,4.19-.17,3.89.43-.84,2.66-3.32,2.93-2.71l1.85,4.09,6.09-7.03c-.63,2.08-1.35,3.54-.99,5.26,3.91-3.07,6.81-7.02,8.86-11.53l20.02-44.2c16.7.13,35.8-5.89,54.49-19.48,19.4-14.11,32.14-31.78,36.9-49.71,3.89-14.67-.97-25.79-10.54-31.08ZM192.8,120.5c-14.19,14.5-33.19,19.92-46.97,20.33l24.09-53.18c12.11-3.11,23.55-3.35,30.04,2.59,6.61,6.06,3.92,18.93-7.16,30.26Z" style="fill:#ed218c;"/><path d="M180.43,69.71c.46.08,1.23-.33,1.39-1.08,4.01-.66,8.03-1.52,11.04-.01-7.79.19-14.65,6.15-12.42,1.09Z" style="fill:#e162a4;"/><path d="M182.92,75.45c-2.86.88-6.27,2.9-8.61,2.07,3.64-2.93,6.13-1.79,8.61-2.07Z" style="fill:#e376ae;"/><path d="M180.78,84.05l-7.89.95c-1.64,2.22-2.78.39-.55-.79l8.3-.84c.27.15.23.48.15.68Z" style="fill:#eec9e0;"/><path d="M200.55,123.78l6.56-8.22.3.56c-2.92,4.65-5.55,8.62-6.86,7.66Z" style="fill:#e06ba9;"/><path d="M194.08,130.99c1.21-2.3,4.16-5.96,6.47-7.2-1.5,2.14-4.37,6.48-6.47,7.2Z" style="fill:#e06ba9;"/><path d="M182.92,75.45s.33-.67.62-.99l7.22-.54c.25.18.2.52.16.63l-7.99.9Z" style="fill:#e376ae;"/><path d="M181.82,68.63c-.16.75-.93,1.15-1.39,1.08-1.45,1.01-3.41,2.29-3.84.09,2.54-1.53,3.67-.91,5.23-1.17Z" style="fill:#fceef5;"/><path d="M194.08,130.99c-.71,1.21-2.92,2.74-3.29,2.15.48-1.75,2.42-1.85,3.29-2.15Z" style="fill:#e06ba9;"/><path d="M1019.15,70.62c11.25-33.86.6-61.88-29.01-59.35-.32,2.68,2.93,1.41,3.88,2.75l-13.4,1.78-.1-2.33c0-.16-.94-.04-1.28.73l-.84,1.92c-.48-.27-1.38-.16-1.8.31-.42.47-.99,1.2-1.8,1.6,1.04-2.31.36-3.38-.74-3.37-2.48,0-7.73,8.16-10.65,14.7l-43.44,97.1-11.86,28.16c-1.25,2.97-1.99,6.87-1.01,8.56.5.28,2.48-1.46,3.24-3.27.23,1.04.18,2.99,1.67,3.45,1.46-.64,3.51-3.41,5.33-5.8.09,1.87-.61,4.02.13,5.92l4.69-5.3c-.53,2.35-.92,3.45-.23,4.47,1.95-2.37,3.37-3.74,5.3-5.54,2.7-2.52,5.07-.93,6.25.16l12.31-4.2c32.78-15.19,62.61-48.87,72.96-81.78-.88.43-2.41.97-2.34.49.26-1.83,1.08-3.76,2.29-5.33.03,1.54-1.35,4.06.44,4.18ZM998.57,66.73c-5.51,28.87-33.3,60.51-63.29,72.46l47.09-105.69c14.05,3.01,19.54,15.73,16.2,33.23Z" style="fill:#ed218c;"/><path d="M962.61,43.77l4.76-11.78-.69-1.62c-.3-.71,1.39-1.88,2.77-3.05,1.11-.95.55-4.04,3.84-5.07l-12.77,29.07c-.25.34-.67.59-.92.57l3.01-8.12Z" style="fill:#f6e2ee;"/><path d="M923.95,128.2c1-3.26,2.58-6.99,4.62-11.27,2.98-1.66-.39,3.32-1.42,8.26-.67.54-2.92,2.27-3.2,3.02Z" style="fill:#eba9cc;"/><path d="M916.51,144.97c-.73-.89-.11-4.27,1.84-6.88.99-.91,2.84-.35,2.16,1.35-.71,1.76-.58,2.49-4,5.53Z" style="fill:#e64f9c;"/><path d="M976.65,30.68l-4.68,10.08c-.47.56-.93.65-.88.63.77-4.18,3.85-8.75,5.84-13.07,1.75-.64,2.68.35,2.44,1.35-.13.53-2.46.47-2.71,1Z" style="fill:#f0c6dd;"/><path d="M1014.69,43.08c-1.92-3.66-4.53-3.78-2.84-6.58.56,2,3.75,3.76,2.84,6.58Z" style="fill:#e159a0;"/><path d="M929.3,140.68l5.72-7.79c-.03,2.81-1.94,6.05-5.72,7.79Z" style="fill:#df75ae;"/><path d="M962.96,59.47l4.5-10.55c.34-.4.69-.55.83-.58l-4.5,10.55c-.34.4-.69.55-.83.58Z" style="fill:#e0559f;"/><path d="M1011.84,36.5l-2.54-4.44c2.71-.2,2.17,3.13,2.54,4.44Z" style="fill:#e159a0;"/><path d="M1009.3,32.06c-.53-.02-1.21.06-1.47-.45-.28-.55-.75-1.05.62-2.58l.85,3.02Z" style="fill:#e159a0;"/><path d="M923.95,128.2c.83,1,.55,2.6-1.28,4.17l1.28-4.17Z" style="fill:#eba9cc;"/><path d="M1014.69,43.08c.08.56,1.41,1.91-.04,2.82-1.57.5-.5-1.72.04-2.82Z" style="fill:#e159a0;"/><path d="M303.24,60.76c-.99-1.11-4.54,1.52-6.19,1.11-1.06-.26-.98-3.76-3.65-1.91-.9.63-2.26,2.17-3.06,2.61-2.45,1.37-2.61-2.9-5.61-1.38-2.42,1.23-5.78,7.3-4.9,9.5-2.11,1.15-3.45,2.24-4.75,3.82-6.15,7.48-11.52,14.85-16.92,22.86l-51.69,76.55-16.2,26.18c-1.52,2.45-3.4,4.73-4.85,7.59l-1.37,1.43c-.22.23.13.94.72,1.42l18.37-27.79c.64-.97,1.08-2.81,2.33-3.84,1.03-.85,3.93-2.47,3.14.52l8.35-13.02c-.21,3.21-3.17,6.82-5.34,10.24-8.83,13.45-17.47,26.49-22.84,40.16-1.11.75-1.38,1.8-1.5,2.37-.14.64,1.45.77,2.45-.57l13.67-18.26c.16,2.92-2.56,5.38-3.97,8.28l6.65-7.78c.33-1.46,2.24-3.42,3.53-4.68-.16,2.14-2.35,4.53-3.53,4.68-.45,1.96-1.25,3.48-1.98,5.56l9.11-12.68-.1-2.13,2.69-2.82c.76-2.03,1.94-2.07,1.04.31l9.11-12.7,34.71-2.71-5.34,25.47c-.65,3.12-.92,6.35.22,8.01,1.64-1.52.73-1.77.62-2.05-.14-.36.77-1.65,1.27-1.74-.2,1.42,0,1.55.33,2.81,1.69-2.06,2.69-4,3.9-6.78.13,3.8-.61,7.99,1.19,10.86,3.74-3.94,3.16-7.14,5.59-11.87.41,2.68.06,5.72,1.98,6.93-.37.75-.4,1.77-.22,1.92,2.28,2.01,3.19-10.09,6.91-18.55-.53,2.05.44,2.22,1.68.87l15.95-71.57,5.16-26.41c1.69-8.62,4.51-29.54,3.35-30.83ZM265.18,151.8l-23.92,2.14,33.76-49.32-9.84,47.18Z" style="fill:#ed218d;"/><path d="M296.68,93.95l-5.43,15.97-1.34.14,1.21-4.58c.7-2.66,3.35-6.97,2.41-9.5-.64-1.73-1.23-3.32,1.47-5.93-.67,1.89-1.03,2.8-.57,3.65.2.37.71.7,2.26.25Z" style="fill:#e17fb4;"/><path d="M268.16,92.52l6.13-8.18c.35-.36.84-.59,1.03-.49-3.3,5.21-6.58,10.09-7.16,8.67Z" style="fill:#e172ac;"/><path d="M296.68,93.95l.83-7.24c.41-.23.87-.64.84-.61.02,2.43-.75,5.24-1.68,7.86Z" style="fill:#e17fb4;"/><path d="M253.09,125.08c-.54-.55.81-3.1,2.58-3.75.67.12-.45,2.89-2.58,3.75Z" style="fill:#e160a4;"/><path d="M251.45,117.44c0-1.62,1.05-3.9,3.6-5.15-.72,1.72-1.59,2.52-3.6,5.15Z" style="fill:#d75ea3;"/><path d="M206.07,200.84c.33-1.46,2.24-3.42,3.53-4.68-.16,2.14-2.35,4.53-3.53,4.68Z" style="fill:#fff;"/><path d="M212.15,170.87c-.25.55-.82,1.01-1.29,1.04s-.65-.38-.41-.93.82-1.01,1.29-1.04.65.38.41.93Z" style="fill:#fcfdfb;"/><path d="M0,204.49c2.32-.54,2.23,1.12,3.73,1.79l-.46-6.94c-.06-.88-.15-1.38.54-2.07.79-.78,1.82-1.45,2.58-.88.5.38.81.73,1.44.32,2.45-1.59.47-3.69,2.12-5.19,1.15-1.05,2.34-1.41,3.02-.56l4.98,6.21c-1.77,2.35,1.44,1.27.91.2-2.35-4.36-4.37-7.36-.7-9.67,5.11-3.22,5.39,10.68,21,11.71,8.9.59,20.08-2.84,29.99-11.52,7.09-6.21,10.45-14.36,8.53-19.93-4.2-12.16-22.74-12.34-33.64-23.11-10-9.88-6.26-30.13,10.45-49.11,15.69-17.81,36.47-29.38,53.22-29.98,10.03-.36,17.19,4.03,19.53,11.91-1.39,2.88-.27,4.71-.3,7.37-.53.94-2.53,1.76-3.55,1.33l-.33,7.43c-1.38.27-2.05.55-2.46.9-.64.54-1.37,2.7-1.79,3.55-2.01,1.65-3.41-.51-4.42-1.18-1.61-1.07-3.11-1.56-4.26-3.09-7.55-10.14-28.74-2.09-41.69,12.37-5.84,6.53-6.83,13.02-3.24,16.32,9.25,8.5,27.04,8.74,35.05,24.53,6.91,13.61-1.1,35.99-19.93,53.83-25.41,24.09-56.7,29.65-72.31,18.23-4.53-3.32-7.7-7.79-8.02-14.79Z" style="fill:#ed218c;"/><path d="M94.05,151.9l2.35-.83c.53,1.57.72,3.25,1.11,4.93-1.62,2.98-2.15,6.72-.29,7.85-2.36,5.75-.31,4.08-.24,5.56.04.75-.59,1.66-1.51,1.69-.09-.57-.67-1.36-1.23-.68-.53.64-.88,1.45-1.74,1.93l.77-9.22c1.5-.37,1.7-1.45,1.37-2.05-.42-.76-.51-1.91-1.8-1.59-2.13-11.33-11.49-13.65-12.94-16.88,6.22,2.04,10.79,6.29,13.41,13.46,1.71-1.19,1.28-3.32.73-4.17Z" style="fill:#e16fab;"/><path d="M96.41,151.07l-2.35.83c-.79-1.2-1.04-2.48-2.01-3.83l-2.81-3.93c-3.76-2.43-6.83-5.21-11.62-6.73-1.55-.11-.46-1.85.83-1.36.78.26.81.92,1.19.78.45-.17,1.23-1.25,1.56-1.9.57,1.35.95,2.42,2.22,3.01,5.97,2.76,10.85,6.84,12.99,13.12Z" style="fill:#fae5ef;"/><path d="M95.48,171.1c-.43,2.43-1.22,4.94-3.08,6.94-5.85,6.27-9.93,14.22-17.94,20.9-.19-1.3,1.81-3.12,3.13-4.49,6.57-6.82,12.8-14.74,14.92-22.1.86-.49,1.21-1.29,1.74-1.93.56-.68,1.14.11,1.23.68Z" style="fill:#fdfeff;"/><path d="M72.95,93.6c11.69-11.43,27.56-17.01,37.17-13.54-2.25,1.46-4.81.64-5.96.2-2.99-1.15-16.64,3.78-19.73,5.81l-11.48,7.54Z" style="fill:#e071ac;"/><path d="M79.92,142.61l-15.6-5.1c-.64-.21-1.12-.63-.77-1.46l4.83-2.1c-1.96,2.58-.67,3.55.05,3.48l2.11-.22c1.29,2.95,7.57,1.54,9.38,5.42Z" style="fill:#e16fab;"/><path d="M84.74,176.9c1.51-6.85,1.41-11.92.2-17.8,3.24,3.42,4.34,9.93-.2,17.8Z" style="fill:#dd74ad;"/><path d="M53.46,123.1c-2.67-3.34,2.4-8.59,3.92-15.58,2.3-1.1,2.69-1.19,2.62.16-4.99,6.14-5.85,10.64-6.54,15.42Z" style="fill:#e16fab;"/><path d="M49.73,204.03c-5.6,2-9.87,1.82-14.52,2.58l.6-1.3,10.41-1.36c.95-.13,3.31-1.97,3.51.08Z" style="fill:#e775ae;"/><path d="M72.95,93.6c-3.81,3.52-6.76,7.49-10.83,10.52,2.67-4.48,6.8-7.88,10.83-10.52Z" style="fill:#e071ac;"/><path d="M63.55,136.04c-2.94-.93-6.57-1.73-6.61-5.53l5.08,3.65,2.04-.14c.5-.03.25,1.2-.5,2.01Z" style="fill:#e16fab;"/><path d="M97.23,163.85c-1.86-1.13-1.34-4.86.29-7.85l1.13,4.85c.25,1.08-1.16,2.38-1.41,3Z" style="fill:#fcf2f7;"/><path d="M56.94,130.51c-2.13-1.53-3.96-4.05-3.48-7.41,1.56,1.99,3.34,4.51,3.48,7.41Z" style="fill:#e16fab;"/><path d="M66.86,198.19c-1.45,1.94-3,.76-.83-.64l2.05-1.53c.43-.32,1.15-.05,1.05.42-.08.37-.64,1.85-2.27,1.76Z" style="fill:#e159a1;"/><path d="M93.28,163.13c.1-1.23-1.28-1.81-.43-3.65,1.29-.32,1.38.83,1.8,1.59.33.6.13,1.69-1.37,2.05Z" style="fill:#f3ebf5;"/><path d="M47.03,219.42c-1.16.61-2.28.94-3.55.26.79-.57,2.16-1.41,3.55-.26Z" style="fill:#f1bfd9;"/><path d="M453.46,131.06c-6.59,2.3-12.13,2.68-18.26,3.42l-13.31,1.61-17.09,37.33c16.41-2.35,31.56-4.17,47.09-5.23.56-.04-.72,1.77-1.11,1.68-.33-.07-.93-.5-1.74.24-1.68,1.52-.58,2.45-.04,2.79,1.58,1,5.89-2.3,5.18,2.01-2.54,2.7-5.78,3.11-8.25,3.83.02,2.02-1.56,3.39-2.59,2.67-3.52,1.98-6.61,3.35-10.38,3.93.63,1.92,3.12.77,6.18-.61-1.77,1.67-4.11,2.65-6.56,3.34-1.6-.76-3.18,2.62-.88,1.89l1.87.29c.42.07.4,1.41-.66,1.76-8.53,2.81-16.19,3.8-23.94,4.63l-29.38,3.13c-2.2.23-5.78-.09-3.05-3.78-.45-4.7,1.29-10.85,5.2-17.17l6.46-16.81c13.54-30.36,27.62-60.41,42.52-90.85,3.5-7.15,11.24-20.13,11.16-20.05.9-.93,2.47-2.01,4.21-2.18l39.12-3.81c-.11,1.24-1.21,2.46-2.48,3.55,2.58,2.33,7.08.86,10.79.61,4.41,4.06,15.24-1.21,15.18,1.76-.07,3.46-8,3.37-14.52,6.49-4.81,2.31-9.32,2.13-13.82,2.97-1.77.59-2.08,2.67-.15,1.54,1.37-.2,1.98.28.75,2.41,3.04-.13,6.1-.66,8.09,1.59-13.19,3.7-24.58,3.76-37.42,5.43l-18.41,39.83c10.96-1.2,21.63-2.03,31.1-.55l3.62,1.44c-1.85.51-2.71.63-4.58,2.25,1.48,2.64,6.34-.85,7.4,1.64.21.49-1.32,2.55-2.4,2.67-3.19.33-6.81,2.82-10.46,3.96l-11.63,3.65c2.06.1,4.26-.77,4.94.69-2.08-.29-3.73,1.78-2.6,2.71,2.57-.82,4.41-.81,4.81,1.3Z" style="fill:#ed218c;"/><path d="M395.03,162.71c-.63.35-1.99.66-2.38,1.28-.27.43-1.26,1.78-.51,2.7-2.46,1.04-3.08,3.27-4.44,5.82-.51-2.84,4.15-8.45,5.79-11.31-.08.74.02,1.22.3,1.2l1.23.33Z" style="fill:#f6aecd;"/><path d="M395.03,162.71l-1.23-.33c-.28.02-.38-.46-.3-1.2,2.77-4.85,1.91-6.44,3.79-8.6,2.08,1.26-2.57,5.88-2.26,10.12Z" style="fill:#fefaf8;"/><path d="M461.96,111.65c-2.45,2.43-3.5,1.83-4.65.29,1.42-.82,2.92-1.37,4.65-.29Z" style="fill:#fef6f9;"/><path d="M455.74,113.06c-1.58.79-2.84.62-4.07.64-.18-.21-.22-.48-.21-.54,1.58-.79,2.84-.62,4.07-.64.18.21.22.48.21.54Z" style="fill:#fefbfd;"/><path d="M436.32,87.37c1.18-1.28,1.23-.23,1.26,0,.12.7-.42,1.18-1.23,1.71s-1.28-.37-.04-1.72Z" style="fill:#e4569f;"/><path d="M426.32,109.63c-.12,1.83-2.45,2.57-1.13.29.24-1.09,1.59-1.55,1.13-.29Z" style="fill:#e54599;"/><path d="M1077.39,82.89c3.37-1.76,4.86-1.51,4.98.17-1.91.05-2.98,1.47-2.19,2.51,1.58-.28,3.65-.74,3.77,1.51-10.28,3.04-35.36,4.43-45.46,5.53l-18.07,39.44,61.29-5.4c.75-.07.98.01,1.16.49.09.23-.1.97-.91,1.15l-2.07.47c-.55.13-2.19,2.03-1.61,2.57,1.51,1.38,8.1-1.6,7.39,1.16-.84,3.22-5.64,2.33-9.1,6.15-.97.25-2.39.5-3.49,1.07s-1.65,1.51-1.75,2.27c-4.74.74-8.72,1.21-13.79,2.79,1.75,1.05,4.34.11,6.36.23.25.11.27.43.1.74l-4.64.96c.53,2.42,3.75,1.23,6.57,1.73-2.84,2.7-5.34,2.89-7.7,3.15l-64.72,6.5c-.99.11-1.79-.76-2.29-1.17-.4-.33,1.49-2.38,1.34-2.94-1.12-3.98,2.31-12.18,5.43-18.04l5.9-15.14,43.32-93.52,9.11-16.04c.6-1.06.81-2.8,2.19-4,.93-.81,2.27-2.07,4.06-2.21L1129.69.1c4.07-.31,7.84.04,10.42,2.15-3.27-.6-6.31-1.31-11.89,1.55,1.17,2.24,4.85.61,7.23.5,2.59-.12,3.74,1.03,5.85,1.04l5.04.04c2.64.02,5.72-1.2,6.91,1.33-4.88,3.32-7.4,2.79-12.13,4.01.35.02.58.24.59.61.02.57-.47,1.32-1.16,1.69-.13-.18-1.27,1.02-1.58-.52-6.06,3.08-10.19,1.86-15.83,3.45,2.48.94,6.54-.84,7.82,1.73-2.37.16-3.85-.34-6.19,1.42,3.09.76,6.18-.17,8.21,1.71-13.85,3.4-51.99,5.84-64.93,7.01l-18.43,40.35c10.22-1.34,34.83-3.18,42.48-1.37l-10.92,1.1c.43,3.31,3.98,3.35,8.13,1.58.27.44-.61,2.42.62,2.32l3.24-.28c3.67-.31,8.09.08,7.59,1.44-.26.71-1.77,1.93-2.87,2.47-2.34-.06-4.92,1.15-6.73,3.27l-12.58,2.51c-1.17-1.24-3.12,2.09-1.19,1.71Z" style="fill:#ed208c;"/><path d="M1010.02,120.68c-2.52.53-3.75,3.88-3.81,6.09-.65,2.54-3.45,2.55-1.99.22,3.19-5.08,6.04-9.53,8.16-14.68.33-1.57,2.46-2.42,1.13-.09,1.92-.04,1.12,2.04-1.06,2.64.52,1.33-.93,5.5-2.44,5.82Z" style="fill:#f5deec;"/><path d="M1021.4,101.66c-1.67.76-2.74,1.69-4.34,3.08.49-2.27,1.23-3.41,2.51-5.35l1.83,2.27Z" style="fill:#e0499a;"/><path d="M1040.86,66.96l3.19-5.24c.29,1.06-.18,3.78-3.19,5.24Z" style="fill:#e34699;"/><path d="M1053.56,43.77c-.4,2.01-2.46,2.15-1.02.07.39-1.34,1.85-1.43,1.02-.07Z" style="fill:#e1569f;"/><path d="M840.14,134.09c-.39,1.07-.1,1.81-.5,3.07-1.64.75-1.43-.19-1.77-.14-1.17.19-1.48,1.88-1.86,2.38-3.33,3.9-8.53,6.01-13.2,7.08-2,.46-3.76-1.33-6.9,1.34,1.26-.13,3.96-1.03,4.56.03,2.13,3.76,12.77-4.52,20.35-11.09l8.36-7.25,11.73-13.12c-.76-1.31.97-2.2,1.64-2.51.72-.34,1.95.79,1.07,2.17-2.48,3.87-6.29,7.79-7.31,12.06.54.97-1.32,2.72-2.26,1.87-1.88,1.9-2.57,3.14-3.95,5.27l10.2-8.55-5.11,7.37,7.82-5.53c-6.11,8.24-13.52,13.8-20.34,20.34-6.7,6.42-13.31,10.08-20.55,13.66l-5.98,2.96c9.54-1.66,18.67-8.73,29.74-16.76-9.79,9.35-21.48,17.31-32.63,20.19-29.21,7.55-37.74-19.63-29.26-49.59,8.64-30.52,31.43-64.05,60.47-87.72,9.08-7.4,17.59-11.98,26.3-15.2,20.15-7.44,31.87,4.38,24.54,25.12l-3.24,4.29c-.52,2.69-2.57,5.86-5.46,8.07-1.02.78-2.38,3.98-4.42,4-.3-2.38.55-5.42,1.25-8.92l-2.9,3.52c1.63-9.15-1.43-15.85-10.6-13.92-6.42,1.35-13.47,6.08-19.8,11.64-20.3,17.81-36.05,41.35-42.1,63.14-5.42,19.55-1.35,37.03,17.15,30.28,5.3-1.94,10.13-6.53,14.95-9.55Z" style="fill:#ed218c;"/><path d="M887.24,31.24c-4.58,2.16-4.76-6.23-17.54-1.54-2.26.83-4.57,2-6.31,1,9.73-4.3,18.99-5.2,23.85.54Z" style="fill:#e9a2c7;"/><path d="M816.68,154.34c-2.84,3.3-4.26,1.45-5.53,1.34-4.31-.35-8.42-1.04-9.97-4.72,5.37,2.16,8.94,4.47,15.5,3.38Z" style="fill:#e66aa8;"/><path d="M813.71,162.78c-2.21,1.74-4.82,2.5-5.84,2.25l-3.51-2.23c4.14-1.06,6.48-1.43,9.35-.02Z" style="fill:#faeef5;"/><path d="M787,152.69c-1.39.28-2.32-1.34-1-3.53.74.7,1.49,1.28,1,3.53Z" style="fill:#f3cfe3;"/><path d="M795.68,105.94c.71-.25-.18,2.23-1.17,2.72-.3.15-.45-.61-.53-.84-.13-.36.34-1.4,1.7-1.88Z" style="fill:#f8fcf9;"/><path d="M358.96,167.59c5.03-4.28,12.46-12.95,15.68-17.99.43-.68,1.97.11,1.78.78-1.31,4.49-8.22,11.59-11.74,18.98l5.76-5.9c1.31-.62,1.54.13.72,1.19-.76.99-1.48,1.9-2.06,3.47l6.56-4.51c-6.25,8.77-13.99,15.37-21.86,22.55-7.3,6.65-15.2,9.89-23.49,13.89,2.16.5,4.97-.97,7.44-2.27l12.94-6.79c-19.62,15.86-40.11,18.3-49.41,6.65-7.7-9.65-8.41-24.87-3.82-42.22,7.48-28.28,27.67-59.15,53.91-82.7,10.49-9.41,20.98-16.27,31.95-20.28,20.02-7.33,31.23,4.12,24.99,24.31-.78,2.53-2.26,3.9-3.7,5.79-1.04,1.63-1.83,5.15-4.38,6.16-1.41.56-2.23,4.94-5.85,5l1.4-7.36c-.72-.06-1.56,1.05-1.6,1.57-.02.3-.83.55-.86.13l-.1-1.52c1.6-9.69-4.03-15.16-14.45-10.76-5.9,2.49-11.8,6.72-17.28,11.76-20.72,19.06-36.16,43.71-40.88,65.87-1.93,9.07-1.81,17.27,2.17,22.5,5.2,6.84,16.74,4.85,28.19-4.73-3.9,5.58-9.36,8.97-15.25,10.69,3.62,4.1,15.24-7.41,23.28-14.26Z" style="fill:#ed218c;"/><path d="M313.03,184.31c3.15,1.47,5.9,4.4,10.47,5.18,1.6.27,5.07-1.58,5.25,1.37-4.93,1.08-8.63-.35-11.99-2.41-1.48-.91-4.06-1.52-3.73-4.15Z" style="fill:#eb84b5;"/><path d="M398.16,66.46c1.94-.3,1.02,2.34-.7,2.31-3.65-7.32-13.21-2.07-14-5.61,5.65-.26,13.1-.25,14.7,3.3Z" style="fill:#eca1c7;"/><path d="M327.45,197.43c-3.76,3.68-7.96,3.29-9.19.43,4.2-1.85,6.4-.99,9.19-.43Z" style="fill:#fbedf4;"/><path d="M307.11,146.82c.23-2.33-.25-4.88,3.05-7.76,0,2.8-1.32,4.93-3.05,7.76Z" style="fill:#f3d0e4;"/><path d="M300.45,188.22c-.96-1.09-1.41-2.12-1.65-3.78,2.16-.36,2.91,1.38,1.65,3.78Z" style="fill:#eebfd9;"/><path d="M313.03,184.31c-.4.13-1.27.18-1.38-.13-.09-.24-.02-.81.89-1.62.07-.06,1.15.73.49,1.75Z" style="fill:#eb84b5;"/><path d="M876.71,162.94c-1.16,2.05-2.4,2.53-2.96,2.48-1.23-.12-.28-1.42-.07-2.57,2.99-16.15,12.26-30.92,16.83-46.04-4.82,7.17-3.61,10.81-8.47,13.51-.72.4-1.69,2.01-.03,1.73l-9.06,22.47c-.47.59-.79.96-.77.92l5.56-15.64c-4.78,6.44-6.86,12.45-10.28,19.67-.94-2.91,1.57-6.52,3.08-10.08l15.29-36.15,38.46-84.49c1.26-2.77,3.44-5.98,5.6-7.07.3.48.41,1.39.33,1.75-.12.59.84.55,1.13-.35.2-.63.07-1.37,1.55-2.66l-.13,4.29c1.46-1.7,1.67-2.48,2.2-3.54.48-.97,1.35-1.16,2.36-1.59s.98-1.42,1.02-1.83c.05-.55,2.6-2.09,2.67-1.54.83,6.76-6.71,18.86-2.13,14.26,1.26-1.27.07-1.5.27-1.94l3.81-8.63c1,3.24-1.05,7.3-2.83,12.14,4.37-6.14,5.84-13.65,8.46-12.92l-18.4,43.56-32.51,71.22c-1.43,3.14-2.49,6.66-5.69,9.14-.73,2.69-1.74,5.6-4.61,8.26l3.09-7.49c-2.21,1.74-2.27,2.76-4.02,5.21-.14-1.36.39-2.35-.5-3.18-2.45,2.67-2.41,5.08-3.98,7.85l-5.27,9.27Z" style="fill:#ed208b;"/><path d="M901.39,94.7c-1.13-1.21,1.47-4.18,3.47-9.44.75,2.65-1.79,6.25-3.47,9.44Z" style="fill:#ec489a;"/><path d="M893.2,139.57l2.72-6.05c.29-.36.63-.54.86-.58l-2.46,6.54c-.59.69-1.16.66-1.12.09Z" style="fill:#f8e4ef;"/><path d="M926.28,55.26c.72-1.62.31-2.24.23-2.69,1.12-1.09,1.73-.44,1.62,0-.25,1.01-.64,1.95-1.85,2.7Z" style="fill:#e062a4;"/><path d="M753.23,128.52c.39-1.8-1.41-1.35-2.02.42.85,2.14-3.66,8.22-6.06,15.45-.38,1.15-2.02.89-1.47.24,2.38-2.83,2.74-5.47,1.12-6.66-.72,4.55-2.51,8.22-5.04,12.37-4.85,7.94-4.64,12.22-7.88,18.18-1.46-.96-.14-2.79.69-4.98l9.9-26.07,43.78-97.14c1.54-3.41,4.37-7.58,6.87-9.15.6.28-.1,1.9-.35,2.26s.48.67,1.07.17c.4-.34.87-.55,2.01-2.53l-.61,5.18,4.42-7.28,1.31.39s1.65-2.61,2.98-3.21c1.25,4.02-2.04,10.24-3.98,16.15,2.51-3.54,3.5-6.97,6.94-10.92l-2.5,8.84c2.78-4.49,3.52-8.13,7.42-11.97-2.22,7.88-5.39,14.79-8.88,22.58l-40.78,91.12-9.16,18.28,1.29-6.6-3.79,5.4.12-4.3c-5.69,8.11-8.17,16.69-9.94,18.51-7.25,7.46,2.38-19.95,7.92-33.47l4.62-11.28Z" style="fill:#ed218c;"/><path d="M756.92,119.83c-.25-1.79-.52-2.57,0-3.22l1.93-2.41,8.93-19.28c.22,0,.47.12.45.5l-11.31,24.41Z" style="fill:#e266a6;"/><path d="M755.49,152.26l3.58-8.54c.34-.4.68-.55.81-.57l-3.58,8.54c-.34.4-.68.55-.81.57Z" style="fill:#f7e0ed;"/><path d="M772.11,100.55c.06-1.43,1-3.04,1.72-4.52.35-.35.67-.55.74-.58-.06,1.43-1,3.04-1.72,4.52-.35.35-.67.55-.74.58Z" style="fill:#e54599;"/><path d="M776.61,92.41c0-1.03.31-2.18,1.83-4.11.17.61.3,1.75-1.83,4.11Z" style="fill:#eb67a6;"/><path d="M755.03,136.67c0-1.03.31-2.18,1.83-4.11.17.61.3,1.75-1.83,4.11Z" style="fill:#d9539e;"/></g><path d="M626.29,82.32c-2.88-6.8-8.57-1.19-9.16-9.71,1.63.52,3.74,1.35,6,1.45-10.34-20.57-32.21-35.9-53.8-37.97-43.38-4.16-74.66,35.25-81.39,71.04-2.64,14.06-.55,29.41,8.38,45.41,9.7,17.39,28.36,30.53,47.11,34.4,44.48,9.19,78.4-25.45,87.73-60.16,3.62-13.46,1.83-28.64-4.87-44.48ZM557.39,98.13c1.13-.21,2.16-.28,3.48-.23,9.33.35,15.95,9.36,14.05,18.17-1.54,7.15-7.61,12.07-14.56,12.16-7.26.09-13.5-4.94-14.92-12.11-1.66-8.38,3.63-16.46,11.95-17.98ZM495.74,111.42c.17-21,10.65-41.25,29.19-52.45l23.84,36.67c-5.55,3.82-8.67,9.66-9.12,16.36l-43.92-.58ZM556.88,177.9c-9.76-.46-18.93-3.33-27.78-8.22l20.3-38.03c.34-.63,1.54.17,2.02.37,5.39,2.2,11.3,2.27,16.49.31l2.59-1.14,19.5,38.89c-10.21,5.84-21.54,8.37-33.11,7.82ZM581.04,112c-.21-.21-.41-.47-.49-.88-.4-6.36-3.8-11.77-9.06-15.56l23.83-36.45c4.47,2.52,8.33,5.65,11.91,9.34,11.31,11.68,17.34,27.12,17.31,42.96l-43.5.6Z" style="fill:#ed218b;"/><path d="M558.07,124.28c-5-.9-8.34-4.89-9.05-9.54-.81-5.29,2.16-10.59,7.27-12.42.29.21.36-.1.47-.13l.73-.22c4.59-1.39,9.63.9,12.16,4.88s2.41,9.51-.78,13.43c-2.67,3.29-6.62,4.76-10.79,4.01Z" style="fill:#ed218b;"/><path d="M607.79,154.2c.65-2.16,2.82-2.63,4.38-4.46l2.93-3.44,4.42-5.8c2.21-2.9,4.6-6.14,5.86-9.7,3.04-8.58,4.15-17.08,1.23-28.03-.73-2.75.36-6.45-2.89-9.24.79-4,5.67,9.02,6.17,13.55,1.01,9.12-.17,17.09-3.35,23.95-4.51,9.7-10.88,18.15-18.74,23.18Z" style="fill:#fdeef4;"/><path d="M537.89,46.17l2.19-1.37c1-.63,2.11-1.06,3.27-1.27l19.51-3.54c3.67-.77,7.7-1.17,11.06,1.91-17.87-2.23-33.49,4.32-36.03,4.28Z" style="fill:#e28ebc;"/><path d="M553.88,48.82c3.49-.2,6.66-2.73,10.07.72-5.13-.34-9.14,1.19-13.78,1.7-6.47.72-13.18,3.49-19.38,6.4-5.82,2.73,6.7-7.87,23.08-8.82Z" style="fill:#e28bba;"/><path d="M575.9,53.74l15.31,6.21c.62.32.71,1.06.58,1.5l-15.65-5.84c-.75-.28-.74-1.47-.23-1.87Z" style="fill:#df79b0;"/><path d="M488.8,119.72c-.48-3.99.33-6.49.89-9.63,1.41,3.61.8,7.25-.89,9.63Z" style="fill:#f3d4e6;"/><path d="M575.85,67.71c-1.43,1.15-3.55.28-5.21-.99,1.55-1.76,4.51-.7,5.21.99Z" style="fill:#eecae1;"/><path d="M601.32,159.07c-.3,1.97-2.3,2.6-3.33,3.37l-.43-1.84,3.75-1.54Z" style="fill:#f9f4f9;"/><path d="M580.85,67.11c1.01-.77,3.1.29,3.23,1.69-1.03,1.68-2.64-.25-3.23-1.69Z" style="fill:#eecae1;"/></g></svg>