{"scene":0,"scenes":[{"nodes":[0]}],"asset":{"version":"2.0","generator":"https://github.com/mikedh/trimesh"},"accessors":[{"componentType":5125,"type":"SCALAR","bufferView":0,"count":672,"max":[113],"min":[0]},{"componentType":5126,"type":"VEC3","byteOffset":0,"bufferView":1,"count":114,"max":[2.871595859527588,2.953688144683838,0.17706647515296936],"min":[-3.19891357421875,-2.8406097888946533,-3.230624198913574]},{"componentType":5121,"normalized":true,"type":"VEC4","byteOffset":0,"bufferView":2,"count":114,"max":[109,165,64,255],"min":[51,38,31,255]},{"componentType":5126,"count":114,"type":"VEC3","byteOffset":0,"bufferView":3,"max":[0.9613404870033264,0.8127046823501587,0.9999617338180542],"min":[-0.8748499751091003,-0.9108078479766846,-0.9997901320457458]},{"componentType":5125,"type":"SCALAR","bufferView":4,"count":60,"max":[11],"min":[0]},{"componentType":5126,"type":"VEC3","byteOffset":0,"bufferView":5,"count":12,"max":[0.8500000238418579,0.5475528240203857,0.4074540138244629],"min":[0.7595491409301758,0.45244717597961426,0.11999999731779099]},{"componentType":5121,"normalized":true,"type":"VEC4","byteOffset":0,"bufferView":6,"count":12,"max":[102,64,31,255],"min":[102,64,31,255]},{"componentType":5125,"type":"SCALAR","bufferView":7,"count":36,"max":[7],"min":[0]},{"componentType":5126,"type":"VEC3","byteOffset":0,"bufferView":8,"count":8,"max":[1.1385594606399536,0.7932011485099792,1.1778433322906494],"min":[0.46144047379493713,0.20679886639118195,0.585236132144928]},{"componentType":5121,"normalized":true,"type":"VEC4","byteOffset":0,"bufferView":9,"count":8,"max":[38,128,31,255],"min":[38,128,31,255]},{"componentType":5126,"type":"VEC3","byteOffset":0,"bufferView":10,"count":8,"max":[1.0293611288070679,0.698632538318634,1.0252796411514282],"min":[0.57063889503479,0.3013674318790436,0.6654137372970581]},{"componentType":5121,"normalized":true,"type":"VEC4","byteOffset":0,"bufferView":11,"count":8,"max":[51,140,38,255],"min":[51,140,38,255]},{"componentType":5126,"type":"VEC3","byteOffset":0,"bufferView":12,"count":12,"max":[-0.9574999809265137,0.8404198884963989,0.3080994486808777],"min":[-1.0343831777572632,0.7595800757408142,0.07999999821186066]},{"componentType":5126,"type":"VEC3","byteOffset":0,"bufferView":13,"count":8,"max":[-0.6927059292793274,1.066124439239502,0.8166757822036743],"min":[-1.3072941303253174,0.5338755249977112,0.4254632294178009]},{"componentType":5126,"type":"VEC3","byteOffset":0,"bufferView":14,"count":8,"max":[-0.7705156207084656,0.9987393021583557,0.8452444076538086],"min":[-1.2294843196868896,0.6012607216835022,0.5301328897476196]},{"componentType":5126,"type":"VEC3","byteOffset":0,"bufferView":15,"count":12,"max":[0.35749998688697815,-1.2453142404556274,0.38955846428871155],"min":[0.25348153710365295,-1.3546857833862305,0.10000000149011612]},{"componentType":5126,"type":"VEC3","byteOffset":0,"bufferView":16,"count":8,"max":[0.6885954141616821,-0.9634665250778198,1.2514408826828003],"min":[-0.08859541267156601,-1.636533498764038,0.5884543657302856]},{"componentType":5126,"type":"VEC3","byteOffset":0,"bufferView":17,"count":8,"max":[0.5639094710350037,-1.0714476108551025,1.0381625890731812],"min":[0.03609050065279007,-1.5285522937774658,0.6719286441802979]},{"componentType":5126,"type":"VEC3","byteOffset":0,"bufferView":18,"count":12,"max":[-0.5649999976158142,-0.8667130470275879,0.24334044754505157],"min":[-0.6283155679702759,-0.9332869648933411,0.05000000074505806]},{"componentType":5126,"type":"VEC3","byteOffset":0,"bufferView":19,"count":8,"max":[-0.36201947927474976,-0.693902850151062,0.7121676802635193],"min":[-0.8379805088043213,-1.1060972213745117,0.35153135657310486]},{"componentType":5126,"type":"VEC3","byteOffset":0,"bufferView":20,"count":8,"max":[-0.42852625250816345,-0.751499354839325,0.6774932742118835],"min":[-0.77147376537323,-1.048500657081604,0.42429879307746887]},{"componentType":5126,"type":"VEC3","byteOffset":0,"bufferView":21,"count":12,"max":[1.6475000381469727,-0.35482481122016907,0.4386852979660034],"min":[1.561571717262268,-0.4451751708984375,0.14000000059604645]},{"componentType":5126,"type":"VEC3","byteOffset":0,"bufferView":22,"count":8,"max":[1.8893715143203735,-0.1493968665599823,1.0216366052627563],"min":[1.3106284141540527,-0.6506031155586243,0.5732125043869019]},{"componentType":5126,"type":"VEC3","byteOffset":0,"bufferView":23,"count":8,"max":[1.8363641500473022,-0.19530260562896729,0.9993123412132263],"min":[1.363635778427124,-0.6046974062919617,0.6776761412620544]},{"componentType":5126,"type":"VEC3","byteOffset":0,"bufferView":24,"count":12,"max":[-1.7625000476837158,-0.16433538496494293,0.3260175883769989],"min":[-1.8303381204605103,-0.23566462099552155,0.05999999865889549]},{"componentType":5126,"type":"VEC3","byteOffset":0,"bufferView":25,"count":8,"max":[-1.5488612651824951,0.017492542043328285,0.8037039637565613],"min":[-2.0511386394500732,-0.417492538690567,0.4362529218196869]},{"componentType":5126,"type":"VEC3","byteOffset":0,"bufferView":26,"count":8,"max":[-1.6322129964828491,-0.05469217523932457,0.8080314993858337],"min":[-1.9677870273590088,-0.3453078269958496,0.5237900614738464]},{"componentType":5126,"type":"VEC3","byteOffset":0,"bufferView":27,"count":12,"max":[0.1525000035762787,1.549930453300476,0.4132544994354248],"min":[0.0575266070663929,1.450069546699524,0.09000000357627869]},{"componentType":5126,"type":"VEC3","byteOffset":0,"bufferView":28,"count":8,"max":[0.3992041349411011,1.7591183185577393,1.0607566833496094],"min":[-0.19920413196086884,1.2408816814422607,0.5626780986785889]},{"componentType":5126,"type":"VEC3","byteOffset":0,"bufferView":29,"count":8,"max":[0.38893792033195496,1.7502275705337524,1.103609561920166],"min":[-0.18893791735172272,1.2497724294662476,0.6937210559844971]},{"componentType":5125,"type":"SCALAR","bufferView":30,"count":144,"max":[25],"min":[0]},{"componentType":5126,"type":"VEC3","byteOffset":0,"bufferView":31,"count":26,"max":[0.18000000715255737,0.7799999713897705,0.03550000116229057],"min":[-0.5799999833106995,0.019999999552965164,0.020500000566244125]},{"componentType":5121,"normalized":true,"type":"VEC4","byteOffset":0,"bufferView":32,"count":26,"max":[46,97,199,255],"min":[46,97,199,255]},{"componentType":5125,"type":"SCALAR","bufferView":33,"count":240,"max":[41],"min":[0]},{"componentType":5126,"type":"VEC3","byteOffset":0,"bufferView":34,"count":42,"max":[1.2850549221038818,0.8736094832420349,0.19905653595924377],"min":[1.1162811517715454,0.7253389954566956,0.04026155173778534]},{"componentType":5121,"normalized":true,"type":"VEC4","byteOffset":0,"bufferView":35,"count":42,"max":[93,84,79,255],"min":[93,84,79,255]},{"componentType":5126,"type":"VEC3","byteOffset":0,"bufferView":36,"count":42,"max":[-1.3535436391830444,1.0451462268829346,0.11865470558404922],"min":[-1.4503175020217896,0.9458585381507874,0.018071379512548447]},{"componentType":5121,"normalized":true,"type":"VEC4","byteOffset":0,"bufferView":37,"count":42,"max":[130,117,111,255],"min":[130,117,111,255]},{"componentType":5126,"type":"VEC3","byteOffset":0,"bufferView":38,"count":42,"max":[0.7604315876960754,-0.536831259727478,0.20198415219783783],"min":[0.6351929306983948,-0.6759447455406189,0.06291414052248001]},{"componentType":5121,"normalized":true,"type":"VEC4","byteOffset":0,"bufferView":39,"count":42,"max":[117,105,99,255],"min":[117,105,99,255]},{"componentType":5126,"type":"VEC3","byteOffset":0,"bufferView":40,"count":42,"max":[-0.23867903649806976,1.8601863384246826,0.1502600759267807],"min":[-0.35409602522850037,1.7448654174804688,0.026711493730545044]},{"componentType":5121,"normalized":true,"type":"VEC4","byteOffset":0,"bufferView":41,"count":42,"max":[94,85,80,255],"min":[94,85,80,255]},{"componentType":5126,"type":"VEC3","byteOffset":0,"bufferView":42,"count":42,"max":[1.9385138750076294,0.5508004426956177,0.16099251806735992],"min":[1.8463168144226074,0.4540281593799591,0.06807075440883636]},{"componentType":5121,"normalized":true,"type":"VEC4","byteOffset":0,"bufferView":43,"count":42,"max":[133,119,113,255],"min":[133,119,113,255]}],"meshes":[{"name":"geometry_0","extras":{},"primitives":[{"attributes":{"POSITION":1,"COLOR_0":2,"NORMAL":3},"indices":0,"mode":4}]},{"name":"geometry_1","extras":{"shape":"cylinder","height":0.28745401188473624,"radius":0.05,"processed":true},"primitives":[{"attributes":{"POSITION":5,"COLOR_0":6},"indices":4,"mode":4}]},{"name":"geometry_2","extras":{"shape":"cone","radius":0.33855951534491247,"height":0.5926071459614874,"processed":true},"primitives":[{"attributes":{"POSITION":8,"COLOR_0":9},"indices":7,"mode":4}]},{"name":"geometry_3","extras":{"shape":"cone","radius":0.2293611184265462,"height":0.35986584841970365,"processed":true},"primitives":[{"attributes":{"POSITION":10,"COLOR_0":11},"indices":7,"mode":4}]},{"name":"geometry_4","extras":{"shape":"cylinder","height":0.22809945203362025,"radius":0.0425,"processed":true},"primitives":[{"attributes":{"POSITION":12,"COLOR_0":6},"indices":4,"mode":4}]},{"name":"geometry_5","extras":{"shape":"cone","radius":0.30729409166199484,"height":0.3912125418252299,"processed":true},"primitives":[{"attributes":{"POSITION":13,"COLOR_0":9},"indices":7,"mode":4}]},{"name":"geometry_6","extras":{"shape":"cone","radius":0.22948435466776274,"height":0.3151115011743209,"processed":true},"primitives":[{"attributes":{"POSITION":14,"COLOR_0":11},"indices":7,"mode":4}]},{"name":"geometry_7","extras":{"shape":"cylinder","height":0.2895584494295802,"radius":0.057499999999999996,"processed":true},"primitives":[{"attributes":{"POSITION":15,"COLOR_0":6},"indices":4,"mode":4}]},{"name":"geometry_8","extras":{"shape":"cone","radius":0.38859541126403374,"height":0.6629864778242991,"processed":true},"primitives":[{"attributes":{"POSITION":16,"COLOR_0":9},"indices":7,"mode":4}]},{"name":"geometry_9","extras":{"shape":"cone","radius":0.263909498032426,"height":0.3662339110678276,"processed":true},"primitives":[{"attributes":{"POSITION":17,"COLOR_0":11},"indices":7,"mode":4}]},{"name":"geometry_10","extras":{"shape":"cylinder","height":0.19334045098534336,"radius":0.034999999999999996,"processed":true},"primitives":[{"attributes":{"POSITION":18,"COLOR_0":6},"indices":4,"mode":4}]},{"name":"geometry_11","extras":{"shape":"cone","radius":0.23798051453057903,"height":0.36063633644393067,"processed":true},"primitives":[{"attributes":{"POSITION":19,"COLOR_0":9},"indices":7,"mode":4}]},{"name":"geometry_12","extras":{"shape":"cone","radius":0.1714737484118825,"height":0.25319450186421155,"processed":true},"primitives":[{"attributes":{"POSITION":20,"COLOR_0":11},"indices":7,"mode":4}]},{"name":"geometry_13","extras":{"shape":"cylinder","height":0.29868528947223794,"radius":0.0475,"processed":true},"primitives":[{"attributes":{"POSITION":21,"COLOR_0":6},"indices":4,"mode":4}]},{"name":"geometry_14","extras":{"shape":"cone","radius":0.2893715718828175,"height":0.44842407909780624,"processed":true},"primitives":[{"attributes":{"POSITION":22,"COLOR_0":9},"indices":7,"mode":4}]},{"name":"geometry_15","extras":{"shape":"cone","radius":0.23636419905302214,"height":0.32163618432936913,"processed":true},"primitives":[{"attributes":{"POSITION":23,"COLOR_0":11},"indices":7,"mode":4}]},{"name":"geometry_16","extras":{"shape":"cylinder","height":0.26601759613930137,"radius":0.037500000000000006,"processed":true},"primitives":[{"attributes":{"POSITION":24,"COLOR_0":6},"indices":4,"mode":4}]},{"name":"geometry_17","extras":{"shape":"cone","radius":0.25113875507308897,"height":0.367451067323754,"processed":true},"primitives":[{"attributes":{"POSITION":25,"COLOR_0":9},"indices":7,"mode":4}]},{"name":"geometry_18","extras":{"shape":"cone","radius":0.16778702476319987,"height":0.2842414568862042,"processed":true},"primitives":[{"attributes":{"POSITION":26,"COLOR_0":11},"indices":7,"mode":4}]},{"name":"geometry_19","extras":{"shape":"cylinder","height":0.3232544851901439,"radius":0.052500000000000005,"processed":true},"primitives":[{"attributes":{"POSITION":27,"COLOR_0":6},"indices":4,"mode":4}]},{"name":"geometry_20","extras":{"shape":"cone","radius":0.2992041274388224,"height":0.49807861855309377,"processed":true},"primitives":[{"attributes":{"POSITION":28,"COLOR_0":9},"indices":7,"mode":4}]},{"name":"geometry_21","extras":{"shape":"cone","radius":0.28893792198447354,"height":0.40988855372533334,"processed":true},"primitives":[{"attributes":{"POSITION":29,"COLOR_0":11},"indices":7,"mode":4}]},{"name":"geometry_22","extras":{"shape":"cylinder","height":0.015,"radius":0.38,"processed":true},"primitives":[{"attributes":{"POSITION":31,"COLOR_0":32},"indices":30,"mode":4}]},{"name":"geometry_23","extras":{"shape":"sphere","radius":0.072},"primitives":[{"attributes":{"POSITION":34,"COLOR_0":35},"indices":33,"mode":4}]},{"name":"geometry_24","extras":{"shape":"sphere","radius":0.048},"primitives":[{"attributes":{"POSITION":36,"COLOR_0":37},"indices":33,"mode":4}]},{"name":"geometry_25","extras":{"shape":"sphere","radius":0.06},"primitives":[{"attributes":{"POSITION":38,"COLOR_0":39},"indices":33,"mode":4}]},{"name":"geometry_26","extras":{"shape":"sphere","radius":0.054},"primitives":[{"attributes":{"POSITION":40,"COLOR_0":41},"indices":33,"mode":4}]},{"name":"geometry_27","extras":{"shape":"sphere","radius":0.041999999999999996},"primitives":[{"attributes":{"POSITION":42,"COLOR_0":43},"indices":33,"mode":4}]}],"nodes":[{"name":"world","children":[1,2,3,4,5,6,7,8,9,10,11,12,13,14,15,16,17,18,19,20,21,22,23,24,25,26,27,28]},{"name":"geometry_0","mesh":0},{"name":"geometry_1","mesh":1},{"name":"geometry_2","mesh":2},{"name":"geometry_3","mesh":3},{"name":"geometry_4","mesh":4},{"name":"geometry_5","mesh":5},{"name":"geometry_6","mesh":6},{"name":"geometry_7","mesh":7},{"name":"geometry_8","mesh":8},{"name":"geometry_9","mesh":9},{"name":"geometry_10","mesh":10},{"name":"geometry_11","mesh":11},{"name":"geometry_12","mesh":12},{"name":"geometry_13","mesh":13},{"name":"geometry_14","mesh":14},{"name":"geometry_15","mesh":15},{"name":"geometry_16","mesh":16},{"name":"geometry_17","mesh":17},{"name":"geometry_18","mesh":18},{"name":"geometry_19","mesh":19},{"name":"geometry_20","mesh":20},{"name":"geometry_21","mesh":21},{"name":"geometry_22","mesh":22},{"name":"geometry_23","mesh":23},{"name":"geometry_24","mesh":24},{"name":"geometry_25","mesh":25},{"name":"geometry_26","mesh":26},{"name":"geometry_27","mesh":27}],"buffers":[{"uri":"gltf_buffer_0.bin","byteLength":2688},{"uri":"gltf_buffer_1.bin","byteLength":1368},{"uri":"gltf_buffer_2.bin","byteLength":456},{"uri":"gltf_buffer_3.bin","byteLength":1368},{"uri":"gltf_buffer_4.bin","byteLength":240},{"uri":"gltf_buffer_5.bin","byteLength":144},{"uri":"gltf_buffer_6.bin","byteLength":48},{"uri":"gltf_buffer_7.bin","byteLength":144},{"uri":"gltf_buffer_8.bin","byteLength":96},{"uri":"gltf_buffer_9.bin","byteLength":32},{"uri":"gltf_buffer_10.bin","byteLength":96},{"uri":"gltf_buffer_11.bin","byteLength":32},{"uri":"gltf_buffer_12.bin","byteLength":144},{"uri":"gltf_buffer_13.bin","byteLength":96},{"uri":"gltf_buffer_14.bin","byteLength":96},{"uri":"gltf_buffer_15.bin","byteLength":144},{"uri":"gltf_buffer_16.bin","byteLength":96},{"uri":"gltf_buffer_17.bin","byteLength":96},{"uri":"gltf_buffer_18.bin","byteLength":144},{"uri":"gltf_buffer_19.bin","byteLength":96},{"uri":"gltf_buffer_20.bin","byteLength":96},{"uri":"gltf_buffer_21.bin","byteLength":144},{"uri":"gltf_buffer_22.bin","byteLength":96},{"uri":"gltf_buffer_23.bin","byteLength":96},{"uri":"gltf_buffer_24.bin","byteLength":144},{"uri":"gltf_buffer_25.bin","byteLength":96},{"uri":"gltf_buffer_26.bin","byteLength":96},{"uri":"gltf_buffer_27.bin","byteLength":144},{"uri":"gltf_buffer_28.bin","byteLength":96},{"uri":"gltf_buffer_29.bin","byteLength":96},{"uri":"gltf_buffer_30.bin","byteLength":576},{"uri":"gltf_buffer_31.bin","byteLength":312},{"uri":"gltf_buffer_32.bin","byteLength":104},{"uri":"gltf_buffer_33.bin","byteLength":960},{"uri":"gltf_buffer_34.bin","byteLength":504},{"uri":"gltf_buffer_35.bin","byteLength":168},{"uri":"gltf_buffer_36.bin","byteLength":504},{"uri":"gltf_buffer_37.bin","byteLength":168},{"uri":"gltf_buffer_38.bin","byteLength":504},{"uri":"gltf_buffer_39.bin","byteLength":168},{"uri":"gltf_buffer_40.bin","byteLength":504},{"uri":"gltf_buffer_41.bin","byteLength":168},{"uri":"gltf_buffer_42.bin","byteLength":504},{"uri":"gltf_buffer_43.bin","byteLength":168}],"bufferViews":[{"buffer":0,"byteOffset":0,"byteLength":2688},{"buffer":1,"byteOffset":0,"byteLength":1368},{"buffer":2,"byteOffset":0,"byteLength":456},{"buffer":3,"byteOffset":0,"byteLength":1368},{"buffer":4,"byteOffset":0,"byteLength":240},{"buffer":5,"byteOffset":0,"byteLength":144},{"buffer":6,"byteOffset":0,"byteLength":48},{"buffer":7,"byteOffset":0,"byteLength":144},{"buffer":8,"byteOffset":0,"byteLength":96},{"buffer":9,"byteOffset":0,"byteLength":32},{"buffer":10,"byteOffset":0,"byteLength":96},{"buffer":11,"byteOffset":0,"byteLength":32},{"buffer":12,"byteOffset":0,"byteLength":144},{"buffer":13,"byteOffset":0,"byteLength":96},{"buffer":14,"byteOffset":0,"byteLength":96},{"buffer":15,"byteOffset":0,"byteLength":144},{"buffer":16,"byteOffset":0,"byteLength":96},{"buffer":17,"byteOffset":0,"byteLength":96},{"buffer":18,"byteOffset":0,"byteLength":144},{"buffer":19,"byteOffset":0,"byteLength":96},{"buffer":20,"byteOffset":0,"byteLength":96},{"buffer":21,"byteOffset":0,"byteLength":144},{"buffer":22,"byteOffset":0,"byteLength":96},{"buffer":23,"byteOffset":0,"byteLength":96},{"buffer":24,"byteOffset":0,"byteLength":144},{"buffer":25,"byteOffset":0,"byteLength":96},{"buffer":26,"byteOffset":0,"byteLength":96},{"buffer":27,"byteOffset":0,"byteLength":144},{"buffer":28,"byteOffset":0,"byteLength":96},{"buffer":29,"byteOffset":0,"byteLength":96},{"buffer":30,"byteOffset":0,"byteLength":576},{"buffer":31,"byteOffset":0,"byteLength":312},{"buffer":32,"byteOffset":0,"byteLength":104},{"buffer":33,"byteOffset":0,"byteLength":960},{"buffer":34,"byteOffset":0,"byteLength":504},{"buffer":35,"byteOffset":0,"byteLength":168},{"buffer":36,"byteOffset":0,"byteLength":504},{"buffer":37,"byteOffset":0,"byteLength":168},{"buffer":38,"byteOffset":0,"byteLength":504},{"buffer":39,"byteOffset":0,"byteLength":168},{"buffer":40,"byteOffset":0,"byteLength":504},{"buffer":41,"byteOffset":0,"byteLength":168},{"buffer":42,"byteOffset":0,"byteLength":504},{"buffer":43,"byteOffset":0,"byteLength":168}]}