<?xml version="1.0" encoding="UTF-8"?><svg id="Layer_2" xmlns="http://www.w3.org/2000/svg" viewBox="0 0 380.02 606.98"><g id="Layer_1-2"><path d="M193.99,366.81c-.01-.24-.03-.48-.04-.72.01.29.03.52.04.72Z" style="fill:#231f20;"/><path d="M369.51,204.92c3.93,4.32,7.4,9.03,10.39,14.52-1.91-6.96-5.5-12.7-9.12-18.45-.45.12-.61-.2-.69-.57-.05-.24-.19-.32-.02-.57-.75-.31-1.3-1.05-1.71-1.72-.23-.38-.36-.97-.62-1.29-1.85-2.19-4.11-3.93-5.74-6.79,3.55,1.81,6.68,3.53,9.29,5.84.56,0,1.58.62,1.75,1.14l6.99,5.19c-2.46-4.07-5.2-5.99-7.49-8.65-.59,0-1.19-.6-1.25-1.16-4.27-3.66-8.92-6.55-13.88-9.61,2.04.72,14.6,5.8,14.39,7.29.31-.08.75.2.96.04.38-.29.38-.67.26-.9-.24-.43-.95-.1-1.16-.27l-3.33-2.87c-.55.17-.68-.18-.8-.63-4.83-2.68-9.32-6.02-14.75-7.94-.77-.27-2.15-.03-2.28-1.39,6.14,1.71,12.14,3.33,17.31,6.45-1.15-2.53-4.85-4.27-7.68-5.83-6.77-3.74-14.09-6.33-21.72-7.62,8.35-.62,16.27,1.21,23.61,3.73.62.21,1.32.96,2.32.36-5.36-3.05-11-5.5-16.84-7.32-5.92-1.85-12.13-2.3-18.26-2.93,5.83-.59,11.79-.88,16.76.25.44.1,1.06-.22,1.57-.03.39.15.87-.15,1.19.19,1.92-.07,3.69,1.42,5.95,1.2-7.59-3.7-15.9-5.58-24.25-6.69-7.8-1.04-15.32,1.1-23.07,2.89,6.95-3.49,15.25-4.34,23.06-4.76,3.33-.18,6.6-.58,10.4-.45-8.09-2.56-16.5-2.98-24.76-2.23-6.31.57-12.58,2.12-18.69,4.3-2.05.73-3.64,2.63-6.21,2.47,4.41-3.16,19.52-9.16,24.31-8.91.42,0,.57-.15.6-.38.05-.34-.15-.74-.36-.81.4.13-13.43,2.13-14.52,2.45-6.49,1.89-12.16,5.36-18.51,8.46,4.95-4.17,10.94-6.9,16.81-9.23-13.64.62-26.66,7.07-40.35,12.07-3.55-1.38-7.99-2.18-11.27-3.93-1.36-.28-2.81.58-4.45-.63,1.57-.96,3.25-.52,4.58-.37l8.52.99c1.6.18,2.75.82,4.95.82-3.89-1.68-8.11-2.98-12.44-4.26-1.09-.31-2.37-.21-3.73-.33l-7.23-.63c3.65-.47,7.28-.09,10.93-.24,5.02-.19,9.74,1.36,15,2.3-2.68-1.98-5.94-1.87-8.7-3.35-.53-.29-1.58.42-1.77-.58-.58.14-1.31-.1-1.65-.59l-6.01-.57c-1.25.13-1.25-1.35-.02-1.26,2.29,1.22,4.27.35,6.1.74.61.13,1.5.25,2.1.04.62-.22,1.14-.14,1.31.35,4.09.03,8.22,1.83,12.66,2.28-2.3-1.2-4.68-1.97-7.02-2.86-2.93-1.12-6.2-1.26-9.15-2.63,3.53-.03,6.77.25,9.8.96,1.1.26,2.33.14,3.41.62.21.09.54-.1.85,0,.19.06.38.29.3.58l4.11.25c-3.63-1.23-7.23-2.36-10.94-3.18-.15.07-.63.08-.87.07-.18,0-.4-.12-.33-.46-1.37.3-2.69-.57-4-.72-3.85-.45-7.66.48-11.51-.22,5.12-1.15,7.07-.88,11.5-1.16,7.09-.45,13.96-.17,21.36,1.4-5.03-2.56-10.33-3.88-15.57-5.23-.28,0-.89.12-.67-.43-.58.28-1.09-.49-1.67-.15-.36.21-.68,0-.58-.42-.2.08-.43-.03-.62-.06-3.3-.57-6.62-.43-10.31-.77,3.42-.9,6.89-.42,10.28-.72,8.56-.77,17,.33,26.03,1.37-8-3.3-16.21-5.9-24.67-6.85-1.64-.18-3.31.54-5.32-.11,1.78-.92,3.61-.7,5.32-.81,6.33-.42,12.79-1.22,19.32-.2l10.59,1.65c-5.23-2.89-10.73-5.56-16.27-5.57h-.86c-.31,0-.57-.25-.35-.59-.19,0-.36-.05-.54-.08-3.51-.57-7-.99-10.92-1.32,3.82-.61,7.59-.46,11.37-.59,7.8-.28,15.72.46,23.62,2.42.78.19,1.33,1.58,2.43.32-7.09-3.5-14.55-6.46-22.39-7.62-1.02-.15-1.97-.49-3.02-.88,1.2-.48,2.07-.27,2.93-.29,8.66-.16,17.47.72,25.62,4.03.79.32,1.49,1.8,2.66.76-4.99-3.08-10.41-5.32-15.71-7.66-2.44-1.08-5.59-.6-8.03-2.12,2.93-.41,5.55.34,8.11.71,6.98,1,13.44,3.39,20.07,6.66-3.73-3.08-7.46-5.94-11.66-7.61l-7.95-3.17c3.05-.4,5.56,1.18,8.1,1.8,6.51,1.59,12.58,4.27,18.68,7.57-2.02-2-4-3.97-6.12-5.58.9.68-9.33-4.94-7.95-4.53,3.14.69,5.78,2.75,8.55,3.56,4.32,1.26,8.29,3.07,12.5,5.62-1.06-1.77-2.38-3.32-3.39-4.59-3.07-2.23-5.75-4.81-9.32-6.52,1.66-.87,2.29.83,3.36,1.3,1.87.83,5,2.7,6.15,4.16.46.59,1.95.64,3.05,1.88-.06-2.13-2.29-2.29-3.5-3.32-1.6-1.35-2.97-2.97-4.86-3.74-.35-.14-.72-.21-.57-.7-.58-.16-1.08-.73-1.29-1.19l-6.78-3.12c2.75-.35,4.85,1.6,6.93,2.11,7.36,1.83,14.83,6.35,21.16,11.06-2.2-3.36-5.67-4.84-7.99-7.62-.37.23-.83-.06-.6-.5-.95.12-1.32-1.17-2.23-1.21-.4-.02-.7-.23-.59-.68-.47-.11-.81-.49-1.22-.71l-9.09-4.95c3.28.73,6.8,1.84,9.75,3.46.66,0,1.59.31,2.28.52.3.09.88.07.67.58.8-.22,1.34.78,2.13.61.39-.08.88.09.68.58,3.63,1.13,6.7,3.46,10.5,5.42-.21-.88-1.53-1.01-1.46-2.03-3-1.31-5.15-4.15-7.94-5.7l-7.46-4.13-9.21-3.19c3.35-.38,6.23,1.33,9.21,1.63,2.82.28,5.47,1.12,8.18,1.86,3.9,1.07,7.93,1.95,11.42,3.88,1,.55,2.2,1.25,3.33.96-3.28-2.38-6.74-4.31-10.3-6.12-.25-.13-.87-.08-.62-.57l-5.07-1.77c-.33-.11-.91-.05-.66-.58-.15.03-.36.07-.5.02-4.88-1.81-9.93-2.94-15.52-3.14,5.21-.71,10.43-.16,15.5.12l3.39.19c.59.03,1.65-.46,1.77.4l5.73.8c.3-.02.84-.13.62.4,1.51-.04,2.76,1.3,4.68.98-9.67-5.54-20.55-7.9-31.55-7.38-3.91.19-7.49,1.78-11.67,2.37,3.7-1.99,7.58-3.08,11.45-4.19,2.94-.84,5.85-1.8,9.35-2.29-2.75-.63-5.4-.51-8.1-.37-7.71.39-14.64,3.14-21.85,6.45,6.33-4.42,13.71-7.37,21.2-8.74.2-.45.2-.48.7-.44,2.22-.24,4.25-.98,6.79-.6-.06-.75-.62-1-.85-1.19-.5-.41-.87.63-1.33.6-4.57-.31-8.58.79-12.69,1.23.07.47-.28.45-.62.4-.46-.07-1.24.03-1.62.16-3.75,1.26-11.05,3.81-14.35,6.46,3.49-3.96,8.05-6.74,12.5-8.72,1.97-.87,3.85-2.5,6.44-3.41-4.17.58-8.03,2.03-12,3.24-1.69.52-3.4,2-5.27,2.4-.19.04-.34.06-.53-.01.31.49-.32.48-.59.6-.24.11-.32.24-.57.04.1.36-.16.38-.32.48-.19.11-.68.35-.82.06.09.35-.25.52-.54.45.21.34-.1.51-.34.62-.34.16-.62.19-.88.02,0,.3-.37.35-.57.48.13.33-.06.55-.28.65-.34.15-.64.15-.89.03-.63.93-1.99,1.39-2.9,1.81-2.32,2.37-4.89,4.1-7.51,6.12,2.59-3.18,4.3-5.77,6.88-7.28.25-.43.61-1.25,1.27-1.25-.24-.45.22-.8.63-.58-.04-.34.45-.33.56-.51-.06-.31.02-.5.26-.66.33-.22.57-.39.82-.11-.11-.5.72-1.1,1.17-1.02-.28-.48.26-.75.65-.55.96-.94,2.13-1.8,3.39-2.31-.32-.46.28-.55.56-.66.52-.2,1.03-.84,1.63-.6-.32-.5.18-1.17.7-.63.37-.71,1.66-.33,1.63-1.65-8.97,3.77-16.46,9.42-23.52,15.66-1.95,1.72-3.17,4.4-5.44,6.07.64-3.27,3.29-5.27,4.8-7.73,2.16-3.52,4.93-6.47,7.74-9.73-2.59,1.56-4.65,3.85-7.13,5-.31.96-1.43,1.46-2.18,2.11l-4.01,3.46c-1.01.87-1.77,2.27-2.95,3.03-.35.22-.59.91-1.06,1.05-.08.44-.71,1.55-1.34,1.38-.79,1.29-1.9,2.27-3.1,3.58-.03-.82,0-1.57.29-2.09-4.01.45-7.95,1.59-11.82,2.74-3.97,1.17-7.79,2.58-11.37,5.1-.4-1.4,1.12-1.57,1.69-1.79,2.48-2.43,5.97-3.11,8.46-4.81,4.76-3.24,10.32-5.44,15.97-6.92,1.45-.38,2.99-1.22,4.63-1.17.08-.53-.42-.58-.86-.5-.19.03-.5-.3-.78-.03-.2.25-.48.06-.71.08l-4.52.48c-.57.06-1.18.27-1.75.08l-12.63,3.42-9.78,5.14c2.56-2.9,6.16-4.28,9.21-6.14,7.42-4.52,15.99-7.98,24.65-8.65,1-.08,1.99-.33,3.02-.12-7.69-2.74-16.79-.65-25.37.57-1.46.21-2.81,1.19-4.29,1.51,1.87-1.77,3.08-1.74,4.24-2.42,9.36-5.48,20.42-7.67,31.67-7.26-7.61-2.3-15.63-2.06-23.54-1.62-2.02.11-3.99,1.34-6.34,1.07,2-1.13,4.36-1.23,6.34-2.04,8.08-3.28,17.27-3.97,26.13-3.44.77.05,1.97,1.34,2.61-.07-5.42-1.25-10.46-2.22-15.58-2.5-2.96-.17-5.87-.12-9.37-.03,2.61-1.58,5.51-1.25,8.21-1.78,7.16-1.4,14.32-1,21.93.23-3.31-1.87-6.97-2.24-10.45-2.95-.29.13-.66.1-.57-.34-.59.31-1.22-.21-1.81-.33-4.24-.85-8.47.06-13.17-.56.97-.61,13.33-1.37,13.85-1.36,6.3.11,12.58.81,18.99,2.55-3.68-2.58-7.9-4.16-12.1-5.01l-8.55-1.73c3.13-1.09,5.83.13,8.58.1,5.54-.07,10.86,1.09,16.66,2.17-3.52-1.9-7.2-2.88-10.86-3.98-2.3-.69-4.6-1.03-7.06-1.39,2.56-.7,4.74-.07,6.94-.36,5.32-.69,10.51.37,16.24,1.04-3.21-1.71-6.72-1.96-10.02-2.92-2.77-.81-5.78-.19-8.92-1.55,3.28-.82,6.15-.1,9.06-.41,5.01-.53,9.83.67,14.95.91-3.57-1.83-7.06-2.37-10.38-3.36-1.75-.53-3.73.12-5.85-.77,1.91-.93,3.98-.36,5.9-.63,4.67-.66,9.25.13,14.39.14-6.39-2.24-13.07-2.59-19.67-2.81-3.56-.12-6.96.29-10.96.62,2.98-1.63,6.2-1.62,9.22-2.52,6-1.79,12.18-2.32,18.53-2.9-6.51-1.56-12.84-.73-19.05-.13-3.6.35-7,2.02-10.92,2.72,2.68-1.94,5.59-3,8.53-3.98,1.18-.39,2.53-1.33,4.11-1.68-4.26.37-8.07,1.75-11.97,2.76-3.3.86-6.06,3.6-9.63,4.91,2.08-2.97,5.64-4.39,8.32-6.47,4.6-3.56,9.58-6.15,15.25-8.51-11.32,1.2-20.57,6.6-29.68,12.23-2.13,1.31-3.26,4.28-6.22,5.19,1.82-2.44,3.54-4.76,5.55-6.59-.07-.26.14-.49.21-.72.11-.37.28-.7.74-.58,2.96-3.79,6.55-6.92,10.29-10.29-11.38,5.55-19.86,14.37-28.13,23.45-.62.68-.43,1.96-1.69,2.35-.08-1.01.46-1.81.9-2.3-.58-.37.25-.64.19-.89-.13-.52-.39-.17-.57,0-.26.23-.56.25-.58.49-.8,1.54-2.02,2.83-3.01,4.27.16-2.41,1.69-3.95,2.46-5.68,2.44-5.53,6.15-10.23,10.42-14.76-6.27,4.08-10.94,9.62-15.03,15.4-2.32,3.28-4,7.24-5.83,10.76-.09-3.82,2.07-9.64,3.52-12.51.13-.25.19-.61.08-1.07-.08-.37.04-.92.54-.62.07-2.23,2.39-3.35,2.77-5.87-3.89,4.14-6.79,8.89-9.03,13.89-.12.26-.07.69-.52.57.18.25.07.33-.03.57-.12.3-.13.9-.62.6.07.19-.01.29-.09.46-1.71,3.94-2.36,8.08-3.8,12.23.13-4.51.59-8.63,1.55-12.61-.08-.48.04-1.21.03-1.75v-.92c-.02-.2.15-.59.49-.36-.35-2.24,1.65-3.78,1.66-6.74-1.9,2.95-3.3,6.3-4.72,9.62-.65,1.53-3.62,12.96-3.36,15.58-1.21-1.39.95-13.08,1.29-15.65-3.51,4.3-3.89,11.21-5.4,17.4-.61,2.5.34,5.27-1.02,8.14-.97-3-.36-5.91-.74-8.7-.4-3.01-.25-5.94-.51-9.45-2.83,7.86-3.65,16.06-3.73,24.23,0,.86.22,1.73-.27,2.93-.41-1.03-.7-1.99-.88-2.99-.98-5.39-1.56-10.73-1.95-16.7-2.5,8.11-2.61,16.48-2.63,24.8,0,2.21.77,4.35.38,6.95-.99-2.29-1.42-4.56-1.88-6.88-.08-.41-.57-.74-.3-1.18-.57.21-.39-.38-.42-.67-.33-2.13-.77-4.21-1.59-6.34-.6,4.14-.19,7.83-.3,11.55-.13,4.32.77,9.02,1.53,13.5l-4.36-11.08c-1.28,3.36-1.4,6.45-3.33,9.13l2.1-12.12c.69-3.97.67-8.01.47-12.05-.65,2.13-1.29,3.84-1.51,5.64-.12.97-.89,1.13-.89,1.18-.41-.13-.23-.82-.23-1.08.04-.66-.59-.71-.57,0-.42,1.79-.26,3.83-1.5,5.78-.57-1.96.64-3.95.77-5.78.51-7.58.95-15.1.19-22.54l-1.19,4.19c-1.31,4.64-1.89,9.51-3.85,14.43.63-4.89,1.38-9.53,1.54-14.4.01-.41-.51-.78-.11-1.16-.35.08-.39-.15-.44-.33-.08-.25.09-.68.18-.82.36-3.11-.65-6.57-.73-9.74h-.57c.18,2.89-.65,5.72-.69,8.6.11.46.05.49-.4.64.02,2.9-.88,5.7-1.53,8.6-.57-3.17.11-5.89.01-8.67-.28-7.76-1.19-15.43-2.9-22.99l-.36,11.53c.1.14.2.56.15.82-.04.18-.12.4-.46.32.28.4-.12,1.21-.15,1.74-.18,3.07-.17,6.13-.97,9.37-.87-3.42-.14-6.39-.5-9.37-1.16-9.76-2.76-19.52-6.25-28.87-.46,2.84.69,5.1.66,7.49-.06,4.68.35,9.39-.07,14.57l-2.44-12.69c-.08-.4-.62-.73-.28-1.16-.51.1-.37-.35-.44-.64-1.06-4.26-2.74-8.34-4.02-12.54-.32-1.06-.81-2.08-1.39-3.47-.61.5-.26,1.18-.32,1.75l1.15,1.72,1.1,6.8c.07.41.54.79.18,1.22.46-.09.42.29.34.57l.15,3.46c.06,1.52,2.57,14.53,1.35,16.08l-.79-5.2c-.58-3.83-1.56-7.3-2.15-10.79-.13-.74-.75-1.61-.66-2.41-.08-.51-.85-.69-.58-1.23.18-.36-.31-.65-.03-.98l-3.29-9.18c-1.68-4.67-4.18-9.03-6.81-13.35-.39.98.1,1.83.33,2.45,2.39,6.5,3.7,13.37,4.45,20.68-2.26-6.88-4.78-13.45-8.49-19.58.28.46-10.55-16.68-8.65-10.31,2.41.57,9.26,18.36,9.86,21.86-2.71-4.33-4.79-8.53-7.99-12.69l-5.61-7.29c.72.93-3.65-3.58-2.75-3.59-.27,0-.72.32-.85.5,5.19,6.28,9.26,13.48,12.49,21.32-4.88-7.33-10.42-13.77-17.12-19.02-2.26-1.77-4.7-3.49-7.34-4.5l7.28,6.69c-3.59-1.91-6.86-4.36-10.17-6.64-2.01-1.38-4.83-1.75-6.69-3.95-.27,1.65.97,1.76,1.51,2.22.16.14.58.05.92-.03,5.32,4.59,10.71,8.92,15.56,14.65-5.63-3.93-11.92-7.1-18.24-10.14-2.28-1.1-5.37-1.38-8.12-2.21,5.67,2.83,10.8,6.05,15.65,9.78,3.58,2.75,8.07,4.5,11.42,7.92-4.56-2.22-8.63-5.1-13.24-6.21l-10.9-2.63c.54,1.46,2.07.94,2.87,1.37,2.25,1.22,4.57,2.74,6.85,3.43l1.77.54c.24.07.87.06.62.57,1.3.45,2.78,1.05,3.94,1.81,4.17,2.71,8.79,4.63,12.74,8.04-5-2.11-9.12-4.83-13.91-6.29-.66-.2-1.63-.12-2.24-.57l-10.83-2.94c-1.19.17-.67,1.45.35,1.2,2.9.14,4.96,1.99,7.06,2.81,9.04,3.49,17.85,7.98,25.9,14.24-8.38-4.95-17.14-8.48-26.54-10.17-1.63-.29-3.33-.87-5.18-.34,4.99,1.35,9.72,3.21,14.4,5.4.26.12.86.08.62.57.39-.22.97.15,1.07.58.66-.48.92.3,1.22.56.28.24,1.08.13,1.17.71,3.36,1.08,6.51,3.39,9.74,5.48.99.64,2.71.47,2.71,2.17-4.63-2.66-9.23-4.26-14.15-5.34-.57-.13-1.26-.37-1.8-.17-.17.06-.56.15-.83.1-.18-.03-.4-.11-.32-.45-2.58.25-5.41-.69-8.39-.09,3.84.85,6.99,1.83,10.22,3.11,8.17,3.25,16.42,7.11,23.4,13.42-7.49-4.78-15.43-8.36-24.11-10.2-.74-.16-1.74-.28-2.95.32,5.98,1.19,10.67,4.87,15.63,7.8,5.28,3.13,10.51,6.46,14.98,11.21-1.75.43-2-1.44-3.08-2.18-4.17-2.84-8.57-5.72-13.14-7.49-4.17-1.62-8.55-2.64-13.59-3.86,9.47,4.28,18.99,9.39,26.9,16.67,3.07,2.82,6.74,5.16,9.17,9.13-.14.75-.71-.08-.98-.1,2.38.25-9.29-8.06-9.42-8.14-6.11-3.85-12.84-6.23-19.87-8.11-.83-.22-1.84-1.01-2.54.02,1.84.33,3.61.87,4.66,1.83.32.01,1.3-.21,1.18.51.42-.29.8.19,1.16.32,3.23,1.18,6.07,3.07,9.14,4.99.28.18.87-.19,1.11.17.18.27.85.75.07,1.17-3.81-2.4-8.02-2.44-11.58-4.21-.16.38-.31.09-.53.05-.67-.03-1.11-.49-1.72-.66-.95.41-1.65-.63-2.91-.52.63,1.53,2.2,1.07,3.45,1.65,7.05,3.25,13.87,6.98,20,11.52.43-.16.76.14.66.58.48-.02.86.49,1.23.75,2.76,1.93,5.74,3.93,7.75,6.63.26-.38,1.3.88,1.29.9-.26.47-.72.38-.88.24-.44-.37-.4-.85-.41-1.14-2.82-1.42-5.71-3.3-8.31-5.09-.49.22-.86.03-1.16-.05-.65-.17-1.54-.53-1.88-1.11-5.74-1.98-11.35-4.41-17.8-5.28,1.52,1.19,3.24,1.41,4.79,2.04,3.38,1.37,6.83,2.8,9.7,4.99.17.02.34.04.5-.01,6.61,3.92,11.75,7.9,17.84,13.02-1.3.68-1.38-.73-2.13-1.28-5.44-3.98-11.2-6.43-16.87-8.88-.46-.2-1.37,0-1.66-.65-2.98-.31-5.79-1.42-8.59-2.33,5.3,3.68,12.28,5.73,17.67,10.4.38-.18.94.04.72.54.68-.41.82.67,1.18.86,3.07,1.61,5.71,4.06,8.36,6.61.82-.13,1.68,0,.88.94-3.63-2.67-7.51-4.51-11.03-6.61-.2.12-.63.17-.88-.01-.17-.13-.61-.14-.37-.52-4.7-1.4-9.15-3.54-14.72-4.56,4.93,2.6,10.32,4.76,14.69,8.51.35-.11,1.01.03.7.55.22-.09.31.08.47.18,5.21,3.02,9.65,7.2,14.19,11.52.38.36.81.32,1.06.35.42.05.45,1.26-.23,1.13-1.57-.3-1.7-2.15-2.62-2.78-4.63-3.18-9.1-6.55-14.12-8.61-3.78-1.55-7.82-2.55-11.98-3.59.52,1.05,1.51,1.22,2.29,1.23.38,0,.66.15.57.57.61-.04,1.19.23,1.72.5.27.14.57.01.85.07.28.06.55.29.33.6.58-.22.84.57,1.18.7,5.17,2.05,9.81,5.39,14.29,8.98-4.8-2.51-9.55-4.31-14.94-5.34-1.66-.32-2.85-.88-4.01-2.03,1.65,2.75,2.03,5.57,3.28,8.58.34.83,1.4,1.61.53,2.18-2.24-3.39-3.63-7.11-5.84-10.07-2.86-3.84-5.85-7.52-9.42-11.08,1.34,2.47,2.35,4.63,3.42,6.91,1.28,2.71,2.91,5.41,4,8.97l-5.44-8.24c-4.06-6.15-10.04-10.93-16.46-15.51-.48-.49-.95-.19-.89.36,2.02.65,2.47,3.41,3.74,4.66,2.85,2.8,4.88,6.33,6.53,9.91,1.18,2.57,4.09,4.61,4.38,8.05-1.92-2.7-3.38-5.4-5.59-7.59-2.28-2.26-4.05-5.43-6.43-7.61l-6.62-6.05c-.78-.72-12.83-8.85-13.04-8.71-.52.34-.08.39,0,.59.16.39.55.59.53.76,6.13,4.41,10.79,10.75,15.62,17.06.58.76,1.86,1.2,1.09,2.3-5.17-6.71-11.56-12.37-18.55-17.08-4.13-2.78-9.04-4.51-13.78-6.39,2.3,1.33,4.19,3.12,6.16,4.73,2.11,1.72,5.01,3.15,6.7,5.73,1.69,2.59,4.27,4.07,5.9,7.12-4.33-4.5-9.43-7.79-14.79-10.83-.26.15-.45.37-.88.04-.18-.14-.63-.25-.31-.59-4.75-2.19-9.69-3.7-14.77-5.29-.18-.06-.55-.63-.92-.48-.17.07-.33.27-.16.61.11.22.97.34.96.59,5.85,1.94,11.25,5.5,16.06,9.62-6.19-2.89-12.12-5.7-18.41-7.28-4.71-1.19-9.73-1.56-14.91-1.64,3.3.65,6.24,1.77,9.27,2.87,5.17,1.88,10.34,3.88,14.97,7.3-5.3-2.16-10.26-4.45-15.53-4.56l-3.44-.08c-.75-.02-2.16.65-2.34-.5-2.5.12-4.98-.27-7.49.22,1.28.77,2.45.19,3.48.35.36.06.66.13.57.57.18-.03.39,0,.57,0,6.29.23,12.58,1.76,18.53,4.5-6.81-.86-12.88-1.26-19.12-.57-8.45.94-16.66,3.44-24.14,8.07,3.1-.4,5.42-1.54,8.12-1.74,1.97-.15,4.21-1.35,6.36-1.04.31.04.8-.05,1.09-.09,5.87-.86,12.04-1.19,18.53.42-9.32.86-17.81,4.24-25.93,8.24.23.41-.33.44-.63.63-2.48,1.62-5.49,2.59-7.54,5.21,4.32-1.95,7.79-4.56,12.08-5.37-.24-.51.39-.38.62-.51.7-.38,1.76-.22,2.41-.47,5.25-2.37,11.12-2.95,16.87-4.26.82-.19,1.93-1.12,2.63.21-6.5,1.02-11.81,3.96-17.32,6.68-.34.17-.67.72-1.09.72-1.11,1.11-2.66,2.08-4.07,2.89-.07.38-.13.57-.57.65-.24.04-.28.22-.53.02.22.45-.28.7-.63.48.11.39-.46.3-.58.51-.47.83-1.56,1.22-2.27,1.83-.31,1.23-1.98,1.35-2.12,3.01,2.82-2.76,6.12-4.48,9.57-5.92-.32-.34.12-.48.3-.59.38-.22.76-.25.88.1,4.14-2.74,9.25-4.15,14.29-6.1,1.3-.5,2.07-1.74,3.98-1.14-6.72,2.91-12.86,7.03-18.8,11.71-1.67,1.31-3.15,3.38-4.57,5.38,2.7-2.86,6.05-4.06,9-5.91,4.93-3.09,10.25-6,16.2-7.82-4.95,2.71-10.04,6.66-14.36,10.08-.42.89-1.48,1.9-2.2,3.02,1.35-1.48,3.21-2.02,4.57-3,7.48-5.37,15.84-10.08,25.53-12.53-8.86,3.52-16.56,9.21-23.74,15.88-.84.78-1.57,1.98-2.37,3.18,2.08-2.2,4.65-2.96,6.75-4.31,6.44-4.14,13.61-7.56,21.33-9.59-7.59,2.94-13.9,7.35-20.15,12.51-.36.3-1.18.49-1,1.58,2.58-2.07,5.66-3.03,8.43-4.37,7.85-3.82,16.29-7.36,25.38-7.89-9.08,1.9-17.05,5.7-24.73,10.8-.58.39-1.44,1.25-1.62,2.49,4.63-3.73,10.07-4.89,15.27-6.57,5.17-1.67,10.67-3.46,16.74-3.24-5.4.98-10.51,3.4-15.53,5.47-.15.35-.62,1.06-1.11.71.22.48-.33.65-.67.46-1.96,1.96-5.01,2.26-6.89,4.73,6.01-2.71,11.63-5.26,17.83-5.97-.1-.5.34-.39.62-.38,2.39-.61,4.94-.33,7.31-.63,3.87-.49,8.02-.97,12.16.31-3.92.57-8.19.02-11.99,1.31-5.81,1.98-11.04,6.31-16.95,7.93l-1.46.4c-.29.08-.77.76-.06,1.29,4.64-3.01,9.48-3.72,14.35-4.42,5.12-.73,10.42-2.22,16.14-1.43-5.26.91-10.49,1.6-15.42,3.55-3.64,1.44-7.13,3.13-10.97,5.36,7.15-1.96,14.42-3.45,21.89-3.66,4.77-.14,9.62-.92,14.78.04-4.92.03-9.59.68-14.34,1.8-.19.04-.34.19-.55.13.27.56-.34.51-.66.51-4.82,1.08-9.16,3.66-13.76,5.44,1.04,1.11,1.58-.1,2.3-.28,7.93-1.95,15.76-2.44,23.52-2.26,4.11.1,8.21.12,12.67.92-4.22.57-8.47.25-12.61,1.1-6.76,1.39-13.44,3.4-19.43,6.52,10.02-1.94,19.22-3.14,28.57-2.24,2.2.21,4.57-.24,8.64,1.05-3.01-.04-5.87.3-8.77.55-7.57.64-14.93,2.69-22.17,5.96-.4.18-1.01-.3-1.19.16-.11.27-.96.64-.25.83,6.56-1.96,12.91-2.02,19.15-2.29,5.13-.22,10.49-.5,15.95-.46.76.6.73,1.33-.39,1.21-5.35-.61-10.26.24-15.01,1.57-5,1.39-9.9,3.18-14.52,6.35,4.86-1.17,9.01-2.06,13.44-2.5,6.27-.63,12.61-1.17,18.9-.76-8.79,1.75-9.11.07-18.23,3.06-.21.07-.4.2-.64.17.28.61-.42.47-.71.6-2.84,1.21-6.07,1.83-8.75,4.43,5.7-2.38,11.51-2.9,17.46-3.1,6.46-.22,10.1-.61,17.22.58-1.98,1.31-4.23-.2-6.36-.05-3.66.25-7.45.26-10.78,1.02-4.43,1.01-8.69,3.01-12.77,4.95,5.85-1.32,11.4-2.82,17.18-2.67,3.1.08,6.17-.28,9.28.28l-5.78.72-3.53.64c-4.67.84-9.18,2.06-13.42,4.8-22.56-7.06-52.13-10.76-74.77-7.42-.45.07-.67.15-.55.66.06.23.26.38.59.35-.07-.46.25-.65.52-.6l1.26.26c6.56,1.38,13.32,1.35,19.57,3.64-7.02-.56-13.52-1.2-20.14-.49-6.55.7-12.92,2.44-19.11,4.95,2.25.15,4-.29,5.81-.41,4.49-.3,9-.51,13.91.37l-13.07,2.46c-.82.16-1.96,1.11-3.05,1.09-.18,0-.33.18-.54.14.05.86-1.25.74-1.81.63-2.73,2.08-6.89,2.36-8.56,5.14,7.18-2.8,14.99-4.42,23.2-4.03-8.67,1.99-16.54,4.71-23.9,8.95.34-.2-14.25,9.99-12.46,10.58.63-.08.7-.75,1.13-.6.19-2.64,19.63-10.97,23.01-10.23-8.34,3.39-15.56,7.22-21.67,11.38l14.01-5.95c1.09-.46,1.92-2.25,3.2-1.04-7.75,3.07-14.14,8.11-20.19,13.81-3.17,2.99-5.13,7.44-8.21,10.84l6.97-6.2c4.94-4.39,10.38-8.36,16.63-11.39-5.98,4.66-11.09,9.99-15.51,15.97-.23.3-.31.8-.46,1.15-.21.48-.57,1.05-1.14,1.15.04.23.11.33,0,.57-.22.47-.61,1.16-1.18,1.23-1.87,4.1-4.29,7.93-5.72,12.62,3.41-3.99,5.57-8.53,9.16-12.04-.04-.61.61-1.27,1.2-1.23,1.92-3.4,5.22-5.8,8.23-9.04.4-.94.19-.96.32-1.08.23-.21.58-.35.83-.21-.24-.13-7.41,11.94-7.69,12.66-2.13,5.42-4.05,11-5.45,16.94,3.66-7.06,6.94-13.46,11.34-19.31,2.52-3.34,4.14-7.52,7.53-10.88,1.24.89-.79,1.3-1.17,2.21-1.51,3.62-3.78,7.03-4.79,10.47-1.25,4.23-2.5,8.49-3.44,13.57,2.55-5.48,4.89-11.11,8-16.45,2.11-3.62,6.31-7.08,6.74-10.83l.11-.97c.04-.39.82-.41,1.16,0-.43-.53-5.68,12.32-5.69,12.36-1.29,4.64-2.61,9.24-3.43,14.5,2.86-6.36,5.62-12.3,9.07-17.94-1.13,1.85,7.4-15.71,8.28-13.64-2.68,4.59-4.84,9.25-6.52,14.03-1.33,3.79-1.59,8.04-2.81,12.3,2.84-6.22,5.85-12.02,9.76-17.37,2.34-3.21,3.77-7.26,6.69-10.24-.79,1.79-4.76,11.1-5.02,12.08-.94,3.52-1.98,7-2.75,11.08,4.34-8.62,8.93-16.72,15.41-23.36,2.84-2.91,5.19-6.64,9.11-9.07-2.6,3.74-5.59,6.91-7.45,10.46-3.26,6.22-6.18,12.66-7.86,19.45,4.57-7.17,9.24-13.42,14.83-18.99,4.52-4.5,8.79-9.47,14.65-12.76-5.54,4.54-9.07,10.84-12.98,16.83.06.27.13.29.02.58-.13.34-.22.69-.69.57l-4.99,11.09c5.54-7.62,11.47-14.49,18.33-20.33,4.17-3.56,7.77-8.23,13.07-10.78-4.18,4.07-8.73,8-11.37,13.01l-7.25,13.76c-.71.76-.01,1.82.42.62,4.22-5.76,8.88-10.91,14.14-14.93-.21-.55.26-.71.69-.46,3.93-4.35,8.91-7.93,14.22-11.12-1.57,2.23-3.86,3.06-5.52,5.03-2.11,2.51-4.13,5.07-6.39,7.26.25.2.11.33,0,.55-.24.47-.63,1.15-1.21,1.2-1.82,3.89-4.71,7.07-6.19,11.45,3.4-4.79,7.66-8.51,12.01-12.05.56-.46,9.31-9.16,12.36-10.21-3.52,3.6-7.95,6.94-10.71,11.41l-6.99,11.35c3.42-3.72,6.78-6.97,10.39-10.14,3.12-2.74,6.15-5.67,9.58-8.08l-7.7,9.02c-2.34,2.74-3.84,6.23-5.69,9.54,5.2-5.21,10.3-10.37,16.43-14.09-2.11,1.28,10.51-8.26,8.77-6.01-3.05,2.29-5.96,4.43-8.3,7.19-3.97,4.7-7.64,9.64-10.41,15.43,1.11-.39,1.94-1.56,2.36-2.31,1.38-2.42,2.78-4.98,5.3-6.91l-3.93,6.32c-.06.36-.72.63-.69,1.27.04.81.44.34.63.23.54-.31.39-1.1.62-1.36,3.78-4.13,7.7-7.56,12.02-10.46,3-2.01,5.45-5.26,9.25-6.6-2.93,2.61-6.23,4.64-8.6,7.66-3.61,4.61-7.21,9.32-9.66,14.87,4.97-5.03,9.68-10.22,15.76-13.42,1.51-.8,2.66-3.04,5.18-3.18l-4.08,3.59c-2.48,3.68-5.7,6.86-7.48,10.88.25.03.51.04.76.03.64-1.02,1.45-1.92,2.15-2.88.57-.78,1.58-1.6,2.57-1.88-.21,1.49-.7,2.36-1.41,3.04-.56.55-.13,1.91-.95,2.29-.81.38-1.58.91-2.45.62-.24-.08-.53-.07-.57-.34-.04-.27.07-.56-.1-.88-.58,1.32-2.47,2.23-3.75,2.59-14.04,3.96-26.58,10.45-38.53,19.17-10.89,7.96-20.52,16.58-28.51,27.57-1.72.19-.27,1.98.34.74.37-2,2.09-2.21,2.93-3.02,4.84-4.68,10.29-8.9,16.66-12.43-5.18,5.05-10.42,9.83-14.94,15.27-.04.4-.17.69-.64.57-3.63,5.6-10.63,10.58-10.4,16.71.03-1.11.69-1.9,1.44-2.83l5.89-7.19c.28-.34.53-.67.85-.32,1.1-1.92,2.32-4.13,4.72-5.03-1.53,2.26-3.01,4-4.72,5.03-2.46,4.31-5.3,8.48-8.1,12.54.44-.64-3.89,5.77-1.08,2.87-.13-.3.17-.37.28-.57.2-.38.88-.86.86-.06-.02.65-.7,1.23-1.08,1.25l-4.3,10.28c.31.64.87.66.8-.02,2.79-6.2,6.08-12.19,10.07-17.91.75,1.69-1.11,2.36-1.6,3.53-2.44,5.83-4.37,11.51-5.53,17.24-.75,3.73-1.08,7.68-1.11,11.51l2.76-9.15c.02-.5.28-.53.56-.7,1.11-4.19,2.97-8.13,4.95-11.78-1.22,5.58-1.74,10.01-1.66,14.7.05,2.94-.13,5.9.42,9.23l2.04-11.44-.02-.93c0-.26.24-.6.6-.34-.02-.21.09-.37.13-.56l2.32-10.37c.84,1.18.42,2.56.06,3.81-.6,2.12.07,4.39-.16,6.55-.02.2.04.4,0,.62.96.03.38,1.17.39,1.71.03,2.35.09,4.66,1.12,6.96l.11-9.19,1.26-12.76c.08-.84.43-.17.82.07-.54-.33-.02,9.22.57,11.37.6,2.23,1.17,4.34,1.6,7.06.78-1.28-.2-4.37-.03-8.67.16-4.28.58-8.56,1.23-13.3,1.11,3.69.85,7.4,1.43,11.05.29,1.81.91,3.56,1.39,5.75,1.15-1.43-.1-3.01-.11-4.54-.02-3.37.51-6.34.73-9.28.27-3.67.34-7.3,1.26-10.94l.61,11,1.86,11c1.51-.87.25-2.28.21-3.26-.16-4.77.4-9.57,1.24-14.19.97-5.38,1.41-10.94,3.63-16.11-.77,6.12-1.71,11.67-1.01,17.42.38,3.14.47,6.29,1.48,9.7l.33-8.06c-.08-.14-.17-.62-.12-.83.04-.18.14-.4.47-.32-.08-1.55.73-3.51.73-5.11,0-.25-.11-.55-.05-.89.04-.2.17-.59.51-.35-.27-.4.16-.66.23-1.03,1.15-5.68,2.34-11.46,4.93-16.81-1.72,7.36-2.25,14.22-1.77,21.32.17,2.56-.16,5.18.4,8.06.72-6.16,1.63-12.31,3.2-18.35,1.41-5.45,2.99-10.84,4.97-16.23-.74,5.94-2.21,11.23-2.13,16.84.05,4.02.24,7.96.04,12.28,2.14-.73.75-2.46.9-3.6.6-4.61,1.6-8.64,2.53-12.68,0-.48,0-.62.53-.68,1.25-6.45,2.93-12.94,5.66-19.04-1.22,6.63-2.96,12.61-2.82,18.98l.26,11.09c1.14-5.25,1.78-10.38,3.21-15.5.07-.32-.06-.8.5-.65-.09-.21.03-.44.08-.64,1.37-5.06,2.86-10.08,5.04-15-.8,5.75-2.13,10.86-2.1,16.26l.06,10.92c1.17-3.05.97-6.15,1.64-9.21-.04-.29-.12-.71.37-.62-.49-.8.54-1.58.67-2.23,1.16-5.96,2.42-11.99,5.06-17.88-1.4,6.54-3.12,12.91-3.21,19.54-.03,2.18-.22,4.41.21,6.94.63-5.35,2.3-10.34,3.76-15.49.06-.46,0-.65.55-.73.58-2.91,1.29-5.84,2.64-8.62.43,3.38-1.07,6.35-.95,9.26.18,4.29.29,8.59.83,13.25,1.16-7.02,2.9-13.85,4.89-20.67.87-2.96,1.81-5.97,3.24-9.24l-1.54,9.3c-.82,4.92-.07,10.07.95,15.46.51-6.97,2.04-13.83,4.89-20.12,1.06-2.34.52-5.53,2.77-7.56-.25,2.85-1.72,5.11-1.67,7.62.11,5.79.06,11.58,1.49,17.21.2-6.16,1.56-11.7,3.12-17.22.79-2.77,2.05-5.4,3.31-8.13-.74,3.19-1.41,5.78-1.71,8.68-.51,4.82-.84,9.63.42,14.39.42-4.27.21-7.95,1.3-11.53.15-.47-.18-.98.31-1.79.37.65.74,1.25.76,1.91.07,2.9.61,5.78,1.59,9.09.33-4.32.42-8.52,1.45-12.67.33-1.35,1.19-9.01,2.68-10.38.69,1.74-.56,2.85-.79,4.34-.3,1.98-.59,4.11-.74,6.06-.19,2.44.79,5.08-.03,7.45h.57l1.66-9.17c.28-1.55-.02-3.34.98-5.18.52,1.75.13,3.55.08,5.3-.1,3.36.37,6.7.82,10.22-8.87,6.66-16.79,13.63-23.93,22.1-.41.49-1.14.45-.88,1.03.53,1.17.78-.96,1.17-.17.04-.07.05-.31,0-.88l11.39-9c-3.49,4.29-8.02,7.65-11.18,12.04-3.7,5.14-7.66,10.33-10.25,16.05,1.49-1.39,2.61-3.19,4.28-4.39.41-.81.63-2.21,1.78-1.84-.01-.49.43-.71.64-.93.26-.27.55,0,.54.18-.01.38-.14.75-.32.77-.19.01-.62-.12-.86-.02-.31.55-.56,1.04-.63,1.45-.09.56-.9.21-1.15.39-1.35,2.69-3.59,4.84-5.09,7.36-4.96,8.35-8.8,17.38-10.81,26.93-.29-.13-.61.05-.66.25-.07.26-.13,1.28.26,1.38.27.06.5-.6.98-.52.26-.18.23-.36,0-.55,1.04-4.56,5.22-6.92,7.96-13.69-1.5.56-1.51,1.99-2.81,2.89-.08-2.01,1.38-3.01,2.67-4.21l.14,1.32c.29-.71,3.23-8.23,5.28-8.71-4.66,8.99-9.16,17.74-11.53,27.02l-3.18,12.48c1.44.04.63-1.03,1.33-1.16.5-3.61,6.15-14.59,8.14-17.72-2.26,6.33-5.06,12.01-6.36,18.37-.71,3.43-.63,7.13-1.12,11.01,1.1-2.55,1.82-4.95,2.54-7.45,1.19-4.17,2.55-8.35,4.73-12.06l-1.38,6.69c-.48,2.35-1.1,4.75-1.25,6.98-.47,7.12-.72,14.22.85,21.25.55-6.84.89-13.29,2.62-19.53.59-2.13.27-4.68,2.06-6.48-.02,2.48-.67,4.43-.49,6.46.86,9.72,2.42,19.45,7.72,28.48-1.38-5.31-2.28-10.17-2.67-15.29-.41-5.35-1.28-10.81-.78-16.68.66,4.29,1.4,8.47,2.59,12.64.06.2.13.35.07.57.36-.26.51.06.54.34.03.31-.05.58.07.84.33,1.48,5.85,12.11,5.37,12.05.37.05.65.03.87-.29.31-.45-.2-.6-.4-1-1.73-3.53-2.47-7.2-3.14-10.83-.82-4.46-1.87-8.83-2.21-13.75,1.26.92.27,2.35.82,3.57l4.23,9.47c.34.25.5.36.76.79,1.27,2.1,2.06,4.45,3.91,6.41-.98-3.19-2.42-5.73-2.9-8.65-.13-.61-.91-1.5-.5-2.34-.54.1-.49-.28-.56-.66-.15-.89-.39-1.88-.65-2.73-1.25-4.06-1.74-8.37-3.47-12.61-.19-.45-.01-1.36.5-1.81.78,4.44,2.66,8.47,4.51,12.61.61,1.37,1.66,2.55,2.02,4.01.48-.22.69.32.49.67,1.43.78.81,3.03,2.96,3.86-3.49-6.9-5.41-14.46-6.84-22.16-.35-1.89-1.16-3.6-1.14-5.93,1.2,1.98,1.92,3.88,2.74,5.84,2.19,5.22,4.95,10.3,8.45,15.13-1.47-5.17-3.4-9.64-3.95-14.51-.96-.07-.26-1.21-.54-1.77-.37-.73-.22-1.59-.48-2.35-.83-2.41-1.24-4.89-1.53-7.36,1.23,2.63,2.65,4.99,3.18,7.39.29.22.97.63.67,1.12.58.05.9.76,1.13,1.2,1.35,2.55,2.21,5.38,4.47,8.05-2.16-8.15-4.26-16.31-5.23-24.67-.4-3.49-1.78-6.96-1.48-11.32,1.59,3.05,1.3,7.03,2.71,10.17,2.51,5.62,4.55,11.43,7.9,17.29-1.4-6.37-3.38-12.53-3.96-19.01-.87-.14-.4-1.2-.44-1.8l-.13-2.21-1.35-8.17c-.22-1.32-.62-2.71.16-3.93.26,4.02,1.63,7.35,2.36,10.92.1.48,1.07,1.04.73,1.7.33-.23.5.12.53.36.03.32-.05.59.06.84,1.64,3.28,2.48,6.96,5.11,10.38-2.15-6.81-3.04-13.73-4.07-20.71l-1.7-11.46c.66-2.12,2.62,10.31,2.84,10.8,2.08,4.47,3.37,9.24,6.15,13.98-1.76-6.25-3.2-12.49-3.86-18.96-.21-2.07-1.83-9.36-1.02-10.18.21-.21.51-.03.56.17.06.25-.35,1.16-.29,1.37l2.49,8.57c1.27,4.39,3.15,8.66,5.86,12.71-2.59-8.19-4.4-15.99-4.66-24.24-.04-1.36-.72-2.81-.36-4.56l1.27,4.52c1.86,6.62,5.52,12.8,9.82,18.66-1.09-3.24-2.09-5.9-2.8-8.77l-1.79-7.31c-.21-.84-1.12-1.76.02-2.56l2.99,8.58c.39,0,.34.27.47.39.17.16.52.55.22.79.49-.28.45.36.64.58.69.79.05,2.18,1.61,2.29-2.44-5.63-3.98-11.34-4.81-17.14-.28-1.97-1.66-3.95-1.49-6.35,1.76,1.73,1.29,4.52,2.3,6.38,3.08,5.66,5.07,11.82,9.03,17.34-1.54-6.26-2.9-11.91-3.77-17.78-.13-.88-.52-1.81.05-3.08.56,1.05,1.04,1.99,1.45,3.01,1.38,3.48,2.46,7.02,4.6,10.35l-2.82-10.42c-.66-2.44-1.49-4.91-1.75-7.45,1.9,1.56,1.63,4.81,2.74,6.78l5.96,10.46c-2.38-6.74-3.37-13.29-4.02-20.03-.15-1.53-1.19-2.79-.43-4.78l2.02,4.81c2.08,4.97,4.88,9.64,7.91,14.37-1.24-4.41-3.25-8.14-3.31-12.37-.11-.31-2.78-9.38-2.06-9.57,1.82,2.63,1.68,6.36,3.19,9.09,1.61,2.92,3.12,5.89,5.14,8.9-.88-4.19-2.91-7.3-3.43-11.06-.31-.89-1.41-2.06-1.06-3.53l1.72,1.76c.23-.53-.14-1.13,0-1.66-1.25-1.25-2.12-3.18-2.27-5.3,1.71,1.41,1.88,3.75,3.12,5.19,1.7,1.98,3.26,3.89,5.49,5.76-1.49-2.09-1.96-4.3-2.92-6.3-1.31-2.73-3.03-5.34-4.22-8.9,1.41-.06,1,1.61,1.64,2.6,1.5,2.3,3.06,3.84,4.14,5.75.59.8,2.41,1.62,3.41,2.19l-1.85-3.46c-1.63-3.05-3.6-6.02-4.83-9.69,2.31,3.02,4.22,5.88,6.7,8.46.81.84,2.28,1.18,2.89,2.51-.81-1.73-1.55-3.25-2.4-4.68-1.55-2.6-2.68-5.35-3.69-8.54,1.78,2.92,3.95,5.18,6.18,7.54.45.47,1.54.7,2.25,1.04-1.69-2.09-3.4-4.28-3.74-6.85-.8-.62-1.37-1.56-1.57-3.12.76,1.18,2.19,1.54,2.49,2.79.57-.02.91.42,1.54.74-.08-.94-.69-1.4-.91-2.09-.23-.03-.59-.04-.64-.3-.08-.42.02-.7.3-.85.75-.4.63.44.93.56,1.54.63,4.64,1.41,7.14.44l4.21,57.96c.67,9.27,4.02,18.48,2.05,27.1l-1.29,5.68c2.31-10.15.78,45.26.19,37.41.43,7.91,1.65,15.89.78,23.83-.29,2.64-2.1,4.94-2.09,8.09.03,7.82,2.19,16.13-.2,23.39l-2.29,6.95-1.13,20.05c-.42,7.53-1.32,14.87-2.73,22.32-.45,2.4-1.95,4.16-2.09,6.96-.37,7.26.44,15-1.36,22.05-.87,3.41-2.62,5.76-2.68,9.48-.14,8.51.08,17.17-1.32,25.71-.52,3.17-2.28,5.67-2.32,9.05-.11,8.81-.09,17.46.29,26.5-.26,1.22-1.27,2.88-1.53,3.94l-.99,3.95c-1.51-1.51-.38-2.71-.79-3.89-.81-2.3-.9-4.73-1.35-7.51-.58,2.11-.33,4.25-.41,6.34-.05,1.36-.19,2.67-.12,4.03l-1.37-3.25c-2.39-2.5-3.71-5.85-7.2-7.94,1.2,1.19,1.59,2.95,2.48,4.29,1.35,2.02,2.79,4.14,3.29,6.85-1.69-2.05-3.56-4.01-5.56-5.72-1.91-1.64-4.25-2.9-6.74-3.94.7,1.37,1.79,2.01,2.7,2.84,2.38,2.17,4.61,4.51,6.66,7.22-2.97-1.92-5.91-3.56-8.95-4.91-.23.06-.47.31-.85,0-.15-.12-.6-.14-.35-.51-4.03-.9-8.05-2.33-12.7-1.57,4.91,1.19,9.33,2.96,13.41,5.53,2.35,1.48,5.66,1.93,7.74,4.37l-9.54-1.53c-1,.04-2-1.04-2.95.5,2.96-.37,5.24.59,7.57,1.91,1.44.82,3.81.46,5.13,2.12-2.07-.04-3.8-1.04-5.59-.81-1.86.24-3.71.13-5.94.54,1.74.62,3.5.28,5.22.44.41-.05.66-.09.65.4,1.85-.33,3.64.45,4.92,1.5-2.35-.02-3.61.37-4.98.73-28.99,7.78-58.35,13.71-88.08,19.37,1.53,1.24,3.35-.19,4.88-.29l106.65-6.52,84.24.18,62.44.67h19.84c1.14,0,2.94,1.6,4.09-.46l-5.95-.47-50.04-6.02c-17.57-2.11-34.25-4.89-51.52-8.28-5.41-1.06-10.34-2.1-15.41-2.77-.55-.07-.94-.29-1.86-.74.63-.26,1.17-.61,1.76-.9,2.96-1.47,5.85-2.21,9.57-2.08-3.29-1.69-6.49-.78-9.46-.33-1.23.19-2.07,1.2-3.58,1.32.66-1.8,2.6-1.81,3.56-2.89,2.61-2.96,6.22-4.7,9.69-6.62-.71-.66-1.21.16-1.7-.14-2.64.88-5.13,1.92-7.98,3.32,1.59-2.65,4.02-3.88,6.12-5.5,2.62-2.01,5.55-3.38,8.52-4.73-4.63.49-8.41,2.02-11.85,3.91-2.44,1.34-4.51,3.46-6.48,5.95.11-3.4,3.28-5.17,4.64-7.59,1.96-3.5,4.91-6.06,8.09-9.03-6.03,2.37-10.71,6.5-14.25,11.27-.67.9-.71,2.1-1.99,3.18-.47-1.47.64-2.24.83-3.22l2.61-13.48c-1.86,2.28-1.31,4.78-2.78,6.66-.73.94.07,2.83-1.39,3.97-.12-1.28.08-2.71-.17-4.01-.83-4.37-1.48-8.82-3.93-12.71.03,2.66,1.27,4.72,1.43,6.99.29,4.29.67,8.68-.56,13.22-.57-3.13-1.22-6.44-3.61-9.26,1.12,4.56,2.1,8.98,1.52,13.64-.04.29,1.22.64.56,1.05-.31.2-.46.36-.89.28-.39-.08-2.82-14.8-3.03-15.98-2.99-17.08-1.9-34.77-3.99-52.17l-.69-5.77c-.78-6.5.88-12.96,1.67-19.46.37-3.04-.29-5.66-.26-8.69.14-12.48,1.19-24.77,2.9-37.12.6-4.31-.66-7.73-.85-11.67-.43-8.7,1.04-17.37,1.32-26.18.07-2.27-1.06-3.98-1.14-5.83-.37-9,.4-17.81.55-26.84.03-1.96-.86-3.46-1-5.25-.79-10.12-.63-20.1-.7-30.27-.01-2.14-1.29-3.68-1.41-5.33l-2.26-29.68-5.18-55.52c1.99.13,3.6.59,5.2-.01.5-.89,1.7-1.07,2.74-1.67-.1,1.17-.85,1.7-1.56,2.14-.55,2.5-3.08,3.57-4.73,6.22,1.94-1.08,4.05-1.91,5.51-3.43l2.97-3.1c-.47,2.34-1.72,2.68-2.07,3.74-.91,2.71-2.57,5.14-4.49,7.59,2.4-1.37,3.82-3.67,6.21-4.73.7-1.61,2.17-2.73,3.1-4.3.1,2.58-1.77,4.21-2.5,6.2-.89,2.42-2.15,4.52-3.43,7.09,1.67-1.32,3.62-2.34,4.64-3.83l4.7-6.83c.33-.49-.58-1.14.08-1.13.23,0,.43-.63.61-.53.72.39-.21.95-.31,1.22l-3.44,9.14c-1.33,3.53-2.8,6.78-4.54,10.23l5.39-5.91c2.9-3.18,4.27-7.46,6.44-11.37-1.02,4.67-2.97,8.69-4.37,12.77-.98,2.86-1.9,5.56-3.38,8.77,2-2.26,4.05-4.17,5.3-6.6l4.14-8.04c.26,3.94-1.91,7.15-2.58,10.42-.73,3.56-2.05,6.63-3.5,10.45l7.5-11.64,3.25-8.56c.03,3.18-.7,6.14-.92,9.05-.45,5.92-1.89,11.6-3.44,17.31,1.11-2,2.63-3.61,3.34-5.19,1.44-3.22,2.45-6.63,4.42-9.85-.18,4.08-1.06,7.64-2.09,11.06-.11.36-.16.75-.07,1.01.11.32-.02.91-.49.71l-.94,4.68c1.5-3.41,4.26-6.07,5.42-9.34l3.84-10.87c.29,4.28-1.04,8.54-1.97,12.62-.98,4.29-2.03,8.97-3.92,12.96.13-.18.26-.32.36-.07,1.42-2.16,3.5-4.33,4.75-6.6,2.22-4.03,3.74-8.33,5.49-12.68-.17,5.1-2.37,9.45-3.31,13.89-.8,3.77-1.85,7.28-3.98,11.01,2.57-2.53,4.04-5.47,5.87-8.29,2.41-3.72,3.41-8.01,5.41-12.01l-3.31,12.63c-1.07,4.09-2.08,8.05-3.34,12.17,2.52-3.45,4.07-6.76,5.79-10.02,2.26-4.28,2.83-9.16,4.84-13.7-.29,5.21-1.97,9.8-2.63,14.42-.88,6.13-2.69,11.95-4.51,17.89,2.61-4.28,4.86-8.21,6.79-12.22,2.15-4.47,2.69-9.62,4.4-14.29.04,5.89-1.74,11.31-2.65,16.68-.86,5.08-2.12,9.8-4.04,15.06l6.84-11.66,4.88-10.84c.11-.25-.25-.76.22-.96.47-.2.46-.04.62.11-.25-.23-3.82,12.98-3.57,11.76-1.26,6.32-3.04,12.41-5.66,18.28,1.64-1.47,2.33-3.16,3.07-4.66,1.2-2.44,2.28-4.93,3.72-7.37.12,2.79-1.88,5.14-2.19,7.42-.35,2.61-1.44,4.65-2.16,7.99l4.6-7.99c2.74-4.77,4.09-10.22,6.01-15.56-.5,6.5-2.64,12.22-4.37,17.91-1.39,4.59-2.62,9.14-5.37,14.15l6.04-7.29c1.56-1.81,2-4.91,4.31-6.79.02,2.97-1.9,5.43-2.63,8-1.31,4.57-3.22,8.75-6,13.3,2.76-1.64,3.56-4.39,5.32-6.48,3.2-3.81,5.02-8.47,7.92-12.73l-4.52,11.05-1.58,2.17c.15,1.07-.71,1.88-.69,2.96l2.12-2.42c-.06,1.73-1.51,2.93-2.08,4.22l-3.13,8.81c3.26-3.78,5.97-7.48,8.5-11.29,2.28-3.43,3.94-7.12,5.87-10.92-.52,4.39-2.77,7.91-3.83,11.66-1.71,6.01-4.14,11.73-7.15,17.92.89-.62,1.4-1.24,1.91-1.93.3-.4.41-.49.87-.72l6.18-9.62c.19-.3-.3-.87.21-1.13.29-.14.62-.89.88-.27.38.88-.34,1.1-.5,1.54l-4.7,12.58c-.79,2.1-1.2,4.59-2.7,7.26,2.45-2.99,5.23-6.12,6.83-9.68l4.06-9.08c.26-.57-.1-1.72.75-2.35.92.7-.02,1.66-.2,2.48l-2.35,10.7c-1,4.54-2.03,8.9-3.46,14.22,4.3-6.07,6.52-13.3,8.72-20.47.87-2.82.25-5.87,1.41-8.71.21,3.12.32,5.92.22,8.68-.01.4.46.74.1,1.12.46-.07.43.28.3.57-.21,3.68.57,7.51-.1,11.2-.3,1.68-.79,3.4.02,4.92l1.46-10.31c.74-5.26.45-10.5.66-16.2,1.17,5.01,2.38,9.97,2.54,15l.36,10.94c1.86-7.9,2.15-16.04,1.36-24.14-.1-.98-.68-2.31-.46-3.44,0-.44-.02-1.31.04-1.76-.49-2.24-1.73-4.77-1.62-7.51,1.26,2.32,2.2,5.09,2.67,7.51.35.4,1.01,1.07.74,1.71.16.03.39.24.51.62,1.49,4.74,2.86,9.43,3.75,14.39.74-5.84-.26-11.29-1.04-16.69-.65-4.51-2.96-8.55-4.4-13.62,2.17,3.62,4.43,7.57,5.56,11.8-.63-2.37,2.18,4.79,1.83,4.43,1.7,1.73-3.88-17.1-4.05-17.49l-5.62-12.77c2.66,4.1,5.73,7.74,7.36,12.08.56,1.5,2.39,2.83,2.49,4.77,1.34.33-5.03-15.56-4.75-14.98-2.35-4.71-5.14-9.39-8.13-13.96-.44-.67-2.28-1.05-1.15-2.47,3.92,5.21,9.05,9.98,11.37,15.14-.22.1.25.54.38.69.02.03.71-.4.36-1.13-2.34-4.3-3.83-8.71-6.25-12.62-2.36-3.8-5-7.57-8.07-10.89-.55-.59-2.06-1.12-1.29-2.67,1.01,1.03,1.27,1.85,1.29,2.67.07.06.28.02.74-.19,3.11,2.97,6.2,5.8,8.32,9.27-2.21-6.57-6.54-12.63-11.32-17.68l-6.87-7.25c3.43,1.46,5.82,3.87,8.05,6.09.32.31,1.02.92,1.81,1l-5.23-6.15c-.65.02-.97-.72-1.32-1.15l-2.75-3.41c-.64.27-.53-.43-.67-.73-1.9-.75-2.33-2.35-2-4.47l1.52-9.75c.44-2.82-.83-5.5.38-8.05.06,2.65.67,4.97.73,7.48l.27,11.02,1.49-7.72c.84,2.68,1.04,5.18,1.64,7.64.48,1.96.04,4.1.75,6.41,1.38-1.3.18-3.47.99-4.72.43-7.93.41-8.86-.31-17.46,2.03,4.46,2.51,9.07,3.77,13.48.14.48.28,1.18.13,1.69.89.12.33,1.19.41,1.77.19,1.33.07,2.63.05,3.96h.57c.98-1.39.42-3.39.54-5.08.49-6.55-.61-12.84-1.64-19.67,2.44,5.96,3.61,12.18,4.92,18.29.79,3.71,1.72,7.29,2.13,11.12.56-1.96.36-3.53.42-5.13.13-3.91.42-7.97-.31-11.92-.27-1.45-.74-2.98-.03-4.26,1.45,5.58,2.29,10.83,3.16,16.1.39,2.38.53,4.69.73,7.49.82-1.54.19-3.12.5-4.66.14-.67-.67-1.96.32-2.29-.16-.45.04-.69.05-1.11.06-5.75-.68-11.27-1.66-17.32.93,1.25,4.53,14.5,4.62,15.62.01.18.15.36.06.54.56-.16.43.31.49.64,1.15,4.61,1.78,9.24,2.66,14.29.25-4.08.33-8.11.32-12.17-.02-4.73-1.12-9.3-1.61-14.45,2.2,4.49,2.84,9.3,4.13,13.91,1.65,5.92,3.06,11.85,3.28,18.44.71-1.71.57-3.51.57-5.21-.19-.28-.18-.64.27-.57-.37-.52.07-1.17.1-1.72.33-6.92-.52-13.53-1.67-20.75,2.21,5.47,3.37,11.07,4.62,16.7.45,0,.39.23.42.62l.21,2.29c.87.09.34,1.14.5,1.72,1.05,3.8.81,7.57,1.57,11.97,1.44-3.45.39-6.63.8-9.67.8-5.88-.34-11.58-1.16-18.24,2.24,5.77,3.42,12.06,4.52,18.29.16.88,2.65,16.25,1.09,15.16.29.21.48.43.88.28.47-.17.18-.59.23-1.15l.7-7.43c.38-4.06.62-8.19.38-12.7-.1-1.92-1.16-3.93-.07-5.75,1.11,6.04,1.88,11.63,2.48,17.32.43,4.08,1.43,8.08,1.16,12.65,1.21-.89.3-2,.55-2.94,1.62-6.05,1.19-12.31,1.33-19.03,1.77,5.3,1.99,10.77,2.62,16.16.15,1.3.25,2.7.19,4.01.46-.05.46.24.28.57.58,5.15-1.09,6.24-.09,8.64.34-1.26.69-2.03.83-2.91,1.05-6.72,2.25-13.22,1.73-20.09,1.48,3.07,1.65,16.81,1.58,19.52l-.25,8.72c.78-2.63,1.67-5.13,2.1-7.71.2-1.19,1.79-13.63.83-13.05.41-.25.77-.92.79-.08l.42,12.58c.15,4.59.51,8.99-.29,13.98,1.87-3.92,2.04-8.06,2.34-12.13l.73-9.86c.89,2.74,1.23,5.4,1.78,8.09.12.58.49,1.11.35,1.71.9.11.4,1.21.52,1.81,1.04,4.98.93,8.98,1.98,14.33.58-1.92.21-3.85.29-5.78.33-8.7.3-11.56-1-20.69,1.81,3.81,3.06,7.68,4.44,11.53.05.14-.06.34-.03.49.36-.26.55.08.6.37.06.31-.05.61.03.88.98,3.48,1.92,6.93,2.62,10.9.48-5.99-.56-11.91-1.54-17.77-.28-1.67-1.42-3.47-1.43-5.31,0-.43-.2-.7-.32-.99l-3.61-9.5c2.28,2.54,4.17,5.31,5.26,8.36.82,1.06,2.02,2.51,2.43,3.96.05.16.03.41,0,.57.5-.12.42.29.57.57.41.79-.14,2.61,1.71,2.94l-4.64-13.19c-2.17-6.17-6.75-11.24-10.83-16.76,4.78,4.21,9.07,9.05,11.95,14.49-.12.74.6.52.98-.15-2.22-2.73-3.12-5.9-4.87-8.51-3.61-5.39-7.81-10.33-12.72-14.79,5.11,3.24,10.06,6.74,13.36,11.41,5.11,3.47-11.4-14.96-11.56-14.95-.4.23-.86-.11-.63-.56-.65.18-1.12-.78-1.21-1.21l-12.3-9.38c5.17,1.67,9.77,4.75,14.14,7.73l5.65,3.85c-6.03-7.51-13.5-13.15-21.64-18.89-19.08-13.47-40.01-22.72-63.05-26.83l-5.19-9.18c-.75-1.32-2.32-2.42-3.45-3.29,2.02-.35,2.71,1.82,3.88,2.56,1.99,1.27,3.47,3.16,5.21,4.77.06-.19.09-.41.08-.62-.04-.59-.92-.74-.47-1.79.5.41,1.12.66,1.23,1.16.64.01.57-.4.24-.88-1.26-1.25-1.68-3.32-2.74-4.31l-5.31-4.96c2.68.71,3.96,3.09,5.79,4.45,3.12,2.32,6.21,5.19,8.59,8.57.78,1.11.65,2.81,1.79,3.56.47-2.38-1.87-3.25-1.75-5.18-1.09-.75-1.77-1.86-2.67-3.82,1.21,1.04,2.05,2.65,3.21,3.78,1.65,1.6,3.1,3.28,4.53,5.78-1.2-4.75-4.1-8.69-6.8-12.74-1.71-1.56-3.99-3.2-5.48-4.94,3.07.45,4.27,3.31,6.07,4.35,4.97,2.88,8.59,7.27,12.82,11.6-2.61-4.74-5.87-8.64-8.87-12.77-1.78-2.45-4.69-4.2-6.75-6.35,3.15.55,4.79,3.62,6.92,4.87,5.42,3.16,9.9,7.66,13.95,12.42-2.48-5.45-5.85-9.63-9.04-13.98-1.59-2.17-4.26-3.62-6.07-5.63,3.13.63,4.72,3.32,6.79,4.67,5.88,3.83,10.89,8.75,16.15,13.83-3.03-5.5-6.49-10.47-10.51-15.02-2.42-2.74-5.58-4.87-8.51-7.08-.29-2.06,10.64,7.21,8.99,6.17,5.83,3.65,10.82,8.47,15.76,13.65-2.14-3.73-4.47-7.04-6.87-10.35-.15-.2-9.24-10.37-9.22-8.83-.03-2.47,10.37,7.66,10.29,7.6,3.87,3.08,7.57,6.37,10.82,10.45-2.98-6.34-7.26-11.49-11.42-16.78-1.64-2.08-4.36-3.5-6.17-5.43,2.65.3,4.27,2.86,6.22,3.88,5.98,3.11,11.26,7.74,16.09,13.06.9.99.54,2.81,2.46,2.84l-5.93-11.36c-.55-1.06-4.49-5.78-6.37-7.38-1.05-2.24,8.81,7.56,6.86,6.14,5.61,4.08,9.51,9.88,13.74,15.8-1.18-4.32-4-7.39-5.6-11.1-.34.21-.51-.13-.64-.32-.26-.39-.2-.68.11-.88-4.04-4.77-7.64-10.07-12.83-14.02,1.61-1.14,1.53,1.07,2.17,1.4,4.43,2.27,8.07,7.05,11.62,10.36,5.01,4.67,9.8,9.6,13.7,16.04-1.97-6.53-5.54-12.42-9.04-18.29-1.64-2.75-4.41-4.68-6.94-8.08,3.16,1.65,5.44,4.61,8.11,6.96,7.03,6.21,12.55,13.74,17.6,21.88l-3.84-10.48c-.46.29-.72-.31-.57-.65.18-.43-.36-.63-.1-1.03-.43.27-.46-.33-.57-.62-.08-.23-.21-.32-.03-.57-.4.11-.46-.28-.55-.57-.06-.21-.27-.36-.03-.57-3.03-5.08-5.83-10.42-10.3-14.74.71-1.43,11.77,12.38,12.12,13.02.3-.06.48.12.59.3.15.26.28.64.05.84,4.57,5.13,7.8,11.3,11.11,17.93-.1-3.79-2.61-6.81-3.23-10.42-.48.21-.51-.36-.52-.66,0-.2-.06-.37-.01-.57-.3.13-.5-.08-.54-.27-.05-.29.09-.6-.08-.84-.14-.21-.24-.36-.03-.57l-7.33-13.71c3.41,3.59,6.36,7.33,9,11.31.47,0,.73.24.79.68.13.86,1.09,1.35,1.11,2.24.34-.24.44.16.57.35.22.34.31.6.07.84,3.87,4.25,5.61,9.87,8.48,15-.91-3.43-1.58-6.98-2.81-9.98-2.15-5.21-4.31-10.39-7.7-15.15,1.84-.25,8.67,12.47,9.3,13.54l5.81,9.85c.5-1.7-1.96-6.75-.87-9.31.8,1.43.47,3.15,1.61,4.48,1.68,1.97,1.73,4.76,2.57,6.96.61,1.6,1.1,3.28,1.73,5.28.32-5.6-1.93-10.84-3.27-16.23l-3.85-7.3c-.67-1.26-2.5-2.12-1.61-3.51,2.6,3.61,5,6.79,6.94,10.26.24.43.71.75.75,1.27.5-.15.51.27.67.58,2.6,5.02,5.56,9.72,7.86,14.99-.55-2.67-.83-5.39-1.63-7.62-.45-1.26-5.67-14.78-7.82-15.56,1.46-.76,1.73.86,2.41,1.82,3.72,5.23,7.33,10,9.89,15.38.5.09.59.29.74.74.61,1.94,1.89,3.68,2.79,5.7.52,1.17.14,2.74,1.72,3.45-1.51-5.54-3.43-11.1-5.72-16.51-1.75-4.14-4.4-7.99-6.86-11.92,3.73,2.76,6.14,6.78,9.11,10.04ZM64.43,178.16s-.05.07-.07.11c-.32-1.63,1.88-.4.07-.11Z" style="fill:#231f20;"/></g></svg>