<?xml version="1.0" encoding="UTF-8"?><svg id="Layer_2" xmlns="http://www.w3.org/2000/svg" viewBox="0 0 405.04 606.98"><g id="Layer_1-2"><path d="M196.68,569.04c-.31.33.33.39.36,1.05.24-.42.42-.79.5-1.08-.29-.13-.57.04-.86.03Z" style="fill:#231f20;"/><path d="M215.85,580.19s.05,0,.08,0c-.23,0-.23,0-.08,0Z" style="fill:#231f20;"/><path d="M197.04,570.09c-.05.1-.11.19-.17.29.06-.04.11-.08.17-.11,0-.07,0-.12,0-.18Z" style="fill:#231f20;"/><path d="M256.18,580.01c-.02-.08-.04-.17-.04-.26,0,.06,0,.15.04.26Z" style="fill:#231f20;"/><path d="M205.98,577.56c2.51-.95,7.06-3.65,9.93-3.63.22-2.4-12.4,3.49-9.93,3.63Z" style="fill:#231f20;"/><path d="M197.99,573.37c-.42-1.73,1.18-2.24,2.3-3.79.2-2.56-6.93,6.98-4.1,5.13.57-.97.87-.73,1.81-1.34Z" style="fill:#231f20;"/><path d="M119.25,284.35c1.14,1.21.66,3.12,1.5,4.59.59-2.37-.23-4.47-.93-6.28-.54-.07-.73.42-.56.85.08.2-.16.68,0,.85Z" style="fill:#231f20;"/><path d="M7.21,140.62c.79-.52,2.12-1.32,2.25-2.36-.85.3-3.05,1.15-2.25,2.36Z" style="fill:#231f20;"/><path d="M66.06,144.58c-.1-1.01-.66-.2-.9.03-.34.32-.25.74-.23,1.1h.57c.14-.43.51-.67.57-1.13Z" style="fill:#231f20;"/><path d="M45.69,191.55c.51-.51.37-1.32.67-1.87-.41.13-.58.4-.96.71-.5.41-.43,1.06.29,1.15Z" style="fill:#231f20;"/><path d="M37.3,154.8c-.84-.03-1.43.86-1.24,1.66.79.05,1.2-1.02,1.24-1.66Z" style="fill:#231f20;"/><path d="M233.6,236.03c.34.38.69.27.87.2.37-.15.07-.94.31-1.21-.11-.22-1.26.92-1.18,1.01Z" style="fill:#231f20;"/><path d="M338.24,185.32c-.1.91,3.34,6.51,4.43,7.46.24-1.27-3.31-7.19-4.43-7.46Z" style="fill:#231f20;"/><path d="M338.24,185.32c.08-.66-.28-1.83-1.14-1.7-.7.62.58,1.57,1.14,1.7Z" style="fill:#231f20;"/><path d="M88.08,135.81c-1.74,2.29-4.26,3.26-5.17,6.05,2.19-1.95,4.44-3.61,5.81-5.76.03-.12-.46-.52-.64-.28Z" style="fill:#231f20;"/><path d="M233.55,174.57c1.6-.9,2.42,1.08,3.41,1.74l5.11,3.38c-.84-1.24-7.97-7.87-8.52-5.12Z" style="fill:#231f20;"/><path d="M309.87,315.86c.01.06.03.12.04.18-.01-.08-.03-.13-.04-.18Z" style="fill:#231f20;"/><path d="M403.41,214.74l-7.31-11.82-7.57-9.82c6.29,5.51,9.7,11.84,14.03,17.58-.07-.38-.47-.54-.08-.89l-6.49-11.41c1.8,2.15,6.23,6.83,6.8,9.06,2.76,1.26-1.53-4.21-1.74-4.47l-5.33-6.74c-4.05-5.13-8.76-9.7-13.77-13.77-1.03-.84-2.82-1.32-2.77-3.15,8.18,6.49,16.19,13.37,21.86,21.86.47-.16.44.95,1.5.17l-8.29-10.99c-3.61-4.79-8.69-8.57-13.78-12.48-.88-.48-.19-1.84.69-.04,3.86,1.28,9.84,5.88,13.06,7.94-.25-.52-.46-1.18-1.08-1.62l-4.56-3.28c-.38-.27-.6-.22-.49-.76-7.82-5.23-15.81-10.06-24.48-14.03,9.5,2.52,18.77,5.65,26.67,10.75.77.5,1.88.74,3.2,1.92-.2-2.14-2.56-2.23-3.74-3.33l-2.83-2.63c-7.82-7.25-18.7-10.66-29.54-13.05.79-.85,1.89-.5,2.75-.23l16.01,4.99c3.9,1.22,7.33,2.78,10.66,4.43-.06-.58.26-1.03-.44-1.05l-7.93-4.82c-10.5-6.39-22.41-8.8-34.91-9.75,2.56-.66,5.19-.37,7.53.02,9.35,1.56,18.72,3.28,27.3,7.12-14.74-10.11-32.79-16.13-50.82-18.16-2.97-.33-6.05.6-9.04-.3,3.2-1.67,5.87-.35,8.43-.87.33.25,1.28.07,1.01-.5-12.79-1.73-25.4-1.67-37.75-.06-.2.07-.41.09-.61.07-11.16,1.69-5.99,1.68-10.91-.67-6.78-3.24-13.16-6.26-21.05-7.87.7-1.05,18.63,3.92,20.16,3.88,1.58-.04,3.15-.5,4.32.69.41-.35.79.08,1.21,0,.31-.06.86.03.65.49l5.74,1.6-12.61-8.36c-2.11-1.4-5.27-1.58-7.39-3.22,3.02-.58,5.46,1.95,7.97,2.18,5.48.5,10.1,4.3,15.29,4.4-3.68-2.1-7.44-3.73-11.4-5.53,4.7.56,9.04,2.22,12.6,4.62,1.13.76,2.57,1.12,3.76,2.23,1.21-2.01-3.64-2.03-3.28-3.65-1.51-.02-2.49-1.3-3.83-1.89,1.48-.29.87-.79.33-1.15-.25-.17-1,.05-.99-.74,2.59-.05,4.31,1.1,6.24,1.61.78.21,7.26,2.18,7.01,2.35.18-.12.28-.31.4-.59-10.41-5.59-17.88-9.99-29.06-12.69,1.91-.93,3.55.21,5.17.74,8.67,2.83,17.24,5.24,25.61,8.83.56.24,1.15.29.99.92.53.09,1.04-.12,1.87.75.77-.77-.35-.93-.17-1.53-.31-.42-.77.33-.83.13-.08-.3-.63-.28-.91-.46-6.52-4.04-13.03-7.75-20.3-10.3-3.73-1.31-7.53-1.43-10.83-3.46,12.34,2.25,24.08,6.81,34.58,13.1.23-.02,2.31.3,1.13-.57-.37.08-.65-.19-.57-.57-1.48-.06-2.93-1.32-3.96-2.26-.73,0-1.63-.22-1.73-1.1-.2.03-.36.05-.51-.11-.48-.51-1.62-.17-1.76-1.07-.43.09-.82-.3-1.04-.58-.38.11-.94-.03-.67-.52-.14.04-.31,0-.45,0-7.54-4.28-15.72-6.72-23.7-8.99,9.41,1.06,17.88,3.4,26.01,6.16,2.29.78,5.95,1.49,7.87,2.78.28.14,1.02-.11,1.07.52.38-.3,1.25,0,1.2.52,1.67-.05,2.52,1.74,4.43,1.87.09-.67-.77-.79-.52-1.27-.07,0-.28.08-.7.29-5.32-3.96-10.8-6.87-16.48-10.32,6.7,1.73,15.29,5.87,20.62,8.44l2.27,1.1.81.59c.36.26.95-.12.86-.57-2.59-1.57-5.23-3.18-8.02-5.13-7.85-5.5-16.3-8.63-24.94-11.89,12.89,2.94,25.46,6.96,36.96,12.57,1,.49,2.19.72,3.45,1.91.83-.81-.29-.91-.12-1.51-.52.27-1.09-.1-1.62-.53-3.56-2.9-7.45-4.78-10.9-7.91,5.01,2.25,9.84,4.08,14.14,6.8-1.01-.64,3.22,1.17,3.09,1.2.26-.06.29-.29.47-.6-2.4-.78-4.08-2.87-6.38-4.6-7.14-5.38-15.14-8.24-22.71-12.49,10.89,3.64,21.46,7.72,31.16,13.09,1.49.82,3.38,1.28,4.93,2.57.5-.95-.47-.93-.32-1.4-1.92-.63-3.45-1.99-5.3-3.21l-9.9-6.52c-.26-.17-1.05.21-1.22-.08-.15-.25-.86-1.04-.09-.96,6.17,2.68,14.82,5.75,19.42,8.91l.95-.36c-4.95-4.13-10.03-7.68-15.99-10.52,3.5.09,5.66,2.68,8.77,3.73,5,1.68,9.84,3.24,14.18,5.53,1.02.54,2.09,1.06,3.5,1.97.77-.66-.21-.8-.16-1.33l-2.28-1.11c-8.73-4.23-16.52-9.99-25.02-14.81,10.7,4.05,20.81,8.84,30.74,13.7.87.42,1.8.97,2.78,1.08-8.54-7.71-17.53-12.22-27.21-17.7,10.58,4.49,20.78,9.6,30.57,15.34,1.02.6,2.89,1.59,4,1.18-.63.25-1.12-.08-1.5-.64-1.05-1.56-2.75-2.4-4.25-3.76-4.44-4.03-9.11-6.88-14.22-9.48,2.21-.67,3.58,1.25,5.23,2.07,6.03,2.98,12.18,4.79,17.61,7.85-3.28-1.85,2.65,1.06,4.81,2.29.17-.11.29-.3.29-.53-8.24-5.53-13.13-9.58-22.78-13.49,8.84,2.08,17.13,4.88,24.98,8.43,2.13.96,4.46,1.5,6.62,3.07.36-1.22-.72-.84-.98-1.29-.28-.1-.88-.21-.56-.65-1.23-.56-2.33-1.47-3.42-2.28-6.01-4.51-12.63-7.75-19.89-10.09,7.46.75,14.63,1.74,21.05,4.43.55.23,1.45.67,2.4.25-4.15-2.22-8.14-4.63-12.54-5.96-.29-.03-.71.04-.61-.45-.19.11-.39.16-.57-.01-.71-.03-.71-.83.02-.68.56.04,1.29.4,1.72-.37-1.67-.07-2.77-.51-3.99-.76-8.26-1.68-16.62-3.03-25.57-2.79,1.91-2.14,4.5-.75,6.84-.66,6.09.24,11.9-.35,17.55.72,1.02-.26.29-.51-.39-1.02-2.04.4-3.97-.88-5.83-.99-4.92-.3-10.05-1.01-14.99-.58l-5.71.49c-2.21.19-4.12,1.46-6.52.67,7.64-2.1,19.21-3.46,27.27-1.9-5.19-2.59-11.88-2.26-18.13-2.49-12.42-.45-24.29,2.67-35.85,7.41,9.86-6.16,21.86-8.3,33.53-8.85,1.02-.05,2.27.37,3.46-.64-6.97-.29-14.11.18-21,1.57-8.13,1.65-16.02,5.22-22.63,10.09-.69.51-1.19,1.77-2.67,1.91.54-2.09,2.84-2.57,4.42-3.83,4.37-3.48,14.52-10.1,19.29-9.81-.09-1.99-15.25,3.8-16.97,4.56-4.22,1.87-7.68,4.99-12.12,7.33-.8-.35,6.49-5.45,9.59-7.04-17.09,4.58-32.64,15.71-46.82,26.87-7.66,6.03-13.46,14.47-20.59,20.97l-5.32-.25c2.38-1.79,5.05-2.54,7.87-4.06-6.28.63-11.15,4.39-17.17,7.11,5.49-4.87,12.33-7.29,18.88-10.16-6.06.35-11.27,2.48-16.23,5.31-.46-1,.47-1.34,1.11-1.23,6.23-4.56,13.08-7.7,20.79-9.02.43-.15.7-.92.23-.78-.95.28-.93-.04-.84-.22.16-.32.78-.3,1.08-.45,3.53-1.75-6.3-.19-6.53-.1-2.24.96-4.26,1.66-6.5,1.82,1.99-1.59,4.43-1.64,6.72-2.39,3.51-1.15,6.88-2.05,11.04-2.27-4.66-1.6-8.96.38-13.82,1.26,5.43-2.86,11.21-4.53,17.13-5.68.13-.19-.05-.34-.06-.51-6.36.39-11.7,1.03-18.06,2.18,5.82-2.55,11.23-4.91,16.94-6.51.38-.11.73-.1,1.12-.15.18-1.05,1.52-.42,2.26-.57.06-.42.1-.6.28-.56.73.18,1.18-.51.53-.55-.66-.04-.98-.38-1.27-.15-3.52,1.28-7.31,2.23-11.63,2.25,4.07-1.89,7.98-3.84,12.12-4.35-8.32-.3-16.59,4-24.96,6.87.52-1.54,2.27-1.37,3.59-2.21,6.87-4.33,14.65-6.07,21.9-8.66-.04-.28-.13-.61-.57-.57-.34.93-2.41.93-2.82.07-.23.05-.44-.05-.65-.05-9.79.08-18.83,3.62-27.19,9.08-1.22.8-2.11,2.43-4.04,2.02,2.65-2.16,5.29-3.94,8.1-5.46,7.27-3.95,14.53-8.1,22.47-10.67.39-.67,1.04-.93,1.89-.67,2.8-1.62,6.07-1.92,9.08-3.15-1.76-.44-3.33.03-4.74.37-6.41,1.57-13.01,2.61-19.2,4.98-.15-.86.7-1.07,1.44-1.44,5.7-2.79,11.36-5.2,17.28-6.77.4-.11.77-.24,1.2-.19-.08-.32.14-.5.37-.74.34-.35.46-.15.76.04,1.21.47,2.26-.53,3.46-.71-.9-.42-1.72-.48-2.28-.3-2.8.92-5.89,1.21-9.11,1.85-3.6.71-6.53,2.69-10.31,3.11,4.06-2.44,14.4-6.1,19.31-7.54,1.93-.56,3.75-1.31,5.79-1.59-1.57-1.03-2.94-.01-3.99.07-13.62,1.01-26,7.02-36.79,13.9-.61.91-1.53.27-.63-.55,6.55-5.01,29.36-14.77,36.83-16.59.33-.08.67-.1.57-.57-1.72-.5-3.33.69-5.09,1.04-5.83,1.18-10.91,3.09-16.83,5.18,4.61-2.93,15.8-8.67,21.92-10.18.37.02.62-.38.87-.56.54-.39-.02-.58-.38-.63-.65.65-1.61.68-2.54.9-7.24,1.7-13.74,4.27-20.71,7.03,6.21-4.02,17.24-9.09,23.92-11.31-.01-.18-.02-.35-.01-.53-9.05,1.86-17.34,5.99-25.46,10.19-.71.51-.94,2.02-2.26,1.7-.1.98-1.67,1.66-2.84,1.57.58-.82,1.87-1.81,2.84-1.57.14-1.36,1.63-1.2,2.26-1.7,5.91-4.59,12.97-7.94,19.61-12.19,1.71-1.1,3.76-1.35,5.16-2.87-2.57.05-4.55,1.47-6.82,2.34-4.66,1.78-8.84,3.95-13.13,7.35-.3-1.98,2-2.02,2.99-2.69,6.18-4.12,12.59-8.67,19.85-10.56-.18-.61.23-.64.68-.66.64-.28,1.26-.67,2.04-.61.75-.61,1.93-.72.53-1.19-1.31.45-2.63,1.23-4.18,1.52-10.7,2.02-19.36,7.78-28.57,13.38,6.39-5.96,24.64-16.48,32.86-18.6.32-.42,1.13-.58,1.82-.9-.32-.58-.93-.26-1.37-.48-1.32.45-2.63,1.16-4.13,1.46-5.66,1.13-10.69,3.59-16.06,5.95,6.14-4.56,12.75-8.26,19.65-11.02.21-.09,6.18-2.44,2.57-2.06-9.17,3.24-16.67,4.86-24.92,11.56-1.11.9-2.16,2.08-3.5,2.16.4.13-.91,1.1-.89,1.12-.47-.48-.31-.71-.22-.88.17-.35.81-.16,1.11-.23.21-1.23,1.76-1.47,2.76-2.29,7.69-6.35,16.27-11.86,25.53-14.68.03-.36.13-.65.57-.57,1.01.32,1.61-.81,1.63-.87.1-.38-.9-.29-1.09-.26-.6.63-2.13,1.18-3.17,1.4-8.08,1.77-14.74,5.57-21.88,9.86,7.55-6.26,16.03-11.56,25.08-14.66.7-.24,1.15-.74,2.34-.71-.47-.63-1.15-.59-1.68-.54-6.04,2.15-10.5,3.1-17.02,6.27,4.44-3.56,8.89-7.11,13.97-9.49.24-.79,1.32-.86,1.93-1.19.13-.23.37-.35.06-.61-2.3-.78-3.44,1.61-6.43,1.63-.68-.49,7.58-3.5,7.72-3.11,1.13-1.28,2.72-1.88,4.18-2.88-1.93.35-3.64.55-5.03,1.07-4.87,1.85-9.12,4.84-14.08,7.69,1.3-2.12,9.99-9.13,11.61-9.85.45-.2.69-.82,1.23-.75-.3-.4.18-.38.36-.55.34-.33.53-.55.8-.16.03-.77,1.44.11,1.12-1.42l-9.55,4.4c-5.75,2.65-10.15,7.59-14.76,12.45,3.41-5.25,6.74-10.53,11.32-14.58-2.33.69-5.99,2.98-7.97,5.09-5.49,5.82-10.25,12.18-13.69,19.31-1.08-1.03.57-1.84.57-2.57,0-1.92,1.56-2.82,2.48-4.36,2.2-3.65,6.13-12.61,8.37-13.5.37-1.43-.56-1.47-.89-.18-3.04,2.46-5.03,5.72-7.56,8.48.24.62-.31.62-.65.85-3.98,6.47-7.55,12.97-9.92,20.34,0-3.12,4.82-20.59,6.65-21.62-.27-.17.11-1.38-.41-1.14-2.73,4.31-4.54,8.77-6.65,13.09-.52,1.05-.32,2.36-1.22,3.37-.9-.75.22-1.47-.52-2.36l-3.52,14.24c-.09-6.09.69-11.78,2.13-17.07.1-.35-.05-.77,0-1.13.08-.37-.19-.65-.57-.57-1.98,6.27-3.52,12.74-4.83,19.3l-2.13,10.73c-1.56-2.37,1.53-4.26.45-10.27-.87,4.3-2.54,8.25-4.2,12.52-.65,1.66-.6,3.65-2.32,4.57l2.98-9.67,2.12-8.58c-.12-.38-.38-.69-.65-.97-.86,1.4-.49,3.31-2.12,4.44,0-2.63,1.12-4.72,1.54-6.84.43-2.15.61-4.49,1.93-6.76-.03-.8-.45-1.55-.69-.55-.39.53-.4,1.49-1.13,1.7-1.22,2.73-2.33,5.64-4.06,8.56-2.96,5-3.95,10.87-7.31,14.94,2.96-7.06,5.89-15.12,7.87-21.84,0-.25.03-.69.09-1.02.12-.59-.37-1.63.45-1.76l1.13-7.45c-.56,1.46-1.35,2.67-1.53,4.06-.05.39-.14.81-.65.64-1.58,5.22-3.67,10.29-6.14,15.32,1.5-6.04,3.2-11.45,3.79-17.16.12-1.18-.07-2.41.19-3.84-.6-.13-.91.11-.68.44-.84,5.35-2.92,10.5-4.56,15.99.26,1.25-.24,1.17-.95.02,1.54-3.38,1.9-7.22,2.45-10.96l.8-5.49.17-8.37c0-.28.88-.63.45-.99-.23-.2-.38-.83-1.25-.81.66,4.27-.54,7.98-1.32,11.87l-2.71,13.63c-.87-1.15,1.07-10.59,1-13.59-.15-6.79-.77-13.54-2.2-20.53-.59,2.5-.19,4.97-.43,7.43-.06.66.55,1.52-.4,1.77-.42,4.36-.27,8.77-1.54,13.06l-.17-13.2c-.38.03-.54.14-.61-.23-.07-.34.08-.63.05-.88-.37-3.07-1.15-6.04-1.98-9.02-.42.98-.42,1.79-.34,2.25.56,3.18.93,6.45.27,9.7-.29-3.55-1.19-6.55-1.82-9.65-.08-.39-.58-.73-.26-1.15-.48.1-.4-.32-.47-.61-.59-2.4-1.42-4.7-2.45-7.36-.66.5-.3,1.18-.36,1.75.28-.08.54.11.57.3.04.3.01.61,0,.84-.03.57.51,1.15.12,1.65.83.12.31,1.18.47,1.74.12.41.22.87-.08,1.19,1.35,1.42.89,19.62,1.76,18.92-.28.23-.47.4-.87.28-.52-.16-.1-.63-.2-1.16l-2.29-12.39c-.17-.93-.94-1.78-.64-2.78-.5,0-.67-.39-.44-.81.22-.39-.23-.53-.16-.93-.72-.53-.65-1.63-1.01-2.4-.14-.29-.15-.7-.09-.95-.33.23-.5-.12-.55-.38-.06-.28.09-.59-.06-.84-.13-.22-.15-.33-.02-.57-.3.07-.48-.13-.49-.31-.01-.25.03-.63-.05-.82-1.09-2.26-1.45-5.12-3.35-6.79,1.07,3.73,2.48,7.43,2.78,11.37.04.55.56,1.12.18,1.64.34-.08.4.15.44.32.07.25-.09.64-.1.82-.03.61.07,1.63.11,2.26.63,1.2.88,2.73.26,3.98-.89-1.24-.93-3.23-1.39-4.1-.11-.22-.12-.57-.07-.96-.32.23-.49-.12-.52-.35-.05-.3.07-.59-.05-.83-.33-.66-.52-1.63-.55-2.28-1.95-3.84-3.81-7.78-5.47-11.75-.63-1.5-2.32-2.94-3.24-4.12-.59.57-.76.85-.44,1.13,1.59-.04,4.19,7.85,4.61,9.03,1.35,3.75,2.78,7.61,3.4,12-1.32-3.58-3.39-6.64-4.35-9.83-.4-.16-.44-.7-.62-.95-1.59-2.24-4.73-6.42-6.29-9.02-.11.73-4.86-4.51-4.22-4.56-.28.02-.74.41-.8.68,3.73,3.82,5.97,8.86,8.59,13.84.4.75,1.66,1.25.62,2.48-2.75-5.55-6.87-10.17-11.04-14.73-1.99-2.18-5.16-3.37-7.07-5.99l1.52,3.06c3.32,2.68,5.89,6.85,8.15,10.55l-10.91-8.05-9-4.41c-.46.96.68,1.07.41,1.47,3.72.56,13.22,8.79,15.63,11.2-5.99-3.66-11.6-6.44-17.39-8.95-1.96-.85-4.42-1.14-6.81-1.81,1.13,1.15,2.43,1.38,3.66,1.93,5.71,2.58,11.01,5.92,16.59,9.54.47.31.89.05,1.08.44.21.43.15.45-.09.62,1.2-.84-18.37-5.61-19.5-5.69,1.22,1.96,4.17,2.07,6.22,3.35.22.14.87.05.62.55.46-.26.83.36,1.06.59,5.87,2.61,12.14,5.85,17.51,9.74-6.24-2.79-12.5-4.73-18.62-6.9-1.47-.52-3.27-.8-5.18-.99,1.65.77,3.1,1.68,4.66,2.26,1.76.66,3.52,1.06,5.06,2.18,1.05.76,2.9.68,3.95,1.61.22.2.96.11.65.66.22-.03.39.1.58.17,5.31,2.12,10.13,5.29,15.36,8.12,1.15.62,2.98.8,3.06,2.76-5.92-4.15-12.64-6.01-18.99-8.78-.57.4-1.16-.29-1.75-.09-.34.12-.69.02-.61-.42-.22.17-.36.12-.57-.03-.22-.15-.53-.03-.83-.07-.21-.03-.58-.12-.35-.47-.44.32-.73-.2-1.13-.28-2.27-.44-4.44-1.33-6.75-1.52,2.09,1.66,4.96,2.05,7.36,3.35.24.13.86.05.62.55.4-.27.96.23,1.06.57.22-.2.51-.13.86.05.17.09.59.15.35.51.71-.22,1.06.54,1.62.75,4.2,1.61,8.09,3.98,12.51,6.02,2.17,1,4.51,1.46,6.17,3.49-7.46-3.2-15.17-6.02-23.17-7.92-1.75-.41-3.6-.89-5.77-.97,5.52,2.59,10.89,5.06,15.87,8.36.34-.13.94-.02.75.5.52-.1,1.16.35,1.59.6l8.98,5.24c.69.4,2.5.59,1.98,1.95-4-2.57-7.89-3.77-11.54-5.47-.61-.28-1.61-.12-2.24-.55-.22-.15-.54.01-.83-.05-.22-.05-.58-.15-.35-.49-3.81-.52-7.13-2.57-11.37-2.87,1.57,1.38,3.53,1.38,5.2,2.16.26.12.85.08.61.56.61-.21,1.08.49,1.64.57.29.04.84.1.62.55.62-.24,1.1.48,1.65.58.29.05.84.12.62.57,3.57,1.12,6.6,3.52,9.74,5.44,4.58,2.8,9.52,5.32,13.48,9.4-5.06-2.65-9.22-6.08-14.27-7.99-3.62-1.37-7.43-2.36-11.15-3.4-.78-.22-1.93-.46-2.38-1.13-.46,0-.99-.25-1.73.25.69.66,2.02.5,2.31,1.52,1.83.27,3.58,1.1,5.08,2.11.23-.05.32-.11.57.02.25.13.85.09.62.57.41-.23.88.17,1.04.57.24-.16.53-.12.87.05.2.09.61.2.37.55.62-.12,1.03.54,1.62.55.38,0,.67.23.57.65.51.03.84.5,1.26.72,5.95,3.02,11.7,6.59,16.85,11.27-7.18-4.57-14.47-7.63-22.07-10.33-.75.05-1.4-.06-1.75-.48-.29-.35-1.39,0-1.63-.61-.73.12-1.92.02-2.3-.62-.99.15-1.85-.48-2.81-.56.06,1.17,1.89,1.47,2.86,1.9,5.13,2.24,10.09,4.79,14.75,8.24-5.42-2.14-10.55-3.84-15.75-5.55-.32.22-.77-.36-1.33.23,1.6.53,3.14,1.11,4.62,1.85.39.19.74.24.59.65,7.01,2.67,13.83,6.56,19.86,11.33-6.99-2.95-13.43-8.3-20.41-8.38.1.08.14.21.08.4.3-.27.35.13.52.22,1.5.58,3.01,1.21,4.54,2.06l11.8,6.61c-1.39.73-2.35-.5-3.42-.95l-13.18-5.54c-.32.2-.57-.12-.75-.05-.2.08-.37.42-.27.65,7.79,3.29,14.72,8.57,21.4,14.06.63.51,1.99.67,1.58,1.96-4.71-3.51-9.52-6.6-14.93-8.95-2.23-.97-7.69-5.05-9.04-6.45-.85-.88-1.88-1.88-2.92-2.27,1.54,2.86,4.07,5.21,4.79,8.57-2.62-3.01-4.04-6.31-6.48-8.77-7.67-7.73-16-14.63-25.9-20.11-.39-.22-.46-1.15-.96-.86-.91.52.15.44.25,1.18,4,2.44,7.44,6.1,10.28,10.19-4.41-3.45-8.3-6.79-12.63-9.62-2.07-1.35-4.56-2.81-6.79-2.91,6.38,3.43,11.71,8.45,17.07,13.52-1.56.82-1.45-1.1-2.17-1.54-5.73-3.5-10.74-7.64-16.42-10.21-7.08-3.21-14.68-5.29-22.68-6.58-.76-.33-1.28-.21-1.24.54,6.59,1.19,13.06,4.08,18.84,7.68-6.79-2.48-12.93-5.51-19.87-6.5-3.66-.52-7.43-.01-11.41-.22.09.91.65.6,1.14.59,2.43-.42,19.43,3.96,19.69,5.33-7.41-2.24-13.92-3.19-20.85-2.53-3.1.3-6.41.15-9.03,1.72,7.99-.56,12.54.83,20.42,2.53-1.21.59-2.55.35-3.85.05-8.39-1.9-14.77.39-17.7.24-.76-.04-1.61.97-2.91.75,1.34.78,2.87.52,4.04-.18l16.47.17c-1.56.91-3.29.13-5.17.47-3.54.64-6.84,2.4-10.1,2.75-.16.49-.57.71-1.21.58l-1.13,1.13h1.7c-.08-.41.19-.58.57-.57.36.01.78-.23,1.08-.11,4.79-1.46,13.84-1.77,19.9-1.13-7.2.84-13.75,3.7-20.41,6.33-.98.39-1.93.87-2.91,1.64,1.82-.08,3.25-.57,4.61-1.05,7.68-2.71,16.25-4.29,25.04-4.39-8.21,1.46-15.63,4.31-23.14,7.65-.71.31-1.62,1.27-2.48,1.91,4.17-1.49,7.98-2.29,11.99-2.95,5.49-.91,10.96-2.4,16.95-2.07-5.42,1.36-10.72,2.77-15.88,4.7-2.18.82-4.32,1.51-6.34,3.22,3.86-1.62,7.41-1.75,10.95-2.44,5.96-1.15,12.04-2.02,18.65-1.41-6.06.87-11.86,2.27-17.71,4.01-2.28.68-4.35,1.79-6.79,2.14,2,1.14,3.45-.1,5-.47,2.94-.7,5.81-.63,8.6-.9,5.17-.49,20.23-1.44,25.58.49-6.66.04-13.21.55-19.81,1.23-.71.07-1.56.27-2.27.42-1.15.25-2.25.62-3.46.6-.37,0-.7.68-1.04.15-1.05.87-2.71.89-4.01,1.12-1.32.23-3.24.02-4.02,1.84,2.42-1.31,4.74-.85,6.85-1.27,7.75-1.57,15.95-1.72,24.38-1.5-7.03.82-13.97,1.53-20.89,3.25-.22.29-.17.57-.66.52-.32-.04-.85-.09-1.13,0l-4.59,1.53c1.97.42,3.8-.11,5.16-.96.95.17,1.9.16,2.85.05,6.46-.74,12.96-1.26,19.86-.96-6.42.9-12.68,1.92-18.94,3.68-.5.14-1.29.62-2.06,1.22,4.73-.63,9.38-.92,14.11-1.17,6.87-.36,13.76-.55,20.97.02,2.06.16,4.11-.43,5.76,1.16-8.36-.41-16.07.11-23.86,1.38-.58.1-1.32.07-1.83.22-.64.18-1.64.35-2.17.61-2.75,1.35-5.86,1.47-8.61,3.43,5.21-.99,9.9-1.27,14.73-1.49l10.34-.46c3.35-.15,12.25.36,15.84,1.15l-19.28.44c-2.37.05-4.75.32-6.8.8-2.52.59-5.05.91-7.46,2.18l5.78-.39c-.98-.83,4.46-.54,5.66-.65,6.79-.63,18.06-.28,26.08,1.12-8.41.07-16.7.16-24.99,1.21-2.92.37-5.72,1.42-9.17,1.65-.34,1.19,3.92.1,7.52.07.72-1.21,2.63-.4,3.97-.39,10.55.09,20.83.57,30.68,3.66-8.3-.82-16.02-1.67-23.92-.9,1.08,1.71,2.3-.03,3.49.84-2.44.95-5.17.56-8,1.06-3.26.58-6.18,1.71-9.17,1.79-.97.03-2.01.95-3.31,1.11,2.66.15,5.25-.24,7.91-.42,4.99-.33,9.98-.25,15.38.27l-15.3,2.51c-.2.81.53.55.86.68.66.26,1.29-.5,1.84-.55l9.14-.74c9.02-.73,18.39-.11,27.28,2.3-8.48-.79-16.32-1.11-24.37.09.07.54-.27.55-.65.44-3.85.53-7.63,1.35-11.45,2.79,3.77.25,7.04.24,10.35.25,5.73,0,11.45.22,17.54.74l-17.58,1.28-14.22,2.79c10.74.21,21.1-.15,31.21,1.92,2.61.53,5.31.72,7.95,1.41-2.85.78-5.48-.45-7.96-.27-4.22.31-8.55.45-13.01,1.39-1.77.37-3.26.28-5.11.28.02.89.83.45,1.15.56,2.49-.23,4.95.13,7.37.55l3.44.59c6.65,1.15,13.45,1.97,19.85,4.52l-22.17-3.26c-.34-.05-.76-.1-1.16-.13-2.82-.19-5.86-.21-8.46-1.18-1,.11-2.53-.27-3.98.4l11.29,1.99c.43-.03.62-.07.65.46,3.46.28,6.73,1.39,10.21,2.01l-12.04.87c-.15.17-.11.44,0,.62,4.62.24,9.4.52,14.03-.14.98.77,1.93,1.41.29.88-2.76-.02-5.18.84-7.36,1.53l16.41,1.99-16.7.45c-2.71-.32-5.36-3.18-7.75-4.23-9.46-4.15-18.45-9.04-28.86-12.33-13.15-4.15-26.59-8.2-39.1-7.38,3.36.25,6.94.73,10.46,2.49-3.8-.09-7.21-1.23-10.86-1.51-8.78-.67-17.56-.46-26.83.68-1.21-.21-1.11.66.16.5l12.98.02c-.03.47-.53,1.07-.81,1.04-.28-.03-.92-.9-1.4-.67-2.29,1.08-4.32.57-6.2.62l-5.14.14c-5.41.15-10.72,1.6-15.85,3.01.31.43.48.57.57.57,5.36-1.24,11.07-1.3,16.97-1.06l11.95.47c-11.18,1.25-17.71.83-29.45,3.77-.2.05-.41.17-.61.08.15.51-.26.42-.56.51.11-.03-17.12,5.6-13.01,5.74.2.23.37.02.57-.02-.13-.5.2-.54.57-.63,10.35-2.65,21.14-4.12,32.33-3.77-11.62,1.35-22.99,4.19-33.9,8.74-.22.09-.46.17-.7.12.14.49-.31.43-.57.57-1.42.75-2.9,1.33-4.59,2.41.24.63.75.38,1.16.49,6.81-4.26,15.31-5.56,23.78-6.65,2.58-.33,4.79-1.32,7.43-.55-6.98,1.24-11.3,3.11-18.75,5.49-4.48,1.43-8.18,4-12.33,4.92-.57,1.07-2.98,1.37-1.09,1.91,5.7-3.09,16.17-6.58,24.24-7.38-3.74,2.33-7.68,3.4-11.52,5.24-4.74,2.27-8.99,4.97-13.3,7.63-.27.64-.79.83-1.25,1.3-.95.94-2.66,1.19-2.84,2.64,5.69-2.83,11.71-7.82,18.03-9.63-.73.9-2.15,1.79-3.26,2.31-6.39,2.95-11.71,7.11-16.94,11.36.04,1.1-1.43,1.34-1.65,2.29,7.81-4.91,15.21-10.68,24.34-13.6-9.17,4.73-16.98,10.72-24.48,17.58.29.37.2.87-.36.64-.67,1.02-2.17,1.33-1.95,2.7,3.32-2.58,5.79-6.45,10.5-7.67-4.09,3.37-7.23,7.05-10.87,10.4-.79.73-1.05,2.31-2.82,3,1.1.81,1.74-.39,2.19-.66,5.49-5.86,12.49-10.5,19.71-14.71-5.9,4.97-11.05,10.16-15.62,16.54-.77,1.07-1.35,2.18-2.41,2.53l-2.38,3.06c2.02-.18,2.78-2.08,3.78-3.51,1.92-2.74,4.66-4.22,6.53-6.24,3.75-4.05,7.77-7.92,12.48-11.67.45-.35.44-.44.5-.95.04-.35.59-.52,1.09-.07-5.34,5.26-9.11,11.63-12.89,17.91.14.26.07.32-.03.57-.12.29-.15.9-.64.61-.43,2.52-3.02,3.99-3.05,7.08,2.36-3.69,4.37-7.23,7.02-10.52,4.56-5.65,8.62-11.81,14.19-16.93-5.13,6.94-9.06,14.24-11.89,22.11-.47,1.31-1.05,2.8-.91,4.63,1.48-3.24,3.24-5.96,5.05-8.81l7.78-12.23c.55-.86.94-2.25,2.47-2.17-3.95,5.05-5.85,10.81-8.27,16.32-.71,1.62-1.23,3.55-1.49,5.71,1.5-3.82,4.57-6.2,6.64-9.3l6.24-9.35c1.2-1.79,1.76-4.08,4.25-4.57-2.4,2.94-4.44,5.44-5.94,8.9l-2.91,6.7c-.37.84-.42,1.45-.84,3.39.92-1.88,2.56-3.25,3.65-5.02l3.57-5.81c.57-.86,1.22-.36.52.82-.45.79-1.74,1.44-1.03,2.32,1.83-1.28,2.99-3.39,4.3-5.21.3-.41.57-1.22,1.23-1.16-.02-.47.48-.47.64-.71,4.09-6.5,9.8-11.83,14.67-17.88.68-.85,1.53-2.33,3.19-1.89-7.05,5.69-10.95,14.51-16.14,21.09.25.19.21.36-.02.54-.57.46-.45,1.52-1.21,1.77-.3,1.94-2.76,2.7-2.68,5.16,1.11-2.1,3.21-3.57,4.36-5.31,8.09-12.24,19.34-22.63,30.35-31.77.45,2.11-1.76,1.06-2.05,2.4-10.32,9.34-18.47,19.87-26.61,30.53-.4.53-1.1,1.46-.71,2.65,2.56-4.14,5.77-7.46,9.32-10.49,2.15-1.84,3.51-5.02,6.61-6.28.35,2.2-2.32,2.19-2.79,4.42l5.04-4.2c-1.81,3.43-4.46,6.37-6.68,9.44.02.24.31.48-.03.82-.15.15-.29.4-.63.29-.07,1.68-2.48,1.92-1.96,4.22,1.37-2.95,4.27-4.37,6.03-6.44,4.18-4.93,9.95-10.18,15.65-14.78.03.25-10.68,11.14-10.65,11.95l.04,1.1c1.11-1.74,3.34-2.64,4.65-4.11,2.46-2.76,12.49-10.65,16.31-12.94l-12.01,12.02c-.06,1.44-1.55,3.04-2.77,3.87-.62.68-1.52,1.54-1.87,2.82l9.27-6.7c4.52-3.27,8.96-6.76,14.1-9.03-2.48,1.74-4.26,3.5-5.58,5.57-.47,1.71,5.7-4.85,5.38-3.98.12-.32,1,.21.73.35-1.09.55-2.05,1.15-2.89,1.98l-10.03,9.95-6.78,8.37,7.89-6.4c.39-.64,1.51-1.22,2.16-1.68,4.2-3.95,9.09-7.2,14.17-10.51,1.05-.68,1.75-2.43,3.66-1.79-2.81,1.58-5.06,3.55-7.53,5.87l-8.47,7.99c-.72.68-1.06,2.04-2.2,2.21.1.43-.06.92-.59.7-.6,1.43-1.88,2.45-3.51,3.52.38.67,1.19.63,1.35-.51,5.84-3.82,11.12-7.73,16.81-10.95-.11-.44.2-.6.57-.67.23-.04.32-.15.57-.01-.1-.4.27-.48.57-.57.39-.12.65-.5,1.1-.47-.22-.34.13-.48.33-.6.34-.21.61-.27.85-.06-.05-.32.37-.29.54-.41,4.84-3.47,10.15-6.4,15.82-9.07-3.19,2.16-14.04,13.16-15.76,14.04-.1.28-2.59,4.09-2.95,3.44-1.73,2.67-4.56,4.49-5.93,7.35,1.42-.71,2.35-2.09,3.83-2.69,0-.44-.07-.69.48-.77.24-.03.27-.19.52,0-.2-.49.34-.73.7-.41,7.95-6.54,21.16-16.02,30.56-18.79-12.09,6.33-17.37,9.19-27.82,20.53,8.76-2.96,14.47-8.85,23.24-13.07.2-1.49,1.82-.21.75.33-5.17,2.5-8.15,7.51-12.73,10.35-3.35,2.07-8.16,2.01-11.8,2.88.13.51-.28.44-.6.57-.71.28-1.68.54-2.37.48-1.34.89-3.44,1.11-4.92,1.68-9.61,3.71-19.05,7.55-27.87,13.56-8.31,5.66-15.55,12.34-20.2,20.84,1.28-.41,4.27-5.85,5.25-4.63-2.81,2.87-4.28,5.82-6.44,8.32-1.04,3.34-1.98.95-1.76,3.85.73-.05,1.8-3.41,3.4-3.96,0-1.34,1.27-2.15,2.26-2.83.24-.49.08-1.75,1.13-1.7-.4-.11.89-1.12.91-1.1.31.33.31.71.21.86-.23.33-.69.28-1.12.24.48.97-.75,1.31-1.13,1.7-.1,1.1-1.09,2.43-2.26,2.83,0,2.14-2.71,3.47-3.37,5.18-.87,2.27-2.47,4.03-2.97,6.8,1.91-1.15,1.84-3.18,2.94-4.61,3.08-4.01,6.2-8.12,10.41-11.78.32-.28.5-.5.35-.93-.07-.21.12-.39.8-.33.35.03.54.54-.53.8-3.4,4.83-5.72,9.81-8.16,14.53.05.25.27.46-.03.81-.17.2-.2.64-.55.38-.3,2.17-2.5,3.54-2.19,6.32,1.32-1.59,2.14-3.32,2.99-4.98,3.52-6.9,8.7-12.91,13.37-19.39,1.01-1.4,1.58-3.36,3.5-3.31-6.53,7.8-9.5,13.52-12.61,22.4l8.68-12.54c2.36-3.41,4.31-7.24,7.81-10.14-2.27,3.81-4.09,7.38-5.18,11.35-1.42,5.18-3.22,10.24-3.88,15.94,1.74-4.53,3.36-8.87,5.54-13.1.19-.38.11-.74.68-.64,2.06-5.15,5.49-9.63,8.59-14.49.62-.97,1-2.17,2.09-2.42-.4-.11.9-1.12.91-1.1.31.33.31.71.2.87-.19.3-.74.24-1.11.23-3.52,6.32-7.07,12.77-8.98,19.81-.85,3.11-1.46,6.22-2.05,9.88,2.44-6.33,5.33-11.86,8.95-17.17.12-.18,7.96-14.3,10-14.78,0-.37,0-.6-.01-.85-.01-.2.43-.3.74-.33.2-.01.42.3.19.55-.18.21-.53.57-.92.62-3.12,5.2-6.17,10.74-8.4,16.41-1.24,3.16-1.78,6.68-2.92,10.27,2.8-5.17,5.5-10.02,9.13-14.3,2.49-2.93,3.67-7.17,7.24-9.77l-5.55,11.06-4.04,11.4,6.82-10.37c2.68-4.08,9.52-12.77,13.06-16.39-2.56,2.91-9.69,15-10.73,17.57l-2.51,6.19c-.22.55-.69,1.11.16,1.12-.01-.26-.13-.94.36-.72-.07-.94.96-1.64,1.44-2.24.49-1.71,10.56-18.23,11.59-17.06-3.73,5.34-6.76,10.32-8.78,15.84,1.01-.6,1.85-1.48,2.17-2.06.9-1.65,2.18-3.06,3.39-4.52,3.89-4.68,7.37-9.78,11.95-14.19-3.5,5.24-7.18,9.85-10,15.2-1.26,2.4-2.04,4.82-4.81,5.75-1.04.76-2.52,2.15-3.82,2.6-.42.49-1.15,1.09-1.79,1.37-.4.17-.71.89-1.16,1.22-12.87,9.45-24.64,20.37-34.89,32.85-8.5,10.35-14.75,21.56-18.25,34.42.61-.21,1.03-.63,1.07-1.13,2.18-6.09,6.79-11.01,10.76-16.3.63-.84,1.07-2.31,2.48-2.19-4.99,6.5-8.57,13.8-10.93,21.37-1.55,4.97-2.05,10.32-2.3,15.91,1-1.87,1.64-3.54,2.31-5.27,1.74-4.45,3.39-8.89,6.26-12.98-1.93,4.79-2.66,9.43-4.16,14.01.1.89.12,2.06.1,2.99,1.21-.5.89-2.14,1.28-3.33l3.45-10.33c.85-.91,1.46.13.44.73l-2.91,13.6c1.2-.82,1.26-2.7,1.7-4.06.91-2.81,1.23-5.74,2.83-8.82l.56,11.65c.44-.09.52.2.57.57.17,1.4-.38,2.88.3,4.58.58-1.91.11-3.82.35-5.71.07-.53-.53-1.59.35-1.7-.18-.51.01-1.18.12-1.67l3.23-14.3c-.02,6.07-.04,11.56.65,17.1.13,1.02-.24,2.13.42,3.44l.92-6.81c-.27-.37-.04-.74.4-.53l2.62-16.58c.14,6.01.06,11.53.8,17.07.11.84-.42,1.83.4,2.74l1.36-10.05c.02-.18-.13-.62-.07-.86.04-.17.13-.39.46-.32-.2-.74.14-1.48.17-2.22.06-1.55.68-3.09.9-4.76l2.61-19.71c.89,1.27.37,2.86.06,4.3-.46,2.16-.09,4.43-.47,6.79-.64,4.01.02,8.22.11,12.2.07,3.04.6,6.04,1,9.11.76-6.03,1.49-11.56,2.77-17.05.79-3.39.77-6.89,1.83-10.24l-.12,10.37.6,10.15,2.65-15.93c-.1-.3-.08-.65.37-.57-.19-.35.01-.77.1-1.1,1.8-7.17,2.6-14.53,5-21.66-.95,8.28-1.39,16.02-.45,23.89l.75,6.28c.61-1.15.34-2.31.51-3.46.15-.98.13-1.97.41-2.81.2-.59.15-1.75.2-2.42.53-6.92,2.11-13.65,3.25-20.9,1.31-3.65-.71,10.62-.22,7.89-.66,3.71-.76,7.54-.5,11.48.05.84-.13,1.06-.57,1.52.33,1.17.1,2.37.1,3.55v1.13c-.16,1.25.69,1.38.5.18.92-7.64,2.64-14.71,4.32-21.75l3.78-15.86c.6,1.06-1.27,12.48-1.21,14.78l.43,16.77c0,.34-.88,1.12-.47,1.61.21.25.41.72,1.09.84-.16-6.12,1.07-11.76,1.84-17.51-.08-.29-.1-.65.35-.57l.77-5.05c-.07-.49-.04-.54.46-.62.58-4.81,1.69-9.54,3.27-14.26l-.96,14.74c-.05.81.34,1.55.11,2.37.93.55.33,1.96.31,2.83-.04,2.74.16,5.52.95,8.5-1.71,2.31-3.03,4.5-4.14,6.79-.24.48-.63,1.07-1.22,1.12l.02,1.16,3.35-3.48c3.33-3.46,7.2-6.1,11.34-8.38-5.53,4.48-10.57,9.21-14.82,14.66.48-.61-7.33,11.12-4.95,9.64.1-.08.14-.27.04-.65,3.21-3.84,6.89-6.83,10.86-10.37.7,1.14-.65,1.58-1.58,1.91-2.95,3.88-6.47,7.38-8.8,11.39-2.82,4.84-3.11,11.55-6.61,15.83l-.68.83c-.3.37-.27,1.22.44,1.49.37-1.13,1.03-1.75,1.29-2.31,2.5-5.51,7.14-9.79,11.56-14.13-4.03,5.48-7.25,11.05-9.87,16.98-.91,2.06-1.5,4.29-2.48,7.12,1.48-.4,1.36-2.24,1.84-3.21,2.83-5.72,6.54-10.95,10.59-16.02-3.32,7.02-6.69,13.47-8.24,20.6-.4,1.81-.57,3.78-.65,5.61l1.16-1.81c1.22-4.42,3.23-9.15,6.1-12.99-1.92,5.44-3.41,10.64-4.31,15.93-.46,2.68-.39,5.5-.62,8.59,1.04-1.92,1.25-3.81,1.68-5.73.85-3.69,1.98-7.38,3.81-10.91l-2.1,11.44c-.69,3.75-.39,7.71.21,11.95.14-2.89.98-5.45,1.6-8.14.78-3.4.96-6.94,2.19-10.69,1.16.6.1,1.78.07,2.58-.07,2.52-.33,5.25.09,7.7l2.17,12.52c1.02-2.01-.07-3.68-.06-7.43l.03-14.23c1.13,3.04,1.22,6.13,2.08,9.17.05.18.17.36.08.55.41-.13.58.21.51.56-.08.42.36.7.07,1.08.51-.22.44.38.51.65.88,3.71,2.56,7.1,3.65,10.75.7-2.63-.01-1.39-.58-6.13-.22-1.85-.87-3.62-.66-5.9.97,1.98,1.77,3.85,2.2,5.86.11.5.78,1.62,1.83,1.47-1.68-2.34-2.08-4.68-2.43-7.21-.34-2.38-1.16-4.65-1.03-7.48,1.13,2.33,1.82,4.63,2.57,6.96.34.17.79.6.66,1.02.44-.21.61.3.55.63-.14.71.13,1.46,1.18,1.7-.16-1.33-.33-2.41-.64-3.37-.55-1.72-1.15-3.49-.9-5.72.62,1.4.86,2.89,1.89,3.95.3-.48-.34-1.15.01-1.58-.75-.32-.24-1.2-.49-1.76-.09-.21-.27-.35-.03-.57-1.09-.54-.09-2.11-.49-2.85-.5-.66-.34-1.42-.49-2.21-.64-3.47-1.95-6.93-1.56-10.87l3.17,10.82c.22.76,1.06,1.43.73,2.29.41-.12.43.27.48.56.04.31.26.58.21.85.47.92,1.38,3.22.54,1.76l.74,1.42.03-2.9c-.08.05-.46.02-.46-.1.25-4.84-1.2-9.14-1.53-14.52l3.66,11.71c.3.96.59,2.05,1.22,3.01.02-5.11-1.21-9.59-1.45-14.24-.16-3.1-1.36-5.89-.95-9.51,1.34,2.86,2,5.41,2.27,7.92-.12,1.19,1.07,1.24.73.13-.65-4.15-.92-7.89-1.12-11.56-.22-3.88-1.6-7.67-.9-11.93l2.58,11.9c1.32,6.09,3.13,11.97,5.4,18.35l-.75-9.35c-.19-2.41-.82-4.89-1.19-7.26-.26-1.64-.06-3.49.3-5.15.2,1.73.45,2.8.83,4.02.52,1.68.01,3.9,1.69,5.74l-2.96-17.48c1.11-2.84,2.61,14.41,3.53,13.44l-1.51-17.5c-.19-2.17-.25-4.34-.06-6.92.99,1.68.91,3.5,1.5,5.15,2.59,7.21,4.58,14.59,7.8,21.68l-1.08-7.5c-.93-.32-.19-1.55-.46-2.26-.14-.37-.03-.8-.08-1.13-.62-4.19-2.1-8.35-1.99-13.47,1.32,3.67,2.31,7.94,3.17,11.81.36.32.9,1.03.69,1.61.33-.23.49.13.51.35.03.31-.05.58.08.83.43.86,1.2,1.81,1.05,2.83h.57c-.4-1.47-.43-3.05-.7-4.53-1.03-5.51-2.05-11.06-2.58-17.08,1.6,5.09,2.7,10.19,3.81,15.32.29,1.33,1.33,2.77,1.55,4.62-.1-2.75.07-5.69-.37-8.44l-2.35-14.84c1.44.74.94,2.21,1.25,3.41l2.75,10.83c.14.57.72.98.57,1.64h.64c-.1-6.6-1.03-13.14-1.61-19.7-.21-2.44-1.01-4.72-.45-7.54l2,7.56,3.98,14.6c.37.08.65-.19.57-.57-.06-3.35-1.46-6.49-1.02-10.3,3.49,5.85-1.22,5.15,2.17,5.77l-1.73-16.99c-.16-1.57-.95-3.18-.41-5.14,1.37,1.44.8,3.57,1.44,5.07,1.34,3.16,2.46,6.42,3.6,9.66.45-.21.79.58.17.53-.24.22-.37.57-.27.92.06.21.31.44.63.3.75-3.13,3.72-5.14,5.89-7.72,1.01-1.2-1.27-.24,4.21-4.22.26,1.79-1.45,1.94-2.35,2.73-3.93,3.48-6.89,10.57-7.91,12.09-.41.6-.36,2.05-1.21,2.43-.48,1.86-.98,4.06-2.27,5.82.95.34,1.19-.47,1.26-1.14,2.22-4.18,5.55-7.3,8.02-11.09.75-1.14,1.52-2.25,2.88-2.88-.35,1.91-2,2.36-2.75,3.71l-7.49,13.36c-.28.5-.74,1.52-.65,2.05,1.52-.49,1.89-2.41,3.3-3.8-.4,2.66-1.58,5.09-2.73,7.42-.59,1.18.18,3.38-2.1,4.42,1.09,1.04,1.03.01,1.6,0-.12-1.48,5.34-12.22,6.7-13.12.13,1.74-1.19,2.67-1.77,3.98l-4.3,9.76c-.79,1.8-1.07,4.08-1.73,6.16l1.64-2.3c1.72-2.4,3.86-8.36,5.96-10.78-1.32,3.69-3.42,7.48-4.26,11.3-.86,3.93-1.84,7.74-2.2,12.09.92-1.94,1.49-3.84,1.94-5.75,1.08-4.51,2.25-9.01,4.87-13.1-1.54,5.4-3.14,10.2-3.92,15.35-.07.49-.07,1.1-.12,1.62-.05.61.36,1.7-.45,1.83.49,2.5-1.51,4-.38,7.36l.75-2.88c1.4-5.39,2.26-11.22,4.47-16.6-.51,6.34-2.86,11.84-2.69,17.73.08,2.9-1.27,5.11-.29,8.52.57-2.49.4-4.74.86-6.82l3.01-13.66c.82,1.04.37,2.19.13,3.32-.71,3.4-1.16,6.92-1.15,10.31.03,5.89-.05,11.69.62,18.07,1.88-3.38-.02-6.55,1.44-9.61.72.24.09,1.13.87,1.78l.27-5.52c.1-2.01-.39-4.11.13-6.53,1.68,1.78.79,4.39.72,6.53-.09,2.64-.11,5.33,1.19,7.87l.11-15.88c.02-2.12-.5-4.27.58-6.67l1.11,6.61c.6,3.55,1.23,7.21,3.21,10.91l-2.02-12.62c-.21-1.28-1.22-2.69-.33-4.55.77,1.33,1.38,3.04,1.4,4.52.3.18.83.54.59,1.06.54-.19.49.4.59.71.91,2.86,2.01,5.67,3.25,8.77.19,1.16.68.78.94-.31-1.92-3.32-2.47-6.75-3.1-10.09-.61-3.2-2.62-6.13-2.7-9.84,1.82,3.14,2.56,6.63,4.21,9.66l2.46,4.52c.26.47-.2.94.26,1.23.26.17.55.92,1.16,0-1.72-1.23-1.53-3.16-1.91-4.48-1.06-3.7-3.11-7.22-3.39-11.5l4.83,11.27,3.52,5.85-2.16-10.92c-.53-2.67-2.16-5.21-2.01-8.39,1.13,2.57,2.87,5.22,3.6,7.87.3.24,1.01.67.71,1.19.46-.3.4.4.59.62,1.05,1.22,1.35,2.84,2.56,4.05.26-.96-.28-1.81-.51-2.29-.9-1.83-1.87-3.84-1.99-6.24,1.91.83,1.6,3.1,3.14,3.88.32-.31.06-.7.15-1.06-.25.01-.8-.23-.96-.44-.15-.2-.05-.44.22-.68-2.43-4.82-3.83-10.31-5.62-15.61-.45-1.32-1.59-2.67-.75-4.33.98,4.87,6.74,12.86,7.64,15.64.11.35.67.49,1.12.04-.47.47-5.15-13.09-4.78-15,2.64,3.85,3.58,7.91,7.07,10.74-1.85-5.37-3.93-10.42-4.91-15.37,1.18,2.49,2.36,4.88,3.87,7.58.19.34,1.15-.33,1.4.4.18.53.36,1.32,1.23,1.43l-5.53-16.1c-1.26-.26-.41-1.77.11-.58l7.9,12.33c1.11-1.61-.51-2.91-1.05-4.42l-4.36-12.1c-.62-.34-.95-.45-.95-.67,0-.54-.19-1.22.35-1.37l6.15,10.33-.11-2.93c.34-.32.98.51,1.28.56.44.08,5.81-5.99,6.99-6.84-2.3,5.25-5.67,9.49-7.46,15.2,3.06-2.29,4.32-5.42,6.87-7.81-1.61,3.73-3.56,7.02-5.41,10.59-.18.34-.72.49-.9.73-.3.41.47,1.09.25,1.63-1.4,3.37-3.82,5.72-4.89,9.26l11.73-13.09c.53.2.02,1.05-.27,1.5l-13.42,20.55.59-.16c.76-.09.8-1.36,1.71-1.13l7.75-9.05-5.58,12.02-4.9,10.53c1.41-1.66,3.35-2.86,4.45-4.44,2.14-3.04,4.52-5.78,6.42-9.14.73,1.63-.89,2.39-1.57,3.48-.94,1.53-1.41,2.93-2.04,4.13-.46.87-1.35,1.87-1.69,2.79-1.55,4.24-4.16,7.99-6.09,12.06,2.23-1.55,3.43-3.62,4.88-5.33l5.68-6.72c-.68,2.66-3.02,4.74-4.03,7.19-1.53,3.73-3.22,7.34-5.15,11.26,1.44-.36,1.97-1.43,2.59-2.26l5.33-7.19c-.98,2.82-2.75,5-3.91,7.45-.96,2.01-1.32,4.68-1.2,6.69.47-1.93,2-3.59,3.4-5.22-.21,3.33-2.45,5.45-3.18,8.1-.64,2.32-1.43,4.46-2.35,6.68,1.47-.75,1.51-2.08,2.29-2.76-.27-2.63,1.93-4.78,3.7-6.82,1.27-1.47,1.74-3.15,2.5-4.5.63-.06.75.52.32.92-1.57,4.14-2.94,8.19-4.2,12.14l-18.11,57.14c-7.96,25.11-13.82,50.1-17.45,75.92l-8.18,58.15c-2.64,18.76-5.17,37.14-10.22,54.86-.62,2.16-.51,4.54-1.38,6.75-.56-2,.56-3.36-.34-4.45-.62.45-.56,1.57-.68,2.3-.19,1.14.26,2.35-.64,3.96-.4-1.27-.85-2.6-.83-3.93-.52-.02-.44-.26-.55-.64-.68-2.39-1.55-4.85-3.2-6.92-.51,1.85,1.55,2.58,1.06,4.06.55-.21.38.43.46.69.14.47-.15,1.21.02,1.61.71,1.75,1.09,3.56,1.54,5.67l-3.71-5.53c-.55.03-1.21-.66-1.28-1.26-2.54-1.5-4.24-4.01-7.41-5.02,1.48.8,2.19,2.59,3.08,3.33,2.57,2.13,4.6,4.95,6.02,8.37-2.51-1.64-4.4-3.48-7.01-4.52-.51-.2-1.06-.4-.79-1.02-.58-.11-1.36-.17-1.83.32.86.4,1.15.21,1.26.89,1.59.14,2.91,1.49,3.87,2.7.44-.25.85.11.66.55.33-.17.78.09.53.51.55-.38.72.54.99.74.84.64,2.38,2.01,2.97,3.33-1.86-.45-3.3-1.39-4.61-2.21-.23.17-.49.15-.81-.03-.29-.16-.64-.24-.33-.6-.18,0-.31-.12-.47-.15-1.17-.19-2.26-.89-3.45-.96-1.11-.07-2.02-1.17-3.46-.25,3.35.85,6.59,2.04,9.21,4.27.44.38,1.43.05,1.69,1.04-.77.25-1.18.23-1.61.28-27.25,2.87-54.36,6.22-81.46,11.26-7.32,1.36-14.22,2.49-21.32,4.67,5.07.85,9.38.76,14.47.83l84.83,1.13,271.04.63c-7.51-2.54-15.22-2.99-23.32-4.6l-57.13-7.66c-3.27-.44-6.55-.42-10.22-1.13,3.44-.58,6.91-.91,10.28-.42.44.06,1.04.43,1.69-.2-2.86-.49-5.66-1.47-8.55-1.33l-6.9.34c2.14-1.6,4.63-1.63,6.88-2.55,1.85-.76,3.93.89,6.19-.7-2.62-1.19-5.01-.36-7.21-.01-2,.31-4.59.41-7.07.85.85-.76,1.45-.51,1.88-.69.15-.33-.04-.66-.26-.66h-1.4c.03.54-.87.68-.34,1.37-1.89.34-3.71.88-5.11,1.87,1.5-1.69,3.13-3.48,5.45-4.27-.09-.38.16-.69.55-.63-.24-.33.07-.49.31-.61.33-.16.61-.2.86-.03.44-1,1.69-.81,2.84-1.42-1.67-.58-3.52.25-5.12.92-1.65.7-3.04,2.13-5.27,2.6.54-2,2.07-3.39,3.39-4.66,1.58-1.51,2.96-3.55,5.26-4.93,1.57-.1-.2-2-.49-.32-3.7,2.43-6.89,4.97-9.7,7.78-1.29,1.29-1.75,3.3-3.26,4.64.27-2.23,1.01-4.11,2.07-5.72-.22-.2-.11-.33.01-.54.16-.25.03-.54.07-.83.04-.24.18-.58.51-.35.51-2.42,1.89-4.58,3.49-6.68.3-.4-.26-1.42-.43-1.16l-3.76,5.59c-1.31,1.95-2,4.16-3.62,6.19-.48-2.26-.62-4.88.95-6.14.11-.56.22-1.39-.28-1.75-1.12,1.65-.64,3.15-1.3,4.5-.15.32.07.92-.56.77.61,1.72.45,3.81-.44,5.4-.21-1.7-.56-1.85-1.01-.49l-2.02-7.16c-1.06-3.77-2.99-7.21-5.61-10.44.83,2.6,1.85,4.55,2.29,6.85.66,3.53,2.55,7.01,1.99,11.42-1.23-3.01-2.27-5.9-4.13-8.69l.77,4.75c-1.51-1.05-2.57-2.41-3.35-3.82-1.87.39-3.34-4.25-3.85-1.93,1.62,1.47,3.78,2.68,4.6,5.16-2.28-1.69-3.71-3.66-5.83-4.98-.51-.32-.88-.76-1.74-1.16-.34-.16-.48.13-.47.44.08-1.2,6.39,6.33,4.57,4.49,1.67,1.69,3.44,3.64,4.12,6.12-2.43-.66-3.53-2.92-5.28-3.75l-8.89-4.25c-.18.97.54,1.26,1,1.34,3.44,1.62,6.98,3.25,9.54,6.4l-10.01-3.52c-.27-.1-.51-.17-.84-.1-.44.09-.48.35-.46.62,2.29-.09,4.36,1.46,6.34,2.54-2.72.36-5.08-.79-7.37-.86-7.39-.24-14.79-1.07-22.16-1.78-3.83-.37-7.67-.49-11.95-1.28,3.83-1.41,7.73-.39,11.53.17-1.09-1.97-4.19-1.72-6.26-2.3-.35.16-.74.08-.57-.43-4.25-.41-8.2.26-12.64,1.61,3.62-2.8,8.2-3.36,12.44-3.65,3.25-.55-2.52-.86-3.38-.91-2.99-.07-5.68,1.35-9.28,1.65,2.71-2.41,6.22-3.14,9.44-4.38.49-.19,1.18,0,1.7,0-.08-.28.11-.57.3-.57h.84c1.27,0,2.49.95,3.48-.49l-3.52-.27c-2.37-.18-4.49.97-7.33,1.29l4.13-2.63c-.2-.37-14.42,5.71-9.62,2.78-.84.32-2.34.39-3.45.96-.72,1.27-1.33,2.11-2.98,2.97.11-2.09,1.86-2.4,2.98-2.97.97-1.71,3.01-2.34,4.39-3.84-4.33,1.56-7.79,4.37-10.64,7.95,1.14-3.88,4.23-6.15,6.32-8.97,1.75-2.35,3.87-4.25,6.47-5.18-.05-.5.29-.55.69-.74.25-.15.25-.29.51-.04-.24-.5.3-.72.68-.47.42-.39,1.59-.13,1.59-1.31l-7.8,3.06-6.78,4.39c.17.7-1.25,1.64-1.81,1.34-1.07,1.81-3.03,2.9-3.76,4.93.61-3.7,3.18-7.12,4.45-9.25-2.21,1.37-2.81,3.28-4.51,4.75-.2-3.02.54-5.85,2.16-7.85-.06-.59.25-1.29-.33-1.73-.38.75-.24,1.3-.91,1.26-1.59,4.19-1.56,7.02-2.9,11.94-.96-1.66-.28-3.45.25-5.39-.17-1.38-.62-1.05-.94.59-.67-2.81-.08-5.46-.18-8.22-.05-1.26.05-2.59-.33-4.16-.85,1.39.07,2.93-.49,4.37-.47,1.22-.66,2.52-.53,3.6.07.44.1.53-.39.65-.01,1.49.08,2.96-.65,4.8-1.04-1.81-1.2-3.25-1.6-4.73-.56.04-.47-.35-.7-.72-1.12-1.8-2.31-3.69-3.18-5.92-.79-.72-1.5-.3-.9.85,1.83.94,1.49,3.34,1.99,4.51,1.84,2.38,1.88,5.58,1.42,9.01l-2.96-6.55c-.21-.23-.43-.45-.74-.24.19,1.82,1.68,3.25,1.21,5.15-1.36-1.53-1.99-4.25-3.5-5.61-1.82-1.64-3.51-3.75-5.64-4.63,3.68,4.03,6.94,8.57,8.36,14.18-1.79-2.36-3.15-4.74-5.26-6.79,1.15,3.56,3.61,5.88,3.79,8.99-2.06-3.39-5.53-5.8-8.95-8.12-.9-2.68-.83-5.29-1.22-7.74-8.61-54.02-3.12-117.15,10.03-170.74,4.11-16.74,9.14-32.34,14.33-48.74l19.51-61.66c.06-.18,0-.4.06-.57.84-2.28,1.44-4.62,2.66-6.9.24,2.71-1.22,4.64-1.46,6.87-.06.58-1.36.96-.17,1.85,1.88-4.77,3.04-9.84,4.34-14.98l3.7-14.62c1.04-4.09.65-8.5,1.36-13.01,1.06,2.95.42,6.36.77,9.6.07.67-1.37,1.75.15,2.39-.32-.08,1.07-9.98,1.73-8.05l-.62,8.6.32,1.7c1.46-3.8,2.02-7.84,2.46-11.87.5-4.6-.26-9.15-.38-14.22.85,1.9.58,4.02,1.97,5.8.99-4.07-.07-7.59-1.09-11.66.77-.29.82.99,2,.76-1.01-4.38-1.37-8.62-2.65-12.83-.19-.63-.9-1.61.07-1.9,1.72,2.52,1.29,6.02,3.43,7.37-.81-1-.9-1.87-.51-2.84-.13-.48-.06-.9-.09-1.11-.29-1.94-.86-5.56-1.45-7.89l1.99,3.93c.15.68.19,1.49.92.93-.5-2.92-1.1-5.95-1.9-8.82-.63-2.25-2.85-4.14-3.28-6.89,1.42,1.93,2.91,3.67,3.79,5.74,2.27,1.18-1.75-5.23-.78-5.83.18-.33.9-.42.9-.71,0-.35-.09-.61-.26-.98l-1.53-3.18c-.27.26-.45-.15-.54-.35-.08-.18-.04-.54.18-.79.13-.15.65-.05.44.42,5.8,2.42,11.34,5.85,15.96,10.38-2.67,2.96-10.17,11.79-12.11,11.22-.89,2.45,8.25-3.56,8.8-3.1l-10.52,9.87c4.22-1.56,7.3-5.07,11.39-7.4-3.86,4.59-8.4,8.09-11.65,13.76l10.07-7.84c-2.21,2.92-8.9,8.21-7.79,11.53-.81,2.31-3.97,4.66-1.64,4.69-.95-.01,7.9-10.55,8.11-12.18.68-.7,1.77-.08.58.51-2.09,3.44-4.15,4.82-5.11,8.48l-.95,3.64c2.59-2.82,5.27-5.55,8.3-8.25.97-.86,1.27-2.8,3.08-2.24-5.19,4.48-8.92,10.77-12.48,16.92l12.18-13.21c-1.73,2.96-3.45,5.73-5.41,8.58l-4.69,6.79c2.05-1.67,3.36-3.69,5.71-4.78l-4.5,8.62c.15.19.38.26.49.15.09-.39-.14-1.32.61-.78,2.86-4.42,6.79-8.23,9.98-11.99-3.21,6.31-5.96,11.38-8.29,17.29-.25.63-.64,1.24-1.12,1.07.23.53-.44,1.11-.59,2.14,1.39-.04,1.67-1.61,2.22-2.68.16-.32.25-.7.72-.53.05-.32.31-.6.57-.68l9.53-12.86c.53-.71.77-1.58,1.82-1.75-.35,1.53-1.44,2.39-2.27,3.5-3.04,4.02-4.92,8.73-7.36,12.93-.45.78-.49,2.03-1.14,2.79-.17.21-.03.91-.54.64.6,1.06-1.55,1-.99,2.72l4.42-5.63,10.65-14.08c.52-.69.79-1.67,1.66-1.76-.4-.1.88-1.13.93-1.08.25.26.28.68.19.84-.21.34-.74.23-1.12.24l-10.08,18.67c.1.27.15.3-.02.57-.15.23-.07.85-.55.61l-3.25,8.18c2.35-4.38,5.75-7.57,8.54-11.1,2.99-3.77,5.5-8.08,8.81-11.69-1.7,5.04-4.46,9.13-6.26,13.5-2.14,5.18-4.16,10.5-6.97,15.74-.88.57-.28,1.63.49.63.48-.41.13-1.01.32-1.12.31-.18.88-.53,1.19-.62,1.53-3.22,4.43-5.62,6.48-8.21-1.52,3.98-3.04,6.75-4.93,9.34-1.02,1.39-1.54,3.31-2.34,5.14,1.66-.72,1.6-2.3,2.35-3.41,3.17-4.67,6.32-9.37,9.43-14.62.9.65-.2,1.28-.59,2.12l-5.75,12.44c-1.08-.28-.52,1.23-1.44,1.2.05.31.12.58.03.84-.13.39,0,1.08.56.62.32-.26.46-.67.57-.9l.64-1.38,6.88-11.47c.86-1.44,1.06-3.36,2.88-4.11l-8.65,18.14c-.72,1.5-1.39,3.1-2.03,4.9l5.42-6.04c5.19-5.79,9.34-12.49,13.23-19.52.44,2.25-1.4,3.55-2.24,5.14l-9.28,17.73c.1.24.06.33-.01.57-.09.3-.17.88-.63.57-1.14,3.6-3.71,6.39-5.23,10.42l5.81-6.52,7.98-11.77c.71-1.05.63-2.81,2.53-2.72-3.57,5.18-5.38,10.99-8.17,16.25.16.19.05.37-.01.57-.09.27-.08.83-.55.61l-4.91,11.79,7.26-9.11,9.54-15.67c.76-1.24,1.07-2.5,2.08-3.54.46,1.87-.93,2.83-1.63,4.23-3.05,6.11-5.31,12.42-7.82,18.48.13.24.07.33-.01.57-.1.27-.09.84-.56.61.24.49-.28.66-.09,1.01.18.32-.08.92-.53.72.18.4-.29.62-.07,1,.2.34-.07.92-.52.64-.47,1.63-4.26,11.76-4.56,11.01.18.46-.03,1.06.63.6-.4.28,4.63-7.94,5.1-7.16l6.31-10.67c.66-1.12.74-2.32,2.1-2.89.3,1.59-1.23,2.25-1.75,3.38-1.85,4-3,7.86-4.95,11.32,1.38-2.44-2.79,8.04-2.89,7.11.05.52,0,1.05.61.61-.6.44,4.28-7.34,3.47-5.46,1.4-3.23,3.46-6.16,5.11-9.47.72-1.43.84-3.26,2.39-4.07-2.11,5.38-4.28,10.26-5.9,15.37-1.48,4.69-2.92,9.31-5.11,14.14,2.45-2.9,3.5-6.26,5.6-9.13.18-.25.15-.95.67-.62-.04-.23.09-.38.19-.57l7.66-14.08c.55-1.01.3-2.54,1.84-2.83-.68,1.95-1.47,3.49-2.23,5.26l-5.8,13.49c-1.62,3.76-2.63,7.9-4.81,11.59-.51.87-1.62,1.74-1.21,3.18l6.79-9.83c2.29-3.31,4.12-6.82,6.06-10.78,1.39.71.08,1.49-.23,2.35l-3.77,10.3c-.73,1.98-1.31,4.26-1.64,6.32.74-.94.87-2.3,2.22-3.04-1,3.3-2.73,5.85-3.99,8.54-.98,2.08-2.44,4.29-2.65,6.27,6.24-8.24,11.29-17.31,15.22-27.2.9-2.26,1.76-4.46,3.47-6.28-2.54,6.79-12.37,31.26-17.05,36.14-.59.61-.71,2.26-1.71,3.42,1.79-2.44,4.87-4,6.75-6.27,5.15-6.23,10.13-12.58,13.85-19.76.79,1.69-.76,2.71-1.25,3.82-2.04,4.67-3.21,9.61-6.76,13.86.26-2.23,1.4-4.07,2.78-6.58-1.7-.36-1.5,1.93-2.1,2.9-1.15,1.86-2.47,3.48-3.13,5.99-.44,1.7-1.74,3.12-2.34,4.45-.13.28-.09.7-.57.57.51,1.02-.76,1.26-1.13,1.7-.36.42.02,1.81-1.04,1.79-.25.62-.99.83-.65,1.61h.57c2.81-2.86,6-9.46,9.06-11.37,1.57-.98.96-3.36,3-3.84l-9.73,17.52c-1.13,2.03-6.18,9.36-2.71,6.22.31-.69,3.07-3.82,3.83-3.28.94.67-1.25,3.4-2.18,4.94-.33.55.11,1.82-.62,2.58.72-.07.61-.21.73-.35.17-.2.64-.18.86-.1l7.7-9.1c-1.85,4.83-4.16,8.95-6,13.26l-1.83,4.29c2.78-2.24,4.62-4.7,6.32-7.2.27-.4.55-1.23,1.19-1.13.02-.43.27-.76.48-1.13.26-.46.63-1.24,1.24-1.22l4.95-10.2c-.51,5.76-1.61,11.01-3.18,16.01.19.73-.46,1.3-.49,2.19,2.97-3.58,5.69-7.61,6.64-11.94l1.46-6.69-.05,5.14c1.67-4.51,2.76-9.12,2.54-14.18.7.08.91.62,1.12.85.51.56-.61,1.41-.57,1.88.41,4.41-.17,8.5-.56,12.5,1.33-1.67,1.78-4.52,1.96-6.92.45-5.88.38-11.74.49-18.07,1.35,5.22,1.79,10.57,2.07,15.94,1.82-4.81,2.3-10.43,2.27-15.77-.03-6.26-2.1-12.27-2.74-19.2.22-1.51,5.19,17.47,4.72,19.13.15.04.28.12.28.29v.84c-.02.5-.26,1,.52,1.17-.03-1.51.19-2.69.06-3.86-.89-7.91-2.63-15.41-5.05-23.83,3.64,6.52,5.84,14.33,6.1,21.99,1.42,2.39.25-11.03.56-9.79-1.11-6.04-2.79-11.9-4.97-18.04,1.65,1.17,6.45,14.43,6.07,16.64,1.3-7.17-1.43-15.19-3.29-22.88-1.47-6.09-4.81-11.38-7.35-16.85-.37,0-.61,0-.85.01-.2.01-.32-.4-.31-.75,0-.18.14-.45.57-.18.24.15.35.67.59.92,3.98,4.22,6.53,10.14,7.95,15.92,1.09-5.33-1.22-10.9-1.78-16.44-.16-1.6-1.52-3.39-1.5-5.16,0-.51-1.09-.97-.7-1.62-.34.26-.45-.08-.57-.35-.28-.63.34-.79.52-.89l1.18-7.31c.05-.31.05-.65.46-.57-.28-1.58.82-3.07.92-4.6.28-4.24,1.24-8.38.86-12.99-.04-.48.71-1.01,1.15-1.07l-.29,14.13c-.1,4.92-.38,9.83-.9,14.71-.12,1.15-.43,2.29-.44,3.46,1.55-2.72,2.03-6.01,2.83-9.07.02-.32-.04-.92.51-.65-.06-.21.08-.36.12-.54,2.05-10.38,3.72-20.74,2.57-31.76-.08-.73-1.35-1.84.5-2.44l.41,5.2c.82,10.31,2.44,20.5,2.6,30.74.07,4.32.44,8.67.05,12.99-.12,1.31.49,3.15-.6,3.96-.13.91-.14,2,.26,2.89,1.22-1.82.78-3.57,1.4-5.15.07-.19,0-.59.03-.82.02-.17.15-.39.46-.31-.34-.58.44-1.07.16-1.65-.15-.31-.03-.86.44-.66-.16-1.11.66-2.19.65-3.28-.03-.47-.21-1.22.45-1.2-.14-.52.05-1.19.16-1.67,1.53-6.79,2.39-13.64,2.31-21.03,1.41,2.76,1.28,18.99,1.11,22.76-.1,2.23.14,4.5-.14,6.73-.19,1.46.67,3.33-.36,4.53.28,2.6-.67,4.98-.69,8.03,1.04-.9,1.14-2.04,1.45-3.05,2.39-7.91,4.53-15.93,5.09-24.25.56,8.76.44,17.13.09,25.49-.1,2.4-.48,4.62-.31,7.45.46-.81.85-1.59,1.03-2.36l4.27-18.81c.4,7.17-.19,14.22-1.3,21.07-.26,1.58-.44,3.24-.54,5.19,1.24-2.63,2.02-5.23,2.68-7.94.08-.32-.04-.97.55-.68-.04-.16.02-.31.07-.46,1.49-5.33,2.36-10.72,3.65-16.59.62,6.7-.17,13.29-.46,19.9-.23,5.07-.58,9.96-1.51,15.42,1.16-2.55,2.14-5,2.88-7.47,1-3.35,1.41-6.94,2.65-10.41.54-1.51-.57-3.27.5-4.94.4,5.89-.33,11.73-.54,17.59-.15,4.29-.22,8.4-1.02,13.09.78-1.51,1.52-2.73,1.96-4.14,1.92-6.2,3.69-12.36,4.44-19.22.88,1.61.33,3.34.15,5.05l-1.86,17.1c-.3,2.73-.24,5.46-1.55,8.91,1.81-.26.92-2.12,1.53-3.29l1.16-2.25c2.45-4.76,4.47-20.03,5.45-24.94l-.42,28.42c-.04,2.77-.22,5.48-1.31,8.41.89-.14,1.23-.72,1.43-1.2,1.35-9.26,4.42-15.19,3.81-26.09,2,1.53.91,3.84.92,5.69.03,6.74.79,13.22-.58,19.3-.22.99.67,2.21-.01,3.28-.6.95-.65,2.2-.02,3.05l1.37-4.55c2.06-6.85,2.99-13.94,3.05-21.65,1.26,6.97,1.78,13.99,2.03,21.03l.24,6.93c.93-3.64,1.6-7.22,2.16-10.88.71-4.59-.26-9.22-.01-14.22,1.56,4.65,2.37,9.43,3.05,14.15l1.38,9.66c5.29-34.13-11.42-73.75-31.13-100.49-16.95-23-40.28-38.57-66.8-47.71-.23.25-.45-.03-.66-.08-1.68-.39-3.29-.99-4.89-1.62-.2-.08-.5-.03-.73-.09-3.01-.83-5.98-1.78-9.04-2.36-1.51-.29-2.97-.79-4.5-.99-1.51-.19-3-.7-4.52-.64-.3.12-.64.14-.57-.31-7.87-1.09-15.79-1.97-23.77-1.82-.59.01-1.39.11-1.11-.83.11-.39.75-.76,1.11-.9,4.43-1.7,9.09-1.61,13.5-.04-.19-.78-1.08-.58-.63-1.05-4-2.33-4.47-1.78-7.29-2.85-1.33-.12-3.75.33-4.97.62-.5.12-1.07,1.4-2.06-.18.74-.56,1.62-.59,2.03-1.01,3.16-3.29,7.1-5.65,11.4-8.46,2.58,3.08,4.73,5.82,6.49,9.09.21-1.41-.24-2.41-.37-3.48-.08-.71-1.23-1.13-.27-2.3.19.86,1.05,1.44.93,2.29,2.49,2.48,3.91,5.82,5.35,9.2.53-1.59.04-2.95-.2-4.16-.24-1.23-1-2.36-1.15-3.83,1.24,1.08,1.67,2.87,2.67,3.98,1.44,1.59,2.87,3.2,4.07,5.01.36-2.99-4.53-11.81-1.26-6.76l4.38,6.77c.28.43,1.03,1.01.85,1.71.45.12.51.97,1.49,0-1.98-.77-1.19-2.41-1.62-3.29-.73-1.52-1.55-3.08-1.47-5.2,1.16,1.69,2.53,3.11,3.1,4.99.67.59,1.38,1.47,1.97,2.2,0-.56.08-.75.3-.88-1.01-1.42-1.75-3.39-2.13-5.1-.38-.13-1.72-.96-.97-1.59.44-.24,1.45,1.1.97,1.59,1.73.53,2.06,2.66,3.11,3.78,1.78,1.91,3.86,3.72,4.81,6.23.22-1.75-.55-3.71-1.1-5.43-.65-2.02-2.45-3.88-2.84-6.39,2.06,1.76,2.93,4.26,4.38,6.2,1.57,2.11,3.59,4.12,4.57,6.68.14-.38.33-.34.54-.03-.55-1.58-1-3.35-1.66-4.86-.89-2.02-2.33-3.92-2.99-6.24,2.01,1.53,2.71,3.89,4.13,5.45,1.83,2.01,3.31,4.09,5.13,6.48-1.39-4.12-3.09-7.58-4.55-11.28-1.03-2.62-6.82-10.97-6.55-12.69l7.52,11.34c3.12,4.71,6.14,9.37,9.04,14.4-1.56-6.5-2.91-12.8-5.91-18.17l-3.52-6.3c2.39,1.49,2.81,4.61,4.39,6.4,4.96,5.63,8.92,12.1,13.09,18.46l-2.2-7.44c-.57-1.95-2.34-3.77-2.78-6.12,2.11,1.37,2.66,3.88,3.84,5.64l6.7,10.01c-1.14-2.53-1.03-5.38-2.05-7.66l-5.16-11.45c3.2,3.29,4.39,7.68,6.67,11.32,1.9,3.03,4.02,5.93,5.43,9.9.72-2.38-1.41-3.74-1.38-5.81-.45.2-.59-.35-.47-.66.13-.35-.16-.67.01-1.01-1.17-2.59-2.33-5.32-3.17-8.5,2.02,1.98,3.03,4.52,4.61,6.65,1.92,2.59,3.21,5.44,5.21,8.63-2.08-8.67-5.69-16.77-8.81-25.05.71,1.89-4.22-8.35-4.69-7.53.1-.17-.14-.71.3-.85.06-.02,6.13,8.73,5.26,7.77,6.81,7.56,15.66,20.1,19.28,29.62-.41-3.07-1.03-5.87-1.74-8.56-2.53-9.62-6.19-18.73-11.17-27.81,5.9,8.65,10.93,18.08,15.15,27.69.89.13.73,1.32,1.3,1.82.2.17.14.37.02.57.46-.12.39.32.52.57,1.2,2.26,1.3,5.03,3.27,7.46l-3.93-14.76c-.47.2-.64-.39-.49-.71.19-.4-.28-.61-.07-.99-.58.21-.42-.4-.5-.7-.22-.83-.31-2.04-.58-2.8-1.54-2.5-2.43-5.42-3.66-8.37-.85-2.04-2.82-3.45-2.95-5.96,3.41,4.48,5.97,9.22,8.69,13.86.09.16.29.28.19.49.5-.27.65.33.52.68,4.73,6.78,8.98,13.94,13.22,21.42.62-.14.41-.74.43-1.14-1.24-1.43-2.2-3.5-2.83-5.62-1.62-5.44-4.59-9.68-6.7-15.24,4.17,6.01,8.17,12.43,11.71,19.1.35.66.94,1.34,1.57,2.34.08-2.04-1.39-3.61-1.54-5.58-.34.23-.5-.12-.55-.39-.05-.29.09-.59-.06-.84-.15-.23-.16-.35.01-.56l-3.78-9.8c-3.99-10.36-8.81-19.53-15.13-28.66,5.89,4.92,11.54,17.48,15.2,24.86l5.29,10.69c.24.07.49.1.74.08.27-.75-3.33-5.3-3.85-8.46.93.57,1.11,1.82,2.15,1.67.84-.75-7.28-10.9-7.86-14.08,2.27,2.34,4.1,4.86,5.96,7.57,3.87,5.64,8.53,10.68,11.45,16.67.92.92,2.3,2.16,2.54,4.05.92.98,1.46-.21.34-.77-.47-.91-.72-2.03-.64-2.79l-9.53-21.51c4.28,6.8,7.82,13.88,11.64,20.87.11.21.25.41.21.66.65.28.93,1.16,1.22,1.78l5.98,12.55c.03-1.74-.5-3.29-.95-4.63-3.45-10.27-6.49-20.64-12.16-30.57,2.51,1.82,3.3,4.68,4.86,7.4,4.13,7.2,7.34,14.68,10.23,22.06.64.96,1.5,2.08,1.92,3.26,0-1.06.27-1.33.25-1.59-.36.06-.56-.12-.56-.34.02-.6-.49-1.09.04-1.36-.84-.42-1.35-2.21-1.66-3.42-1.83-7.21-5.23-13.03-7.38-20.02,3.98,7.11,7.3,14.33,10.56,21.65.83.16.92,1.23,1.22,1.85l4.93,10.52c.7,1.49,1.67,2.66,2.25,4.22.17-1.3.16-2.73-.09-3.65l-2.42-8.84c-.21-.77-1.29-1.3-.41-2.33l4.74,10.83c.54-.23.65.11.58.57l2.75,6.76-.55-5.11c-1.29-11.99-6.1-22.61-11.68-33.87,6.33,9.88,10.93,21.56,15.15,33.21.21.57.79,1.09.64,1.72.61-.21.44.43.53.73l1.91,6.72c.7-.51.5-.95.4-1.25-.82-3.18-1.26-6.54-1.88-10.12-.42-2.43-2.18-4.35-1.68-7.13,2.48,5.54,4.39,11.12,6.27,16.79l1.71,5.15c-.08-3.5-.45-6.72-1.07-9.79-1.53-7.63-4.27-14.6-7.31-22.45,4.1,6.31,7.03,13.6,10.13,20.75.32-.06.62.23.65.67.01.21.19.33.02.57.42-.08.4.27.5.57l1.14,3.32c.54-.23.47.38.56.67.61,1.91,1.24,3.75,2.2,5.69-.29-3.17-.97-5.97-1.68-8.7-.86-3.35-3.18-6.45-3.3-10.03,1.94,1.24,1.9,3.3,3.52,4.72-.4-3.42-2.36-5.86-4.25-8.61,1.51-.45,1.37,1.08,2.16,2.24,2.9,4.29,5.82,8.06,7.53,12.39.55-.18.48.21.67.56l4.92,9.19c-.7-2.96-1.47-5.46-2.23-8.01-1.39-4.66-3.82-8.87-6.06-13.77,3.85,3.09,5.98,7.15,8.4,10.89,2.02.24-1.79-3.68-1.03-3.97ZM199.87,244.56c.28-1.18.85-1.98,1.42-2.66l3.98-4.62c.7-.81,1.71-1.59,2.94-1.82-2.57,2.37-4.39,4.86-6.92,6.44.12.86-.23,1.65-.43,2.44l-4.48,17.57c-.26,1.01-.15,2.8-1.31,3.18l4.8-20.54ZM203.6,248.95c.21-.21.64-.57.51-.93.88-.25,1.27-1.18,2.29-1.64.02,1.75-1.49,2.11-2.28,2.87-.2.12-.65-.19-.53-.31ZM200.29,279.36l-9.73,25.36c-.04.18-.86-.18-.7-.61l5.76-15.24,4.21-9.79.61-8.34c.81,1.85.18,3.97,1.44,5.19-.48,1.11-1.11,2.18-1.59,3.44ZM203,273.6c-.68.06-.68-.51-.34-1.17,1.97-5.55-1.57-7.4-1.8-13.06,1.49,2.24,1.41,4.86,3.29,6.69,1.19-2.47,3.2-3.8,3.48-6.65-1.44.44-1.3,1.85-2.48,2.86-.87-1.57-1.54-3.37.04-4.83-1.03-.48-1.64-2.05-1.61-3.08.28-.96,2.51,4.08,2.24,1.98-.07-.55-.05-1.14.95-.87-.45,1.67-1.33,3.06-1.41,5.27,2.87-2.72,3.25-8.17,5.81-11.76l-2.36,8.65c-.81,2.98-1.62,6.01-2.48,8.77-.72,2.31-3.27,4.51-3.31,7.2Z" style="fill:#231f20;"/><path d="M307.4,329.05c-.1-.03-.21-.04-.3-.03.16.2.25.19.3.03Z" style="fill:#231f20;"/><path d="M378.14,106.66c1.8.74,1.6.53.61-.03-.17.1-.39.13-.61.03Z" style="fill:#231f20;"/><path d="M107.48,302.97c.08-.08.11-.16.13-.24-.23-.45-.36-.57-.13.24Z" style="fill:#231f20;"/><path d="M162.21,59.83c.43-.04.85-.04,1.27-.04-.27-.23-1-.12-1.27.04Z" style="fill:#231f20;"/><path d="M304.1,80.39c.45-.12.9-.26,1.36-.37,0-.23-.53-.05-1.36.37Z" style="fill:#231f20;"/></g></svg>