<?xml version="1.0" encoding="UTF-8"?><svg id="Layer_2" xmlns="http://www.w3.org/2000/svg" viewBox="0 0 401 606.98"><g id="Layer_1-2"><path d="M211.61,567.09c-.73,1.19-.03,2.41.88,2.41.58-.87-.77-1.55-.88-2.41Z" style="fill:#231f20;"/><path d="M60.47,96.23c2.07-2.45,5.59-3.31,8.3-5.34-3.52.2-5.91,2.54-8.97,4.01-.78.66-1.96,1.26-2.15,2.47,1.43-.11,1.71-1.61,2.82-1.14Z" style="fill:#231f20;"/><path d="M185.42,233.17c-.32.74.52,1.37.81,1.36.4-.01.34-.97,0-1.1-.16-.06-.54-.87-.8-.26Z" style="fill:#231f20;"/><path d="M215,243.55s.09.07.13.09c-.03-.03-.07-.06-.13-.09Z" style="fill:#231f20;"/><path d="M389.36,206.79c-.11-.22-.25-.37-.03-.59-.92-.58-1.78-1.44-2.35-2.37-.22-.35-.63-.67-.53-1.13-.44-.05-1.21-.72-1.16-1.23l-8.31-8.25c3.58,1.55,6.5,3.61,9.35,5.76,1.76,1.33,4.36,1.97,6.06,3.59.38.36,1.27.56,1.25,1.24,2.66.98,4.24,3.51,7.34,5.07-5.2-7.06-11.26-13.8-18.66-18.59-.33-.21-.81-.25-.74-.82-4.5-3.06-9.22-5.44-14.14-8.08,5.36,1.52,10.18,3.54,14.73,5.86,2.09,1.06,4.92,1.39,7.36,3.03-4.04-4.08-8.97-6.36-13.69-8.91-.47-.26-.48-.26-.76-.79-6.01-2.53-11.91-4.97-18.35-6.74,6.61.24,12.83,1.63,18.39,4.08,1.61.71,4.05.96,6.19,1.47-3.72-2.18-7.57-3.63-11.38-5.31-5.42-2.38-11.16-3.38-17.37-4.78,5.71-.78,11.31.41,16.7,1.63,1.65-.74-8.95-3.22-9.38-3.24-.35-.04-.91.12-.76-.48-.75-.08-1.75.02-2.25-.58-.51-.01-1.37-.27-1.94-.36-7.63-1.16-15.48-1.81-23.25-1.27-1.45.1-3.18,1.18-4.48-.08,9.44-1.43,18.72-2.5,27.86-1.29.93.12,2.03-.2,2.99,0,.74-.08.83,1.2,1.63.88.52.07,1.16-.05,1.35-.82-4.72-1.25-9.05-2.57-13.59-3.14-.37.15-.99.09-.63-.46-5.41-.47-10.81-.59-16.6-.65-2.21-.02-4.01,1.45-6.31.51,7.77-2.04,15.3-2.89,22.91-2.83-7.38-2.6-15.72-2.84-23.67-1.92-.77.09-1.6.09-2.37.18l-3.55.42c-6.51.76-12.52,2.84-19.03,4.86,5.67-3.06,11.78-4.9,17.81-6.9.96-.32,1.91-.92,2.94-.84-.24-.36.16-.51.37-.53.36-.04.65.04.92-.01l7.7-1.52c-7.65-.96-15.45-.37-23.14,1.95l-23.69,7.14-21.85,5.02c-1.45-.67-2.41-1.42-3.56-1.84-.31-.12-.92-.14-.66-.66-1.45-.34-2.71-1.31-4.06-1.9-2.57-1.13-5.27-1.73-7.88-3.16,3.09-.32,5.44,1.08,7.91,1.58,1.99.41,3.85,1.04,5.79,1.72.3.11,1.03-.05.73.58l4.85,1.59c-2.99-3.27-6.85-5.17-10.32-7.55l-8.23-2.8c3.27-.45,6.14,1.41,8.94,1.62,3.87.28,6.91,2.33,10.51,4.47.09-1.54-1.26-1.36-1.81-2.1-.42-.57-2.21-.7-2.12-1.49.87-.95,1.65.26,2.31.4,4.27.9,8.36,2.43,12.35,4.81-.57-1.87-2.32-2.14-3.5-3.01-.25-.19-.89-.17-.62-.69-.46.07-.75-.39-1.15-.49-.32-.08-.9-.2-.6-.67-.88.14-1.31-.98-1.82-1.29-2.48-1.47-5.42-1.91-7.79-3.92,3.01.48,5.33,2.36,7.84,2.91l2.34.51c.28.06.93,0,.69.55,2.92.16,4.64,3.44,6.48,2.89-2.02-2.11-10.42-7.12-13.1-8.35-2.35-1.08-4.83-1.8-7.22-3.05,2.92-.58,5.12,1.24,7.37,1.56,6.62.93,12.55,4.06,18.86,7.22-.81-1.93-2.94-1.98-4.16-3.08-.23-.21-.89-.18-.61-.71-.45.08-.55-.4-.66-.66-1.53-.48-3.08-1.55-4.5-2.53,1.85-.32,3.31.44,4.71,1.07.5.23,1.05.45,1.62.36.32-.05.91.05.69.52,2.28-.09,5.26,3.27,5.25,1.59,0-.21-10.85-6.25-12.32-7.05-2.53-1.36-5.43-1.7-8.44-3.1,2.93-.17,5.62,1.18,8.43,1.58,6.86.99,13.36,3.12,20.2,5.85-3.19-2.91-6.69-5.02-10.3-6.66l-7.78-3.53c2.99-.73,5.48,1.58,7.96,2.03,4.48.81,8.35,3,12.85,4.41-3.35-3.15-6.7-5.31-9.98-7.59-2.04-1.42-5.11-1.54-7.1-3.21,2.66-.16,4.93,1.18,7.16,1.6,6.67,1.26,12.76,4.25,18.85,7.03.31-2.02-1.63-.5-1.76-1.75-1.33-.17-2.78-.98-4.01-1.95-1.95-1.54-4.5-1.33-6.2-3.26,1.47-.94,8.29,3.83,8.89,3.32-1.76-2.1-4.11-3.79-6.33-5.45-1.77-1.32-4.25-1.53-5.98-3.32l6.5,1.82c4.26,1.19,8.68,2.38,13.09,4.52,1.19.58,1.85,2.47,3.69,1.62-4.36-2.5-8.15-5.98-12.66-8.05-4.03-1.86-8.77-2.22-12.95-3.18,1.53-.72,3.18-.27,4.57-.03l8.89,1.55c6.69,1.17,13.17,2.51,19.79,5.29-4.84-3.52-10.18-5.78-15.52-7.97-2.45-1-5.15-1.3-7.71-1.83,2.78-1.2,5.32-.43,7.73-.55,4.72-.24,9.26.63,14.31,1.37-5.55-2.6-11.29-4.38-17.27-4.69-2.41-.12-4.89-.55-7.96-.51-1.76.02-3.53,1.48-5.17.09,4.51-.6,8.43-2,12.54-2.01-2.81,0,6.97-.79,3.56-1.05-3.48-.15-6.83.94-10.76.31,4.29-1.34,8.64-2.52,12.97-1.94-6.22-1.99-13.48-.27-20.54.4-2.68.26-5.2,2.38-8.45,2.27,1.67-1.4,3.93-1.83,6.07-3.03,1.43.75,1.8-.99.33-1.03-.37.67-.69.59-.9.64l-5.94,1.21c-2.83.57-5.37,2.37-8.08,3.48.04.33-.04.7-.18.93-.12.19-.16.38-.84.33-.22-.02-.56-.37-.1-.62l1.13-.63,6.36-5.66c.61-.54,1.31-1.49,2.22-1.46-.24-.4.19-.76.1-1.16-2.31-.75-4.7-1.19-7.09-1.66-4.38-.86-9.24.94-9.27-.98,3.4-.52,6.41-.16,9.42-.47,5.21-.53,10.2.2,16.31.73-4.24-2.01-8.89-2.89-13.49-4.03-2.8-.7-6.02.96-8.94-1.07,2.96-.41,5.95.03,8.92-.16,5.95-.38,11.62.76,17.93,1.71-5.53-2.72-11.51-3.45-17.31-4.91-2.19-.55-4.62.21-7.18-.64,2.4-.64,4.82-.57,7.22-.82,7.53-.77,15.26-.72,22.79.66,1.43.26,2.84,1.43,4.49.75-5.75-2.32-11.71-4.52-17.88-4.97l-5.6-.41c-.83-.06-2.21.91-3.34.24-1.18.49-1.27-.35-.43-.95l9.38-.16c7.57-.13,15.32-.06,22.96,1.23.51,1.18,1.82.56.79-.3-4.31-1.2-7.92-3.36-11.87-3.91-.34-.04-.79.08-.69-.48-.99.06-10.11-2.2-13.61-2.07,4.7-.93,9.42.03,14.07-.03,5.77-.08,11.35.82,17.45,1.92-5.97-3.45-12.54-4.84-19.01-6.47-1.92-.48-3.84-.47-5.86-.79,2.52-.88,4.15-.46,5.87-.57,7.17-.47,14.41.11,21.75,1.15,1.92.27,3.35,1.9,5.65,1.21-3.93-1.98-7.94-3.29-11.99-4.5-1.7-.51-3.29-1.4-5.5-1.93,1.87-1,3.65.15,5.41.26,5.19.34,10.11,1.89,15.17,3.23-3.7-3.12-7.68-4.96-11.54-6.98-2.42-1.27-5.12-2-7.78-2.52,2.8-.8,5.28.47,7.74.57,6.31.27,12.44,1.32,19.04,2.66-4.29-2.78-9.02-4.57-13.69-5.37l-5.98-1.03c-1.32-.23-2.86.64-4.16-.44,3.38-.62,6.77-.03,10.14.12,5.17.23,10.07,1.3,15.51,2.49-3.63-2.31-7.73-2.82-11.39-4.61-.28-.28-11.69-.73-8.9-1.82,3.2.24,6.04.63,8.92.64,7.31.02,14.41,1.37,21.96,2.92-4.28-2.44-8.66-4.39-13.24-5.49l-5.27-1.27c1.94-1.02,3.71.24,5.26-.01,1.89-.31,3.89.27,6.01.04,4.21-.45,7.77.55,12.03,1.49-1.68-2.06-4.14-1.6-6.08-2.66-1.64-.89-3.84-.03-5.65-1.59,3.14-.71,6-.23,8.66-.04,3.16.23,6.26.72,9.42,1.29.34.72,1.36,1.23,2.43,1.08-.62-.98-1.55-1.36-2.43-1.68-5.65-1.99-11.22-4.25-17.16-5.27-2.42-.42-4.95.54-7.17-1.08l7.21-.17c6.71-.16,12.49-1.43,22.53-.39-5.75-1.96-11.73-3.83-17.84-3.89-.4.16-.62.12-.65-.39-2.44.02-4.89.24-7.75-.24,2.47-1.38,5.16-1.22,7.67-1.86,3.67-.94,7.28-1.17,11.5-1.12-8.13-2.51-16.72-2.23-24.98-.48-1.14.24-2.05,1.17-3.61.52.27-.67.91-.27,1.28-.62-6.01.56-12.22,3.13-17.75,6.01l-12.55,6.53c3.33-2.89,6.62-5.68,10.07-8.15.26-.19.27-.54.53-.7.26-.17.3-.7.73-.48.06-.33-.15-.51-.35-.69-.54-.5-.55.66-.92.87-8.1,4.66-15.1,10.32-22.39,15.61-2.34,1.7-4.39,4.35-7.43,6.14,2.06-3.13,4.73-5.28,6.86-7.74,3.55-4.11,7.27-8.15,11.6-11.91.67-.09,1.52-.42,1.24-1.26-8.87,5.22-16.48,11.35-24.01,18.68-2.7,2.63-6.81,7.24-9.42,9.3.02,1.12-1.18,2.02-2.12,2.49-.72.75-2.2,3.73-7.5,2.73-.37,1.29-2.07.49-2.96.71l-13.66,4.43c-2.38.96-4.26,3.59-7.26,4.22,2-2.36,4.96-3.35,7.22-5.02,5.14-3.79,10.69-7.25,16.61-9.66-.26-.38.19-.43.38-.54.33-.21.72-.31.9.02,1.04-1.24,3-1.69,4.59-1.71.57-1.29,2.28-.26,3.12-1.31l-4.24.04c-4.17,1.95-9.04,2.23-13.51,3.62.2.56-.35.48-.69.47-.71-.04-1.54.25-2.21.49-1.38.51-2.36,1.99-4.42,1.76,1.51-1.02,2.84-2.05,4.31-2.84,6.05-3.26,11.91-6.92,18.27-9.38,1.55-.6,3.12-1.86,4.83-2.35.33-.1.77-.33,1.11-.12.17-1.08,1.78.09,1.82-1.1-.19-.03-.4,0-.59,0-1.38.03-2.77-.07-4.14.06l-13.7,2.3c-1.45.44-2.99,1.68-4.95,1.84-.26.87-.39,1.13-.62,1.12-.53-.01-1.14.21-1.41-.29,2.32-1.17,10.78-6.25,7.02-3.73,4.27-2.86,9.22-4.79,14.19-6.11.09-.9,1.22-.38,1.83-.59,1.77-1.17,4.29-.66,6.54-1.53-6.94-.41-13.9.63-20.7,2.08-1.34.28-2.47,1.07-4.57,1.73.95-1.68,3.17-1.76,4.63-2.7,5.47-3.5,12.17-4.96,18.83-6.64,2.1-.53,4.55,1.31,6.38-1.02-5.97-.1-11.42.31-17.02.51-1.99.07-4.03,1.59-6.45,1.37,1.46-1.65,3.98-1.53,5.71-2.44,5.92-3.12,13.18-3.84,19.91-4.87-5.3-1.41-14.84.17-19.65,1.01-.18.03-.43.28-.96.17-.29-.06-.44-.28-.06-.61.33-.28.58-.49.91-.63,6.25-2.65,12.61-5.43,19.56-5.98,1.45-.12,2.94-.16,4.2-.99l-15.53.5c-2.59.08-4.84,1.26-8.14,1.6,2.65-1.22,5.42-2.29,8.21-3.29,4.6-1.64,9.39-2.85,14.35-4.12,1.66-.42,3.37.45,5.2-.5-5.96-.52-11.9-.17-17.83.41-2.84.28-5.45,1.62-8.24,2.24,2.55-2.33,5.52-2.75,8.09-3.73,4.12-1.57,8.18-3.07,12.7-3.43-1.32-1.04-2.53-.5-3.56-.51-2.56-.02-4.91,1.42-7.84,1.18,2.42-1.61,5.3-1.42,7.79-2.29,4.47-1.57,8.98-3,14.26-2.23,2.63-2.46-16.35-.38-14.91-.72l-6.94,1.69c2.16-1.54,4.63-2.49,6.96-3.78,4.33-2.39,8.96-3.87,13.7-5.26-1.87-1.17-3.21.47-4.75.4.23.55-.39.42-.65.34-4.64.63-9.12,2.24-13.6,3.61-2.22.68-4.28,3.13-7.05,3.68-.02,2.03-2.06.9-.5.43,1.72-2.65,5.15-3.43,6.87-5.17,4.43-4.5,10.28-6.92,16.18-10.54-4.94,1.48-9.58,3.65-14.31,5.7-2.9,1.26-5.45,3.46-8.7,5.34,1.85-2.67,4.68-4.58,6.91-6.93,2.3-2.42,4.54-5.09,7.65-7.24.41-.28.81-.39.97-.57,3.59-3.88-15.01,8.9-18.28,13.17l-5.47,7.14c.68-3.5,3.15-5.8,4.38-8.55,2.11-4.73,5.25-8.81,8.28-13.43-6.36,4.95-11.35,11.01-14.76,17.72l-4.51,8.9c.3-3.68,2.55-6.48,3.33-9.6.54-2.19,1.3-4.21,2.49-6.58l5.17-10.21c-2.85,2.76-4.43,6.13-6.77,9.29-2.16,2.92-3.58,6.16-5,9.26-2.38,5.2-3.64,10.7-4.94,16.63-1.75,0,3.29-16.93,3.24-16.62,1.16-7.29,4.21-13.71,7.52-20.3-4.24,4.57-5.75,10.14-8.76,14.93.27.97-.12,2.26-1.21,2.43l-2,5.21c-1.87,4.86-2.45,10.04-3.38,15.6-1.23-.88-.27-2.23-.15-3.27.48-4.29,1.24-8.51,1.35-12.72.15-5.87,1.58-11.33,2.96-17.39-4.33,9.02-6.3,18.72-8.23,28.47-.17.85-.26,1.63-.38,2.71l-.58,5.09c-.49-2.58-.13-5.16-.24-7.74-.16-3.65-.9-7.31-1.33-11.24l-1.35-12.48-1.53,23.08c-.28,4.26.42,8.48-.11,13.13-.9-1.87-.1-3.82-.54-5.82-.54-2.49-.71-4.95-1-7.32-.05-.4-.47-.74-.16-1.14-.46.09-.48-.29-.35-.59-.52-4.18-.94-8.39-2.37-12.56-.36,8.04.05,15.52.27,23.05.06,1.9.54,3.86-.01,6.13-1.09-1.88-.64-4.12-.99-6.01l-5.23-17.25,2.31,22.62c.18,1.79,1.38,3.55.19,5.38-.3-2.15-.89-3.76-1.39-5.41-1.65-5.42-3.6-10.66-6.09-16.27l2.06,10.97c.73,3.9,1.41,7.65,1.62,11.33.15,2.7,1.59,5.17.97,8.33l-2.61-8.41c-1.3-4.2-2.53-8.45-4.74-12.49l3.56,23.73c.27,1.78,1.31,3.69.89,6.04-.89-1.71-1.51-3.31-2.15-4.96-2.08-5.33-5.39-10.47-7.76-15.63,0-.25.15-.71-.26-.84-.38-.12-.78-.01-.88.3-.09.26-.02.64.02.94.04.27-.07.42-.22.65.66-.93,3.4,5.82,1.43,8.77-.2.3-.46,1.08-.94,1.08-.4,0-.85-.75-.97-1.09-.15-.44-.56-.94-.98-1.22.2.25.02.52-.06.75-.31.92,1.19,2.34.76,3.36-1.26,2.99-3.25,5.29-4.57,7.86-1.34,2.6-2.33,5.45-4.35,8.25.32-3.2,2.51-5.88,3.34-8.81,1.02-3.59,2.33-7.13,3.55-10.71.14-.41.16-.79.75-.83l2.03-7.41-8.2,12.49c-1.3,1.99-1.62,4.99-3.38,6.73.4-3.09,1.72-5.27,2.27-7.53,1.64-6.69,3.79-13.22,6.16-19.99-1.25-.28-.93,1.32-1.22,1.81-2.29,3.97-4.6,7.74-6.3,11.78l-3.75,8.9c-.26-3.41,1.72-6.17,2.28-8.95l4.42-22.05c-2.73,5.39-5.41,10.67-7.63,16.13-1.96,4.84-3.2,9.93-4.88,14.8-1.3-1.78.58-3.17.7-4.58.33-4.08,1.88-7.78,2.5-11.44l4.06-23.82-6.51,18.47c-1.01,2.85-2.2,12.49-3.37,14.34-.05-5.15,1.46-9.67,1.77-14.34.52-7.71,1.64-15.35,1.6-23.2-2.15,6.99-3.44,13.56-4.59,20.21l-1.45,8.4c-1.09-3.06.25-5.69.23-8.34l-.19-25.47c0-1.28.95-2.66-.39-3.91-1.13,1.27-.29,2.6-.46,3.89l-1.41,11.29c.13.3.14.67-.33.59.36.54-.1,1.16-.19,1.73-.67,4.17.12,8.35-1.2,12.99l-1.05-14.72c-.5-7.02-1.56-13.96-3.3-20.75-1.05,1.71.19,3.2.2,4.69.05,7.6-.09,14.74-.51,21.89-.12,2.1.21,4.2-.14,6.69-1.81-1.95-.66-4.41-1.04-6.67l-3.37-20.22c-.31-1.88.15-3.75-.56-5.79l-.17,16.03c-.02,2.25.14,4.26.11,6.88-1.4-2.46-1.4-4.76-1.8-6.99-1.15-6.51-2.81-13.04-5.98-18.94,1.48,6.2,3.88,11.67,4.02,17.8.06,2.78,1.51,5.23,1.1,8.47-.02.05-3.2-10.04-2.81-8.52-.08-.32-.32-.67-.1-1-.57.25-.41-.44-.51-.7-.43-1.06-.59-2.04-.65-3.55-.74.3-.98.8-.57,1.24l1.8,7.77c1.02,4.4,3.59,12.34,2.82,18.29-1.61-2.05-.47-4.68-1.29-6.78.9,2.29-2.99-15.12-4.82-19.28-2.72-6.18-5.59-12.42-9.69-17.94,3.34,7.71,7.1,14.77,8.3,22.82.35,2.36,2.11,4.66,1.6,7.61-1.35-2.28-1.6-4.82-2.61-7.11-1.84-4.18-3.42-8.44-6.33-12.49-.78-1.08-.37-3.12-2.29-3.53,2.61,5.89,4.32,11.73,5.92,17.66.35,1.28,1.71,2.39,1.14,4.33-.74-1.48-1.78-2.71-1.69-4.32-4.64-7.8-10.14-18.08-15.83-25.06,2.72,6,6.23,10.97,7.67,16.94,1,2,2.46,3.95,2.98,6.5-2-1.63-2.51-4.3-4.04-5.89-4.18-4.35-8-9.04-12.93-13.5-.25-1.13-.29-1.39-.56-1.42-.23-.03-.79-.03-.85.31.17-.95,9.08,12.07,10.08,13.87.89,1.62,2.87,2.64,3.6,4.7-1.71-.89-2.7-2.44-4.04-3.31l-14.22-9.32c0,1.58,1.41,1.96,2.3,2.58,4.62,3.22,8.73,6.93,12.48,10.86,1.68,1.76,4.22,2.9,5.74,5.19-2.32-.78-3.98-2.84-5.97-3.69l-6.41-2.74c-4.72-2.01-9.25-3.76-14.32-4.81,5.29,3,10.71,5.2,15.62,8.5,1.88,1.26,4,1.69,5.97,3.18-2.42-.02-4.09-1.4-6.06-1.66-6-.8-9.99-.66-15.88-.96.1,1.37,1.75.75,2.81.99,4.75,1.07,9.08,2.64,13.05,4.68-1.39-.72,8.52,2.82,8.26,3.32-.18.35-.69.26-.88.31-.21.06-.34-.92-.86-.98l-7.02-.93c-4.35-.58-8.75.33-13.2,1.03,4.85.42,8.91,1.43,12.99,2.92,3.59,1.31,7.39,1.85,10.84,3.75-3.97-.53-7.54-1.17-11.18-1.36-1.89-.1-3.87.17-6.11.47,1.91,1.01,4.27.66,5.94,2.1,1.29,1.11,2.88,1.21,4.18,1.79.26.12.57-.01.87.05.27.05.63.24.39.58.86-.11,1.56.54,2.34.8,2.44.83,4.75,1.86,7.07,3.16-3.07-.24-5.66-1.02-8.31-1.47-.52-.09-1.22.11-1.78-.09-.37-.14-.82.1-1.18-.13-2.62.08-5.36-1.01-8.44-.17,7.34,1.98,14.13,4.83,20.81,8.02,1.56.75,3.08,1.57,4.66,2.63-1.84.47-3.15-.77-4.59-.94-5.46-.63-10.74-2.22-16.8-2.11,6.88,2.03,13.38,4.37,19.22,8.1,2.21,1.41,5.31,1.62,7.55,3.91-.18,1.03-4.96-2.29-7.59-2.79-4.83-.93-9.59-1.87-14.99-2.16,6.71,2.66,13.09,5.44,19.01,9.32,2.09,1.37,4.78,1.92,6.7,4.05-2.71-.33-4.43-2.28-6.66-2.81-5.73-1.36-11.4-3.03-17.77-2.92,6.77,2.74,13.27,5.96,19.15,10.03,2.12,1.47,5.19,1.7,7.02,4.06l-7.12-3.02c-4.01-1.7-8.46-1.96-13.31-2.86-1.25-.24-.99.94.38.31,7.93,3.74,15.49,7.84,21.78,13.2,1.19,1.02,3.36,1.25,4.06,2.97.97.11,2.35.53,2.23,1.98-1.37-.53-1.95-1.28-2.23-1.98-1.43-.17-2.74-1.17-4-1.79-5.35-2.64-10.96-4.84-17.33-5.85,5.9,3.28,11.61,6.41,16.59,10.64,1.46,1.24,3.53,1.74,4.91,3.46-2.18.02-3.37-1.89-4.91-2.43-3.46-1.22-6.96-2.38-10.67-3.33-.6-.15-.9-.84-1.32-1.04l.85,8.63c.19,1.91,1.48,3.66,1.04,6.01-1.55-1.77-1.32-4.2-2.26-6.04-3.3-6.52-6.25-13.12-10.05-19.55,1.03,4.24,2.52,7.83,2.96,11.81.25,2.29,2.25,4.52,2.33,7.13.39,2.28-4.17-8.38-3.3-7.02-4.82-7.54-9.48-15.16-16.67-20.89,2.36,3.19,4.69,6.1,5.87,9.58.44-.28.52.33.6.64.05.2.21.4.02.59,2.43,3.46,3.64,7.77,5.79,11.63.46.83,1.43,1.43,1.22,2.58-1.2-.14-1.19-1.26-1.58-1.9l-6.54-10.43c-3.7-5.89-9.33-10.63-15.19-14.66.11.82,1.25,1.23.98,2,.47-.29.91.22.57.65.91.03,1.12,1.23,1.57,1.82,2.85,3.8,5.63,7.8,7.66,12.37l-8.54-10.05c-.35.04-.58-.35-.74-.56-.58,0-1.19-.55-1.25-1.16-1.17-.5-2.54-1.11-2.95-2.37-3.05-1.39-5.2-4.12-8.79-5.08,1.83,1.33,2.84,3.23,4.17,4.61,3.31,3.43,6.74,6.86,9.25,11.26-3.47-3.97-7.8-6.8-11.75-10.12-.27.07-.46.36-.86-.05-.18-.18-.63-.27-.31-.61l-11.09-5.52c-.34-.17-.61-.65-1.02-.41-.2.12-.42.32-.33.68,4.5,1.8,15.66,11.29,18.78,14.74-7.74-5.5-15-9.95-23.02-13.06,1.38.53-5.63-1.73-4.92-1.78-.44.03-.9-.02-.98.59.42.25,1.3-.2,2.01.31,5.99,4.33,12.35,7.15,17.49,11.51-7.41-3.71-13.82-7.45-21.19-9.54-2.91-.82-5.88-2.21-6.5-1.39-.15.19.17.39.87.33.21-.02.32.03.31.66.81-.4,1.5.11,2.3.45l6.86,2.83c1.02.42,1.67.3,2.09,1.39l-12.43-3.55c-1.77-.51-3.65-1.78-6-.95,1.2.57,2.35.81,3.5,1.07,5.29,1.19,10.39,3.39,15.4,5.78.26.47,1.33.32,1.22,1.25-5.77-2.05-11.65-2.8-17.55-3.21-3.77-.26-7.62.39-11.88.51,2.95,1.83,5.59.56,8.21,1.03,3.35.6,6.77.85,10.29,2.02l-11.55,1.4c-3.09.38-6.19,1.12-9.49,2.69,2.26.49,4.39-.14,6.57-.34,3.84-.34,7.68-.64,11.94-.38-5.1,1.28-10.09,2.52-14.86,4.51-.31.79-1.59,1.17-2.37,1.18.16.47-.3.54-.59.68l-3.66,1.86c2.09,1.73,1.93-1.54,4.28-.82,1.07-1.01,3.02-1,4.66-1.29,4.15-.72,7.63-2.63,12.34-2.67l-12.39,4.9c2.66.81,4.55-.91,6.74-1.24,7.13-1.08,10.56-4.17,12.38-2.75-9.66,2.66-11.25,6.01-18.85,10.83.23.24.06.99-.18,1.06l-1.23.34c-1.13,1.01.57,1.58.78,0,4.6-2.49,8.78-5.15,13.42-5.63,1.97-.2,3.97-1.95,6.45-1.46-1.39,1.42-3.64,1.82-5.17,2.63l-8.35,6.62c7.29-4.1,18.01-4.43,26.05-4.71,3.03-.1,6.16-.74,9.46-.48-2.87,1.22-6.54,1.31-9.35,2.73-5.25,2.65-11.14,5.94-16.71,9.18.97,1.08,1.71-.09,2.59-.62,2.19-1.33,4.73-1.54,6.94-2.12,6.36-1.68,12.95-3.47,20.56-3.92-4.04,1.23-8.15,2.26-12.3,4.41l-9.45,4.9c-1.1.57-2.39,1.03-2.96,2.48,1.7-.31,3.48-1.39,4.67-1.92l2.47-1.1c.47-.21,1.2-.41,1.73-.14.1-.9,1.2-.23,1.78-.5.92-.43,1.95-.31,2.92-.48,5.85-1.01,11.57-2.5,17.92-2.87-7.49,2.07-14.37,5.06-21.46,8.68-.71.36-1.84.18-1.76,1.22h1.78c2.72-2.19,6.97-2.41,10.57-2.77-2.35,1.38-6.87,3.65-9.31,4.53-.69.25-1.75,1.2-2.57,2.19,5.93-2.31,18.17-3.44,24.98-3.69,1.8-.07,3.62-.66,5.37,0-1.94,1.02-3.72.94-5.36,1.39-2.64.72-15.22,6.09-15.74,6.62-.41.42-.08.51.07.63.63.53.76-.66.95-.7,7.97-1.69,16.05-2.28,24.06-2.73.23-.01,12.24-.89,10.77,1l-9.9.07c-.25.62-.58.38-.87.41-5.63.54-11.08,2.28-16.57,4.18,6.65-.57,12.72-1.27,18.97-.97,1.2.06,2.71-.71,4.03.53-1.46,1.16-2.81.29-3.98.58-4.64,1.14-9.37,1.99-14.13,3.61-1.41.48-3.26-.07-4.2,1.64,5.61-1.29,11.24-2.27,17.07-2.17,1.28.02,2.67-.48,4.29.05-1.21,1.14-3,.52-4.22,1-3.1,1.23-6.5.93-9.77,3.16,5.91-.69,11.37.19,16.99.62,3.37.25,6.89-.03,10.6.62l-10.59.67c-4.07.26-8.49.46-11.85,2.49.34.24.78.12,1.18.12,2.36-.04,4.74-.06,7.04.56.28.08.58-.06.87.04.41.14.38.46,0,.6-.31.11-.63-.11-.87,0-.99.43-2.24-.04-3.63,1.07,3.01-.19,5.92-.74,8.95-.51,2.67.2,5.32-.24,8.35.23-1.4,1.08-3.15-.16-4.55.6-1.31.7-2.58.32-3.8.42-5.04.44-6.53,1.67-12.42-1.72l-1.18-.68c-12.31-7.06-61.52-21.12-79.29-16.57,7.81.7,15.81,1.2,23.22,3.94-8.76-1.18-17.15-2.05-25.6-.94-5.93.78-12.28,1.8-17.14,4.22,5.7-.84,11.54-1.79,17.81-1.1-2.07.88-4.2.1-6.37.57-4.36.94-8.6,1.53-12.64,2.79-3.4,1.07-6.76,2.21-10.05,4.15-.24.14-1.09-.12-1.43.48-.14.24-.67.67.32.64,5.81-2.57,12.34-2.95,18.63-4.4,1.54-.35,3.2-.65,5.04.05-8.27,1.19-16.06,4.15-23.6,7.86-.06.51-.24.58-.72.73-1.17.39-2.22,1.27-3.35,2.01-.78-.53-.87.09-.59.4.12.13.18.27.39.37,3.99-2.25,8.43-3.55,13.12-5.11-4.26,2.77-8.58,4.9-12.4,7.98-2.16,1.73-3.46,3.68-6.75,6.97,4.62-2.53,9.21-4.73,14.27-6.74,3.45-1.37,6.64-3.78,10.68-4.53-3.51,1.92-6.26,4.85-9.3,7.36-.17.66-.86,1.29-1.25,1.87-.21.31-.25.77-.78.6-1.29,2.73-4.1,4.32-4.93,7.87,2.76-3.19,5.86-5.49,9.16-7.69,2.33-1.55,4.33-4.03,7.46-5.17l-6.11,7.26c-1.25,1.49-1.97,3.52-3.09,5.53,2.31-3.18,5.26-5,7.95-7.1,3.74-2.92,6.97-6.88,11.61-8.99-3.97,3.45-7.76,6.57-10.73,10.68-.92,1.26-1.77,2.72-2.85,4.6,4.01-4.2,8.56-7.85,13.52-11.06,2.08-1.35,4-3.01,6.11-5.05,1.81.7-4.15,4.53-5.26,6.01-.86,1.14-7.41,11.08-7.39,11.1.27.32.51.32.91.31.59-.02,0-.91.33-1.25,2.91-3,5.75-5.48,8.86-7.55,1.71-1.14,2.86-3.95,5.22-4.17-1.27-.82,3.34-2.44,4.06-3.72,1.69.44-3.08,3.63-4.06,3.72-.61,2.19-3.43,3.36-4.55,5.18l-4.84,7.07c4.29-2.68,6.99-6.56,11.36-8.24,1.16-.8,2.28-2.78,4.19-2.98-.49-1.77,1.54-1.21.62-.5l-4.42,4.74c-1.34,1.44-1.99,3.45-3.16,5.04,2.17-1.88,3.71-3.61,5.63-5.03,1.77-1.32,3.26-3.42,5.54-4.48,1.68-.78,2.72-1.65,4-3.74.94,2.28-1.02,2.47-2.09,3.27-2.63,1.96-4.64,4.42-6.67,6.63-1.36,1.49-2.23,3.66-3.66,5.56,5.45-4.58,11.34-8.01,17.63-10.72,3.11-1.34,5.97-4.16,9.47-4.67-2.59,2.37-6.25,3.42-8.3,5.69-3.16,3.49-6.37,6.77-9.32,10.93,3.19-3,6.29-5.02,9.9-6.67-1.81.83,8.75-5.36,8.65-5.42.5.32.89-.12.68.67.38-1.39-9.34,6.93-8.27,5.69l-6.12,7.08c6.43-3.99,12.63-7.9,19.44-10.45,3.08-1.15,5.72-4.18,9.47-4.58l-8.99,5.52-11.78,10.33c6.13-3.76,12.26-7.16,18.91-9.34,1.75-.57,3.2-2.06,5.4-2.44-1.59,1.77-3.61,2.52-5.23,3.88-5,4.19-9.62,8.75-13.25,14.35,1.07-1.53,3.1-1.95,4.15-2.9,1.41-1.28,3.98-3,5.62-3.57.34-.12.42-1.33,1.05-1.22.41.07,1.47.07.68.54-1.77.91-2.88,2.3-3.61,3.58.89-.97,2.56-1.19,3.5-1.95,4.08-3.31,8.83-5.69,14.09-8.32-4.79,3.72-9.13,8.29-13.02,13.32.05.39-.19.82-.63.61l-2.17,3.47c3.17-2.45,5.98-4.72,9.27-6.43,2.88-1.49,5.22-4.05,8.23-5.31-.05.67-6.6,5.46-3.55,4.88,0-.5.24-.94.79-.65,1.24.65,3.72-1.8,8.23-3.64,2.16-.88,3.8-3.13,6.58-3.49-2.27,1.56-4.22,3.2-6.43,4.46-.45.26-.7,1.19-1.39,1.27.2.54-.32.55-.6.77-3.78,3-7.34,6.61-9.78,10.82,3.26-2.33,7.04-4.97,10.25-6.58.48-.46,1.18-1.65,2.54-1.26-.65,1.07-1.69,1.71-2.49,2.25-2.26,3.2-5.4,5.61-7.29,9.27,3.84-3.33,8.11-5.77,12.09-8.63l7.5-5.39c-1.28,2.72-4.69,3.55-6.35,5.94-1.67,2.4-3.69,4.37-5.36,7.06,2.29-2.23,4.77-3.61,7.16-5.22,2.3-1.55,5.01-2.61,7.13-4.98,3.86-2.43-6.61,7.08-5.8,6.08-1.98,2.18-3.57,4.79-5.82,6.98-6.79.14-13.45.19-20.37,1.05-9.97,1.24-19.55,1.53-29.56,2.02-9.15.45-17.71,2.3-26.01,6.17-.41.19-.66.3-.7.41-.05.17.34.4.36.6.1.34.22.45.36.08-.22-.43.05-.8.52-.72.57-.07,1.1-.28,1.64-.05-.13-.5.37-.66.73-.45.57.16,1.2.02,1.77-.06,4.39-.64,8.85-1.49,13.75-.99l-13.71,3.13c-.19.04-.37.18-.57.07-.92,1.21-2.76,1-4.05,1.69-1.82.98-10.47,4.6-10.63,6.06,6.21-2.74,12.93-3.92,19.72-4.91,1.46-.21,3.1-.91,4.4.04-9.06,1.14-17.13,4.61-24.83,8.88-2.11,1.17-4.3,2.72-5.91,4.38,6.5-3.47,13.66-5.54,21.03-7.3,1.12-.27,2.38-.98,3.81-.07-8.92,1.88-16.96,6.17-24.91,10.8-1.83,3.32-5.47,2.7-3.53,4.12,4.75-3.71,15.26-7.77,21.34-10-4.24,2.76-9.01,4.23-13.06,7.65l-7.66,6.49c-.07.41-.04.98-.65.73-1.58,2.03-3.16,4.35-5.29,6.32-.7.65-.56.78.03,1.32,3.33-3.69,7.48-6.72,12.01-9.8.71-.48,1.07-2.06,1.99-1.28-3.91,2.97-9.84,9.68-12.38,13.46-1.44,2.15-6.12,11.13-7.41,14.73,2.32-3.72,5.34-6.85,8.33-10.08,1.02-1.1,9.66-10.95,11.08-10.41-4.83,3.93-6.93,10.55-9.56,15.23,0,.23.42.47.05.87-.14.15-.15.62-.53.36-.5,3.43-2.75,6.22-2.74,10.23.91-2.91,2.83-5.07,4.08-7.43.52-.99,5.61-11.24,6.3-10.22.45.66-.57.65-.7,1.05l-3.86,11.12c-.33.94-.85,2.77-.47,4.2,1.06-3.45,2.34-6.52,3.97-9.65,1.87-3.6,3.5-7.38,6.23-10.67l-3.97,11.76c-.9,2.65-.55,6-1.09,9.09,1.68-5.53,4.1-10.65,7.21-15.56,1.94-3.07,3.3-6.44,5.6-9.45-1.23,3.91-3.13,7.17-4.04,10.76-.61,2.44-.63,5.2-.97,7.73,3.45-6.09,5.93-11.85,9.9-16.72,1.89-2.32,2.35-6.19,5.31-8.09-1.66,3.32-3.16,6.62-4.08,9.98-.77,2.81-1.46,5.7-1.88,9,1.66-2.56,2.29-5.24,3.5-7.77.14-.29.08-.92.64-.66-.18-.55.56-.83.7-1.18,2.14-5.17,4.93-10.08,8.1-14.89l-7.02,16.75c-.81,1.94-1.37,4.07-1.71,6.89,2.54-6.8,6.45-13.1,10.49-19.38.18-.28.17-.76.68-.58,1.41-2.72,3.37-5.1,5.16-7.75-.48,3.03-2.73,5.24-3.41,7.79l-2.35,8.86c-.86,3.23-1.22,6.28-2.5,9.43,1.9-.32,1.06-1.96,1.59-2.9,3.63-6.48,7.08-12.31,11.66-17.33,1.71-1.88,2.39-5.11,4.93-6.6-1.17,3.82-3.01,7.01-3.78,10.33-.99,4.26-2.42,8.3-2.84,13.17,1.34-4.59,3.53-8.25,5.77-12.02-1.03,1.73,6.49-14.52,5.92-9.79-.03.22-.73.3-.95.81l-3.21,9.59c-.99,2.95-1.42,6.02-1.65,9.55,2.26-6.4,5.49-12.06,9.4-17.31,2.08-2.79,3.5-6.51,6.2-9.56.23-1.32,1.82.39.12.7-1.29,3.71-3.11,7.25-4.01,10.7-1.13,4.33-1.87,8.83-2.31,13.6,1.58-4.44,3.69-8.54,6.06-12.53,2.48-4.18,4.74-8.54,8.08-12.48-2.16,5.16-5.12,9.45-6.41,14.4l-2.45,9.44c3.57-6.38,6.99-12.74,11.93-17.9,1.53-1.6,2.18-4.37,4.46-5.59l-3.42,7.57c-1.62,3.59-2.74,7.5-3.42,12.23,2.14-4.29,4.26-8.59,7.24-12.48,1.96-2.56,3.87-5.22,6.06-7.7l-4.56,7.84c-2.01,3.46-3.16,7.5-4.01,12.05,2.98-4.75,5.86-9.07,9.36-13.09,1.29-1.48,1.61-3.72,3.51-4.95.08,2.13-1.88,3.2-2.41,4.73-.94,4.49-2.73,8.79-2.73,13.79,2.14-5.36,4.79-10.34,8.16-14.86,1.8-2.42,3.79-4.89,5.78-7.02-.97,3.26-3.71,4.94-4.66,7.55-1.51,4.13-3.73,7.97-4.57,12.49,1.58-3.26,3.49-6.18,5.81-8.82.88-1,.9-2.86,2.74-3.81.45,1.66-1.18,2.38-1.54,3.69-1.03,3.74-2.4,7.39-3.14,11.21.47-.1.75-.73,1.29-.58,2.1-4.91,5.6-9.23,8.64-13.7,1.36-2,1.9-4.52,3.8-6.44l-2.49,6.57-1.94,8.18c-.15.65-1.4,1.42-.69,2.9-2.24,1.22-4.87,2.21-7.22,3.02.07.34-.12.66-.35.72-.38.09-.84-.13-1.06-.03-16.17,7.88-30.85,17.99-43.64,31.28-4.85,5.05-9.74,8.93-14.82,13.65-8.12,7.54-14.96,15.64-20,25.37-.19.37-1.1.35-.67,1,.15.22.32.37.73.3,1.79-4.13,9.73-11.03,13.48-14.4,1-.9,1.93-2.26,3.61-1.9-4.6,2.23-12.89,14.11-15.51,18.14-1.7,2.61-2.71,5.91-3.97,8.73,3.55-4.16,7.57-8.9,11.23-12.69.39-.41.71-1.71,1.94-1.12-4.92,4.81-7.95,10.98-11.01,16.92-1.27,2.47-1.25,5.55-2.9,8.14.91-.14,1.28-.58,1.46-1.12.28-1.94,8.56-15.2,10.53-15.94-3.57,5.58-6.47,11.19-8.5,17.17-1.12,3.3-1.98,7.46-1.56,10.63,1.86-6,3.63-12.21,7.47-17.83-2.52,6.53-4.49,13.15-5.35,20.19-1.14,9.32-.59,17.14,1.14,26.67.3-3.45.16-6.78.82-10.13.43-2.18-.04-4.62.84-7.09l.86,7.12c.42,3.47,2.12,6.86,4.07,10.22-.32-5.43-.76-10.15-.78-15.07l-.02-7.02,1.5,7.12c.58-.05.46.24.58.64.82,2.03,1.06,4.39,2.81,6.58-.63-4.69-1.5-9.14-1.33-13.77.09-2.43-.66-4.92-.03-7.68.67,2.5.49,5.27,1.47,7.66,1.08,2.64,1.94,5.3,3.28,7.94.44-2.16-1.1-3.54-1.38-5.49-.64-4.52-.91-8.82-.71-13.04.11-2.27-.18-4.54.22-7.16.34-.06.78,6.53,1.04,7.16,1.27,3.14,1.04,7.09,3.5,9.47-.63-2.14-2.42-10.39-1.54-12.47,1.33.14,1.01,11.1,2.13,10.11.45-8.36.57-16.77,2.65-24.89.42-1.66-.17-3.55,1.16-5.46.72,1.9,0,3.72.26,5.49l2.52,16.7c1.38-1.1.12-2.72.09-3.94-.15-6.42.65-12.92,1.65-19.23.47-2.99.46-6.02,1.52-8.97l.03,9.01c.02,5.84,2.16,11.6,4,17.17,1.21-1.99-.63-3.68-.68-5.33-.13-3.79-.36-7.26-.15-10.67.27-4.48-.71-8.23,1-11.97.54,4.26-.34,8.14.51,11.93,1.14,5.09,2.37,10.1,3.97,15.5,1.09-1.73-.35-3.32-.6-5.09-.72-5.04-.85-10.14-.58-15.12l.67-12.51c.55,3.62.37,7.13,1.22,10.64,1.1,4.54,2.39,8.96,3.99,13.75,1.26-.72.09-1.84-.04-2.67-1.23-7.8-1.09-15.77-.42-23.55.19-2.2-.04-4.51.69-7.13,1.3,2.28.33,4.82.77,7.19.62,3.36.82,6.8,1.82,10.04,1.77.61-.76-4.71.28-5.2,1.3-.61.74,8.25,2.16,7.63-.18-5.49-.18-11.07.56-16.54.44-3.28.16-6.65,1.4-10.24.56,3.12.13,6.07.88,8.99,1.24,4.85,2.35,9.58,4.04,14.32.04-2.73-.66-4.83-.42-7.17.2-1.9-.7-4.05.3-5.95.9,2.11.65,4.19,1.28,5.94,1.12,3.1,1.1,6.43,2.8,9.77-1.12-7.56-1.29-14.84-.76-22.29.27-3.72-.36-7.45.2-11.21l1.82,10.69c.11.62.7,1.23.39,1.79.54-.11.37.38.46.67,1.15,3.74,1.84,7.56,3.67,11.52.16-3.01-1.35-5.35-.84-8.05-.06.05-.51,0-.51-.13l.26-17.08c.85,3.95.78,7.96,1.85,11.83.68,2.49,1.13,5.1,2.53,7.86.03-5.13-.79-10-.08-14.98.28-1.94-.82-3.95.22-6.22l1.18,6.22c.54,2.87,1.2,5.78,2.9,8.49-.49-5.08-1.62-9.64-1.15-14.34.23-2.24-.8-4.02-.33-6.66,1.06,2.3,1.36,4.5,2.06,6.76.95,3.04,1.64,6.3,3.55,8.86.81-3.52-1.49-5.87-.12-7.23.46,2.89,1.39,5.23,1.37,7.76.52.04.59-.18.65-.47.12-.63-.37-1.54-.39-1.96l-.34-9.41c-.1-2.91-.75-5.86.04-9.31l1.73,6.96c.47,1.91.58,4.14,1.79,6.18.16,1.24.73.91.89-.23-1.3-2.4-1.06-4.74-1.03-6.99.05-3.26-.68-6.55.67-9.7-.11,3.54.65,6.55.75,9.68.53-.28.72.09.48.54.39,2.21.41,4.48,1.07,7.07l.83-14.23.77-7.19c1.09,2.06.37,4.52.95,6.54.71,2.3,2.84,5.12,2.92,7.55l-4.47,8.47c2.38-3.05,5.27-4.96,7.53-7.24,2.64-2.66,5.15-5.55,8.43-8.41,1,1.22-1.05,1.58-1.53,2.16l-5.66,6.86c-5.49,6.66-9.09,14.92-11.81,23.84l5.87-7.17c2.5-3.06,4.68-6.55,7.56-9.44l-5.88,9.6c-3.25,8.73-6.6,17.38-7.53,27.14l2.89-4.79c2.6-4.32,4.56-9.08,6.8-13.74.91,2.31-1.36,3.62-1.93,5.26l-3.18,9.09-2.34,11.33c1.21-2.16,2.13-4.11,3.01-6.13,1.55-3.58,2.84-7.26,5.15-10.69l-3.32,12.57c-.8,3.05-1.03,6.34-1.3,9.46-.09.39.2.68.59.59.27-2.22,1.09-4.36,1.8-6.51.03-.36.09-.96.59-.57.63-2.86,1.3-5.71,2.82-8.44.04,3.21-1.21,5.74-1.35,8.54-.69,14.18,1.82,28.26,7.22,41.53-.35-4.89-1.54-8.97-1.02-13.33.32-2.69-1.47-5.77-.22-8.8.3,2.8.33,5.68,1.25,8.35,1.03,2.96,2.41,5.81,3.11,8.83.39.09.68-.2.59-.59-.89-3.2-2.26-9.39-2.37-13.04-.04-1.26-.68-2.6-.24-4.37,1.6.94.7,3.35,1.36,4.31,1.59,2.31,1.31,5.3,3.53,7.82-1.28-3.95-2.14-7.74-2.61-11.83-.26-2.26-1.35-4.57-1.49-7.22-.07-1.16.44-1.28,1.15-.4-.05,2.26.3,4.79,1.7,6.43l-.44-8.45c-.07-1.28-1.41-2.96-.38-4.72,1.19,1.38.8,3.32,1.52,4.75,1.69,3.35,2.25,7.14,4.78,10.26-2.18-6.41-4.01-12.55-4.12-19.03-.03-1.54-1.37-3.38-.28-5.4.54,1.78.57,3.68,1.28,5.36,1.51,3.53,3.02,7.09,4.31,10.67.39.09.68-.2.59-.59-1.35-6.18-2.61-12.57-2.97-18.93-.11-1.9-1.17-3.73-.34-5.93l1.54,5.97c1.08,4.17,3.61,7.94,5.94,11.87-2.27-7-3.66-13.68-4.58-20.64-.29-2.15-1.09-4.17-.54-6.76l2.14,6.62c1.53,4.73,3.63,9.32,6.84,13.84-2.35-6.08-4.02-12.17-4.5-18.57-.14-1.82-1.92-3.68-.86-6,.63,2.12,1.36,4.05,2.07,6.04,1.44,4.05,2.9,8.09,5.38,11.91-1.66-6.67-3.63-12.69-4.15-19.15-.13-1.66-1.1-3.27-1.05-5.25.92,1.67,1.25,3.55,2.04,5.19.69,1.43,1.68,2.74,2.34,4.36.09-3.24-1.18-5.58-1.4-8.2-.15-1.79-.89-3.4-.63-5.6,1.04,1.85,1.51,3.66,2.24,5.45l5.29,13.02c.13.31.24.67.61.94.7.5.55-.37.59-.65.08-.61-.14-.93-.61-.88-1.73-7.13-2.96-14.54-3.68-21.89-.28-2.89-1.95-5.59-1.46-8.99,1.2,2.92,1.43,5.77,2.74,8.48,1.05,2.16,1.08,4.74,2.63,6.91,2.03,2.84,1.86,6.59,4.48,9.1-1.11-3.49-2.46-6.32-2.25-9.66-.16-2.11-2.13-4.21-1.43-6.82,1.43,2.5,1.57,4.99,2.9,6.96,1.37,2.03,1.97,4.21,3.32,6.83.29-2.84-1.28-4.76-1.74-7.48-.9-5.33-2.11-10.36-2.69-15.39-.16-1.42-1.63-2.81-.8-5.23.59,1.84,1.4,3.53,2.1,5.32,2,5.17,4.64,10.01,7.52,15.4-.9-4.68-2.54-9.03-2.75-13.76-.08-1.76-1.58-3.21-1.05-5.36,1.3,1.5,1.28,3.74,2.16,5.27l4.76,7.32c-.71-3.08-1.97-5.57-2.38-8.32-.51.2-.45-.35-.47-.69l-.06-1.65c-1.02-3.13-2.42-6.65-3.46-10.56,1.64,2.79,3.36,6.27,4.64,9.35.27.22.97.59.66,1.07.47-.3.45.37.59.64,1.38,2.64,2.89,5.11,4.62,7.7-1.27-4.95-3.21-9.35-3.46-14.16-.19-1.08-1.51-2.47-1.03-4.06,1.27.98,1.64,2.75,2.09,3.97,2.08,1.46,2.12,4.24,4.2,6.1l-4.05-13.13-2.55-5.14c-.4-.81-1.97-1.19-.76-2.66,1.17,2.96,3.19,5.28,5.01,7.77.24.33.57.94,1.11.63.01-1.07-1.28-1.58-1.06-3.07,1.19.69,1.67,2.01,1.72,3.12.45-.31.53.25.67.51,1.47,2.75,3.48,5.02,4.99,7.46l-2.19-6.82c-.56.26-.45-.4-.52-.66l-1.16-4.22-4.1-8.6c2.39,2.21,3.72,5.43,5.75,7.96,1.77,2.21,3.52,4.37,5.54,6.51-1.67-3.66-3.25-6.19-4.27-9.27.41,1.24-5.68-10.59-1.69-10.53l-.95,2.41c-.44,1.12,1.6.74,1.67,1.5.15,1.63.04,3.4,1.75,3.53.29-1.4.32-2.74.39-4.07l.05-.89c.03-.53.39-.16.6,0,.47.33.49.7.54.97,1.24,1.1,1.92,3.18,2.7,4.7.62-.95.07-1.73.62-2.45.31-.4.88-.7,1.73-.39.59.22,1.06,1.08,1.12,2.3,1.37,27.47,1.71,54.51,1.42,82.19-.4,37.92-2.73,75.22-6.55,112.97-2.95,29.2-7.25,57.72-13.14,86.22-4.65,22.53-11.49,46.67-22.73,66.46-.19.34-.23.84-.78.75-.73,1.52-1.57,2.97-3.03,4.4-.45-2.43-1.38-4.71-.4-6.8.42-.88-.12-2.44-.21-3.74-.6,1.24-.95,2.35-.98,3.61-.03,1.19.27,2.45-.24,4.15-.97-1.14-.63-2.95-1.46-4.1-1.11-1.53-1.26-3.18-2.21-4.89l.29,3.66c1.33,1.94,1.79,4.69,2.13,7.57-2.13-1.76-2.78-4.12-4.48-5.78-1.87-1.81-3.42-3.92-5.59-5.63-.22,1.18.98,1.32.98,2.16,3.33,2.18,5.23,6.23,7.33,10.06l-7.5-5.39c1.03,2.08,3.63,2.31,4.6,5.68-1.36-1.19-2.95-2.2-4.91-3.27.41,1.72,1.9,1.99,2.9,3.32-1.32.4-2.36-.04-3.59.19l-2.45-4.77c-.6-1.16-4.1-5.98-3.83-5.92-.26-.06-.64.06-.91.19.71,1.29,1.54,2.65,2.05,4.3-1.88-.66-2.75-2.87-4.33-3.79-3.93-2.28-7.97-4.48-12.49-4.61,5,2.56,9.31,5.61,12.09,9.95.51.79,1.86,1.24,1.77,2.68-1.01-.14-1.86-1.33-2.61-1.66-8.01-3.46-12.09-3.84-20.81-1.85,4.74.07,9.03.24,12.62,2.71,1.38.95,3.17,1.32,4.4,2.79-1.85.43-3.37-.71-5-.7-3.51.03-7.23-.25-10.63,1.47-.35.18-.46.54-.98.36-.25-.09-.51.33-.03.57.22.11.55.08.81-.01,3.17-2.47,8.61-.98,12.63-.27-4.5,1.34-8.61,1.17-12.6,1.96l-25.22,5c-17.96,3.56-35.95,5.72-54.12,7.25-1.72.15-3.44.09-5.27.7,6.26.38,12.39-.08,19.01-.19,13.36-.22,26.28.21,39.61-1.26,15.48-1.7,30.51-3.14,45.63-1.35,3.18.37,6.53.06,9.73,1.37-3.85,1.36-7.07,1.46-10.25,1.92-3.44,1.46-7.48.37-11.24,2.49,66.62,1.64,132.8,1.84,198.76,1.14-.94-.59-1.24-.49-1.24-.88-1.29-.31-3,.5-4.23-1.04,1.43-.64,2.92-.15,4.31-.16l28.31-.16,28.37-.38c3.83-.05,7.48-.38,11.07.03.65.07,1.84,1.34,2.2-.59-2.97-.42-5.73-.04-8.51-.18-1-.05-2.29.44-2.96-.59-1.07-.17-2.51.11-3.63.01l-70.27-6.18c-6.88-.6-12.97-1.91-19.59-3.51l-13.6-3.29c-.84-.2-1.81.53-2.72-.8,1.1-.41,2.01-.84,2.84-.9,4.97-.33,5.43-2.08,11.67.08,1.44-1.77-10.43-2.85-10.64-2.84-4.05.12-8.24,1.9-12.23,2.43,2.75-2.07,8.93-3.88,12.19-4.01,1.13-.04,3.08-1.47,4.27-.07,1.11-.37,2.14.19,3.55-.2-4.42-1.26-9.13-1.42-13.79-1.48-3.68-.04-7.11,1.86-10.52,3.65,2.48-3.41,6.6-4.37,9.92-5.91,4.61-2.14,9.34-2.94,15.1-2.37-1.12-2.26-13.9-.81-16.13-.52.07.48-.25.44-.59.35l-2.37.19c-5.92,2.18-2.84,2.12-8.67,3.21-3.1.58-4.87,3.23-7.73,4.98,3.85-4.7,8.73-9.58,14.53-11.81.19-.4.68-.87,1.23-.65-.26-.39.14-.46.36-.55.37-.15.65-.19.88,0,1.13-.98,3.08-.73,4.76-1.62-6.79-.26-13.2,2.23-18.91,5.8.25.53-.35.48-.65.57-2.18,1.73-4.23,3.55-6.31,5.79.94-3.6,3.34-6.09,5.11-8.8,3.97-6.11,9.15-11.61,15.21-16.12.41-.3,1.4,0,1.41-.74.01-1.21-.41-.43-.7-.51-.17-.05-14.13,8.4-15.93,10.36l-5.07,5.52c.84-3.09,2.84-6.36,4.19-7.92.41-.48,1.18-1.59,1.35-2.9-4.17,3.77-6.68,9-9.97,13.63-1.04,1.47-.67,4.18-2.53,5.54.14-3.48-.06-6.53.74-9.24.37-1.27.87-2.57.5-4.15-.44.62-.85,1.26-1.04,1.87l-1.44,4.73c-.69-1.7-.19-3.38-.36-4.73l-.9-7.18-.97,14.23c-.07,1.03-.23,2.16-.7,3.62-.53-.94-.7-2.56-.85-3.5-.35-.06-.62.16-.69-.39-.03-.28.04-.59-.06-.89l-1.54-4.25c-.59-.38-1.33-2.23-1.94-1.07.91,2.23,2.77,4.26,2.17,7.17-.91-2.61-2.22-4.81-3.35-7.17.07-.45-.06-.97-.63-.6-.85.47.29,1.17-.08,1.78,1.35,2.5,2.73,4.98,3.3,8.96-1.5-1.75-3.06-3.21-4.9-4.68.18-.49.11-.69-.05-.77-.14.14-.63.05-.74.31-.12.3-.1.6.15.78,1.18,1.64,2.77,3.15,3.19,5.68-1.34-1.02-2.18-2.07-3.28-3.42.31,1.87,1.47,2.87,2.25,4.41-1.5.41-1.61-1.93-2.51-.08-1.52-1.86-.94-4.2-1.33-6.44-1.29-7.52-1.58-15.03-1.91-23.15-1.12-27.36-.41-54.17,1.41-81.54l2.97-44.48c2.13-31.88,2.8-63.23,1.11-95.22l-5.45-102.91c-.07-.78.64-.74.59.03.96.29,1.36,1.31,2.23,1.73.56-1.18,1.03.02.59.67-.21.4.02.73.05,1.09,1.7-1.18,1.75-3.61,2.98-5.36.13,3.07-1.76,5.42-2.8,7.81.03.41-.13.81.18,1.05,2.08-1.71,3.38-4.15,4.82-6.51.16,3.05-2,5.17-2.69,7.58-.77,2.67-.95,5.72-2.53,8.33-.21.35-.62.4-.49.99.11.52-.04,1.08.65.65.69-.43.34-.96.53-1.5.56-1.53,1.62-2.89,2.43-4.18,2.25-3.58,4.33-7.19,7.05-10.76-1.65,4.56-3.65,8.41-4.77,13.12-.05.19-.16.23-.29.17.2.19-.04.4.09.87.51-.66,1.21-1.08,1.62-1.7l6.13-9.33c.39-.59.17-1.91,1.59-1.7-2.43,4.53-4.29,9.02-6.07,13.52-1.35,3.41-2.14,7.14-3.98,10.77-.31.62-1.41.67-.62,2.08,1.58-2.86,3.79-5.35,5.63-8.17.26-.4.31-.57.79-.72l7.07-11.06c.46-.72.72-1.5,1.67-1.88.28,1.22-.75,1.74-1.14,2.61l-6,13.49c-1.2,2.69-2.14,5.45-4.1,8.41l8.63-9.24,7.27-9.95c-.88,3.96-3.59,7.16-4.6,10.67-1.4,4.82-3.17,9.34-5.35,14.35l6.15-8.6,6.56-9.9c2.4-3.7-5.67,13.01-4.96,11.33-1.46,3.48-2.73,6.98-4.72,10.82l8.39-9.74c1.15-1.45,1.85-4,3.69-5.12-.16,2.61-2.03,4.47-2.71,6.45-1.45,4.23-3.36,8.39-5.76,12.78-1.39.41-.41,2.05,0,.62l12.38-14.32,4.01-6.42c-.03,2.97-2.16,5.02-2.85,7.28-2.12,6.94-5.26,13.48-8.96,20.07,4.11-3.99,7.55-8.21,10.92-12.54,1.35-1.73,2.06-3.95,3.68-5.71.27,2.31-1.31,4.06-1.6,5.89-.86,5.43-3.02,10.32-4.54,16.25l4.65-6.3c1.83-2.49,2.21-5.97,4.75-8.24-.6,3.26-2.45,5.93-3.18,8.8-1.25,4.96-3.3,9.51-5.78,14.72,4.08-4.78,7.49-10.14,11.29-15.27,1.86-2.51,2.38-6.35,4.57-8.74l-2.89,8.88c-2.49,7.63-4.47,15.49-8.21,23.04,4.74-5.17,9.09-10.57,11.9-16.58l3.28-7.02c.47-.08-1.95,7.5-2.09,8.24-1.08,5.88-2.86,11.51-4.77,17.57,1.47-1.13,1.98-2.68,2.59-4.08l2.48-5.71c.2,2.76-1.17,4.44-1.54,6.21-.4,4.29-2.18,8.19-3.39,12.67,4.85-7.13,8.67-14.74,11.76-22.54,1.03-2.61,1.7-5.27,2.61-8.37.44,2.85-.58,5.55-1,8.28-1.37,8.93-3.31,17.87-6.6,26.5-.45,1.18-2.48,2.08-1.32,3.91,3.75-6.49,7.65-13.63,11.04-20.33,1.58-3.11,1.4-7.03,3.31-10.12.23,3.93-1.82,7.32-2.25,10.74-.69,5.52-1.89,11.16-4.14,16.56-1.15.37-.57,1.74.4.71.34-2.45,2.69-3.81,3.41-5.51l2.75-6.43c.33-.76.17-2.07,1.18-2.4-.09,3.53-2.02,6.43-2.42,9.49-.88,6.65-2.8,13-5.59,19.54,1.69-.52,1.47-2.34,2.21-3.6,2.69-4.54,5.24-8.88,6.93-13.54.12-.32.1-.99.65-.66-.05-.23.1-.36.17-.55,1.46-3.92,2.5-7.85,3.77-11.92.13,4.8-1.24,8.98-2.08,13.13-.1.5-.17,1.18-.15,1.73.01.26.1.57.05.92-.03.21-.15.61-.51.36-.65,5.31-2.83,10.16-4.09,15.4,1.68-2.64,3.25-4.86,4.21-7.28l4.37-11c0,5.06-1.67,8.99-2.71,12.93l-2.47,9.42c1.35-1.95,2.78-4.7,3.53-7.06.12-.38.11-1,.71-.68,1.52-4.3,3.14-8.41,3.82-12.85.44,5.41-1.43,9.72-2.03,14.09-.58,4.23-1.71,8.35-3,12.45-.2.39.15.65.52.57,2.31-4.92,5.33-9.58,6.7-14.88l1.35-5.25c.09,1.95-.23,3.61-.05,5.24,1.01,8.84.01,17.67-1.39,26.83,2.24-4.39,3.24-9.09,4.67-13.69,1.06-3.4-.23-10.59,1.73-10.17.03,3.68-.27,6.93-.01,10.2.62,8.08-.22,15.96-1.78,24.35,1.75-2.92,2.21-6.09,3.2-9.11,1.07-3.27.96-6.88,1.82-10.68,1.47,3.09.42,6.46.83,9.63.69,5.32-.24,10.39-.96,16.11,3.12-7.67,4.25-15.77,5.27-23.85.43-3.43-.14-6.92.06-10.69,1.42,3.36.78,7.21,1.65,10.6.84,3.27,1.27,6.39,1.65,10.52.96.73,1.08-22.55,1.18-22.09l-3.3-15.6c-.61-2.87-2.77-5.27-2.82-8.35l4.23,8.28,5.05,10.9c-1.62-8.52-3.68-16.73-7.67-23.86l-4.25-7.59c2.62,1.76,3.48,4.94,5.32,7.01,3.89,4.36,7.18,9.26,10.51,14.82-2.3-7.95-5.58-15.74-9.89-23.01-2.37-4.01-5.93-7.36-8.73-11.34,3.59,2.92,6.59,6.43,9.93,9.47,3.12,2.84,6.83,5.19,9.38,9.36,1.1-1.09.01-1.91-.74-2.21l-10.51-14.34c-1.39-1.56-3.75-2.76-4.93-4.8,2.65.75,4.36,2.62,6.19,3.8l7.21,4.63c-3.31-4.47-6.57-8.8-10.4-12.43-4.5-4.27-10.1-7.03-15.16-10.74,5.71,2.43,11.12,5.51,15.87,9.09,1.46,1.1,3.7,1.38,4.5,3.73,2.29-.81-15.88-15.8-15-15.28l-10.7-6.34c4.08,1.06,7.58,3.35,11.15,4.87,2.48,1.06,4.97,1.88,7.8,3.39-1.41-1.35-2.45-3.12-3.67-4.06-6.49-5.02-13.32-9.21-20.77-12.96,6.9,1.68,12.59,5.47,18.81,8.9.54.04.27-.54.3-.71-4.91-3.99-10.11-7.6-15.99-10.74-.19-.23.56-.65.86-.5.2.1.25.66.91.91,3.99,1.5,8.54,3.4,11.81,5.61.12-.14.15-.3.08-.48-6.96-6.7-17.06-12.02-26.73-15.15.91-1.16,1.96.15,2.97.39,5.07,1.17,9.82,2.33,14.44,5.49.23-1.96-1.11-4.03.38-5.03-.12-.11.02-.43-.02-.59.28,1.22-.96-11.52-.25-11.1.98,2.79,2.42,8.57,2.55,11.56,0,.19.06.55.13.73.63,1.53.46,4.79.75,7.1,2.28-5.43,1.09-11.15.48-17.27,1.71,4.63,2.79,9.42,3.48,14.23.54.16.43.24.49.72.08.62-.03,1.77.16,2.31.49,1.19.28,3.57,1.23,5.17.72-3.77.98-7.36.78-10.82-.08-1.34-.97-2.91.02-4.46.75,3.65,2.17,12.26,1.93,16.03h.77c-.07-.9.31-2,.48-2.88.65-3.23-.1-6.53.15-10.18,1.35,2.55,1.17,5.65,2.14,8.16,2.1,5.41,3.13,11.13,3.87,17.4.73-2.42.93-4.77.98-7.16l.17-7.77c1.08,2.52.82,5.21,1.45,7.74.71,2.85.93,5.56.7,9,1.65-1.27.86-3,1.09-4.7l.65-4.86c.35-2.62-.13-5.28.25-8.43,1.23,2.33,1.71,4.72,2.13,7.12.49.18.58.24.56.76,1.01,3.59,1.28,7.15,1.54,11.24.37-3.34.58-6.82.33-10.14-.49-6.38-1.92-12.45-3.53-19.05,3.27,5.8,4.78,12.2,6.3,18.44.94,3.83,1.58,7.52,1.53,11.97.76-3.27,1.25-6.33,1.17-9.56-.18-.29-.18-.66.29-.59-.07-1.55-.09-3.18,0-4.73-.08.05-.5,0-.49-.12.43-4.5-.36-8.51-1.64-13.03,2,2.56,2.97,5.51,3.98,8.35.21.59.85,1.09.67,1.75.5-.2.71.41.56.76-.19.42.31.65.07,1.05.59-.23.44.42.52.71,1.14,4.24,2.92,8.43,3.16,12.98.05,1.03-1.08,2.65.82,3.21l.03-9.16c-.98-2,.07-6.27-1.79-10.46-.46-1.05-.91-2.23-.02-3.17l3.03,9.39c.33.42.91,1.12.71,1.78.36-.25.53.13.57.41.05.31-.06.62.04.89,1.41,3.86,2.41,7.82,3.23,11.88.88-3.04-.44-5.62-.31-8.3,0-.21-.01-.43-.05-.64-.25-.53-.07-1.28-.04-1.78-.85-3.02-1.52-6.07-2.26-9.55,1.98,2.83,2.67,5.95,3.91,8.93.16.37.54.74.3,1.17.36-.24.49.14.5.37.02.33-.03.6.07.87,1.99,5.07,3.11,10.33,4.35,16.06.86-2.85.11-5.6-.16-8.36l-.17-1.78c-.47-.92-.26-2.09-.47-3.07l-2.28-10.76c1.73,3.4,3.35,6.67,3.95,10.19.58.34.88,1.16.72,1.82.79.11.63,1.29.53,1.86,2.11,5.72,3.45,11.61,3.87,18.36.8-6.6.58-13.12-.14-19.7-.39-3.56-2.3-6.66-2.42-10.66,1.58,3.37,2.85,6.68,3.83,10.11.23.79,1.06,1.52.82,2.4.59-.23.43.43.52.71,1.46,5.05,2.9,10.12,4.03,15.49.39,1.86-.3,3.71.43,5.79.46-2.66.68-13.02.34-15.41-.44-3.08-.94-6.23-1.68-9.56-.28-1.24-1.44-2.24-.42-3.58,1.88,4.18,2.47,8.69,3.53,13.11,1.05,4.38,1.56,8.72,1.69,13.65l.99-11.4-.36-3.89c.95,1.12.73,2.65,1.31,3.89,2.54,5.42,3.23,11.3,5.08,17.47.53-2.75-.69-5.29-.63-7.9.09-3.63-1.09-7.08-2.47-10.64l-4.84-12.46c1.68.59,1.7,2.37,2.28,3.7,2.7,6.23,4.91,12.49,6.71,18.9.78,2.8,2.49,5.52,2.9,8.79.32,2.6.46,5,1.51,7.78,1.74-.81.84-16.92.78-17.24l-1.53-8.27c1.62,1.65,1.71,4.16,2.77,5.94,4,6.71,6.38,14.27,8.07,21.94.69-2.39.15-4.45-.13-6.45l-1.21-8.48c-.31-2.16-1.37-4.24-1.42-6.45-.48.07-.49-.28-.43-.64.09-.52.01-1.33-.08-1.81-.86-2.3-2.21-4.36-2.83-7.13l4.39,7.07c5.15,8.3,9.04,17.25,12.37,26.31.02-2.07-.49-3.68-.32-5.36.09-.91-1.36-2.25-.4-3.75,1.13,1.03.93,2.5,1.42,3.69,1.26,3.02,2.43,6.19,2.76,9.74.87.5,1.23-.23,1.05-.9-.94-1.7-.57-3.3-.75-4.75-.49-3.9-1.85-7.61-2.75-12.29,1.55,3.43,3.44,6.8,4.54,10.53,1.66-8.15-14.16-34.93-19.36-40.44l-9.98-10.55c-.2-.21-1.39.24-1.42-.14-.02-.27.07-1.2.49-.85,3.97,3.35,8.14,6.08,10.87,9.98.36.16.42-.18.57-.4.32-.48-.52-.52-.82-.89-21.28-26.72-62.87-45.35-95.12-54.2-1.61-7.59-4.88-14.17-8.2-20.8-1.11-1.4-2.83-2.81-3.67-4.69,2.07,1.07,3.15,3.27,4.71,4.47,6.3,4.82,11.32,11.37,15.81,18.5-.23,1.19.24-.08.33-.44.2-.74-7.05-13.57-8.3-15.57-1.46-2.33-3.96-4.05-5.44-7.02,2.86,1.45,4.43,4.08,6.55,5.97,3.96,3.55,6.85,7.86,9.96,12.47-1.66-5.58-3.7-10.79-7.01-14.92l-3.91-4.87c-.96,0-2.1-.9-1.97-2.28,1.23.53,1.39,1.55,1.97,2.28,2.19,0,2.9,2.68,4.32,3.75,5.25,3.96,8.63,9.67,12.93,15.03-1.59-4.17-3.66-7.82-5.59-11.58-1.04-2.02-3.19-3.49-3.97-6.11l5.13,5.5c3.64,3.91,6.49,8.36,9.4,13.15-1.32-6.68-4.79-12.05-7.06-17.93-1.05-1.88-3.23-3.32-3.78-5.91l4.95,5.43c5.34,5.86,10.55,11.76,15.42,18.32-1.66-5-4.18-9.3-6.42-13.69-1.56-3.07-4.67-5.48-6.59-8.67,3.65,1.64,5.12,5.69,7.63,8.06,5.12,4.83,9.24,10.75,12.18,17.36,1.01-1.56-.59-2.45-.98-3.65-2.24-6.96-5.67-13-9.2-18.97-1.21-2.05-3.64-3.56-4.91-6.3,2.27,1.24,3.81,3.7,5.84,5.15,7.65,5.46,14.28,12.62,20.52,19.87-.48.68.08.94.27,1.16,4.15,4.72-7.89-15.65-8.79-16.89-1.78-2.46-3.62-4.92-5.93-7.09,3.12,1.21,4.85,3.97,7.03,5.99,4.98,4.57,9.47,9.82,13.11,15.77.57.93.14,2.63,2.16,2.3-2.51-3.56-3.74-7.51-5.73-11.01-1.91-3.38-4.5-6.65-6.86-9.42,3.73,1.55,5.25,4.97,7.84,6.82,3.77,2.69,6.71,6.3,10.24,9.03-3.38-4.32-7.37-8.72-11.32-13.05,2.01.51,12.46,11.41,13.04,13.15.46-.45.86.08.63.55l3.4,4.17-.48-2.59c-5.54-6.36-9.32-14.18-16.02-21,7.28,5.91,14.21,12.9,20,20.58,1.67,2.22,3.73,4.14,5.11,6.71,1.02-1.13-.26-1.34-.15-1.97-.24.1-.76-.13-.63-.3.16-.21-8.65-13.57-9.89-15.57,4.64,3.82,8.12,8.26,11.9,12.21l-5.41-8.75c3.72,3.14,6.65,6.64,9.17,10.39,1.24,1.85,3.36,3.2,3.88,5.69.71-.89.41-1.36.41-1.81-2.5-2.69-3.46-6.52-7.1-11.19,3.83,3.04,6.43,7.3,9.45,11.12,1.34,1.69,1.67,3.84,3.59,5.4-.97-2.65-1.95-4.89-2.98-7.14-2.29-4.97-5.49-9.52-8.82-14.3,4.11,3.37,7.39,7.49,11.08,11.13,3.89,3.84,7.9,7.69,11.24,12.6.34.51.05,1.22.66,1.52.39.19.92.54,1.25-.12-1.71-1.16-1.74-3.08-2.46-4.32-2.31-3.96-4.91-7.87-6.84-12.14,3.51,2.38,4.56,5.87,7.3,8.24-.39-1.82-6.85-10.76-6.93-10.65.26-.34.51-.32.91-.31.59.02-.01.97.21,1.12,3.46,2.39,5.94,5.39,8.66,8.15,2.7,2.74,5.65,5.38,8.01,8.97.31.47.29.86.54,1.05,2.43,1.83-5.86-9.96-6.46-10.97-.62,0-1.05-.72-1.29-1.21ZM275.49,69.02c-.08.05-.15.1-.24.15-.18,1.97-1.47-.33.24-.15Z" style="fill:#231f20;"/><path d="M115.03,175.99s.08-.09.12-.14c-.06.06-.1.11-.12.14Z" style="fill:#231f20;"/></g></svg>